<svg width="84" height="14" viewBox="0 0 84 14" fill="none" xmlns="http://www.w3.org/2000/svg">
<path d="M83.8851 8.74153H77.3342V9.03645C77.3342 9.87058 77.5904 10.523 78.1028 10.9937C78.6152 11.4584 79.2914 11.6908 80.1315 11.6908C80.9299 11.6908 81.9427 11.4971 83.1701 11.1099L82.8484 13.0313C81.8355 13.2637 80.8465 13.3799 79.8812 13.3799C79.2378 13.3799 78.6509 13.3173 78.1206 13.1922C77.5963 13.073 77.1614 12.9181 76.8158 12.7275C76.4703 12.5309 76.1664 12.2955 75.9042 12.0214C75.6481 11.7474 75.4485 11.4793 75.3055 11.2171C75.1684 10.955 75.0582 10.669 74.9748 10.3591C74.8914 10.0493 74.8378 9.79015 74.8139 9.58162C74.796 9.36713 74.7871 9.14966 74.7871 8.92921C74.7871 8.66109 74.802 8.39298 74.8318 8.12487C74.8616 7.8508 74.9212 7.54098 75.0105 7.19541C75.1059 6.84984 75.228 6.52811 75.377 6.2302C75.5259 5.92634 75.7285 5.62546 75.9847 5.32755C76.2409 5.02965 76.5358 4.77345 76.8695 4.55896C77.2031 4.34447 77.6142 4.17169 78.1028 4.04061C78.5973 3.90953 79.1395 3.84399 79.7293 3.84399C80.5694 3.84399 81.3052 3.98103 81.9368 4.2551C82.5683 4.52917 83.0688 4.96113 83.4382 5.55098C83.8136 6.13487 84.0012 6.84686 84.0012 7.68695C84.0012 7.96102 83.9625 8.31255 83.8851 8.74153ZM77.4057 7.51714H81.5614C81.5614 6.7843 81.4154 6.24212 81.1235 5.89059C80.8375 5.53906 80.3549 5.3633 79.6757 5.3633C79.0561 5.3633 78.5437 5.56886 78.1385 5.97996C77.7334 6.38511 77.4891 6.89751 77.4057 7.51714Z" fill="#EAEBF1"/>
<path d="M74.3537 5.85482H72.0658C72.0598 6.02164 72.036 6.43275 71.9943 7.08814C71.9585 7.73757 71.9258 8.34529 71.896 8.91131C71.8721 9.47732 71.8602 9.85566 71.8602 10.0463C71.8602 10.4872 71.9258 10.8298 72.0568 11.0741C72.1939 11.3124 72.4471 11.4316 72.8165 11.4316C72.9595 11.4316 73.0846 11.4286 73.1918 11.4226C73.305 11.4167 73.4182 11.4048 73.5315 11.3869C73.6506 11.3631 73.731 11.3482 73.7728 11.3422C73.8145 11.3362 73.9038 11.3154 74.0409 11.2796C74.1839 11.2439 74.2643 11.223 74.2822 11.2171L73.9515 13.1028C73.2484 13.2875 72.5633 13.3799 71.896 13.3799C71.0023 13.3799 70.3499 13.2041 69.9387 12.8526C69.5276 12.4951 69.3221 11.8814 69.3221 11.0115C69.3221 10.6064 69.3608 9.72756 69.4383 8.37508C69.5217 7.0226 69.5783 6.18251 69.6081 5.85482H68.3301L68.4016 4.05846H69.76L69.8494 2.39616L72.2088 1.87781L72.1373 4.05846H74.4252L74.3537 5.85482Z" fill="#EAEBF1"/>
<path d="M63.773 11.6372L63.3172 13.2101C62.7393 13.3233 62.1762 13.3799 61.6281 13.3799C61.068 13.3799 60.5795 13.3143 60.1624 13.1833C59.7454 13.0522 59.4266 12.8973 59.2061 12.7185C58.9857 12.5338 58.807 12.3134 58.6699 12.0572C58.5388 11.801 58.4554 11.5776 58.4197 11.3869C58.3899 11.1963 58.375 10.9996 58.375 10.7971C58.375 10.2966 58.4942 9.86165 58.7325 9.49225C58.9708 9.12284 59.2776 8.83686 59.653 8.63428C60.0343 8.42575 60.4514 8.24999 60.9042 8.10699C61.363 7.95804 61.8217 7.8359 62.2805 7.74057C62.7393 7.63929 63.1563 7.53502 63.5317 7.42777C63.913 7.31457 64.2228 7.16562 64.4611 6.98092C64.6995 6.79622 64.8186 6.57279 64.8186 6.31064C64.8186 5.63737 64.2616 5.30074 63.1474 5.30074C62.0988 5.30074 60.9102 5.55694 59.5815 6.06933L59.8586 4.37128C61.3123 4.01976 62.629 3.84399 63.8087 3.84399C64.2616 3.84399 64.6756 3.87676 65.051 3.9423C65.4323 4.00784 65.8047 4.12104 66.1681 4.28191C66.5375 4.44278 66.8265 4.68706 67.035 5.01476C67.2495 5.34245 67.3568 5.74462 67.3568 6.22126C67.3568 6.53108 67.3061 7.50523 67.2048 9.1437C67.1035 10.7822 67.0529 12.1198 67.0529 13.1565H64.5058C64.5892 12.3998 64.6935 10.8328 64.8186 8.45554C64.6756 8.58066 64.4671 8.69982 64.193 8.81302C63.919 8.92027 63.6389 9.00964 63.353 9.08114C63.067 9.15264 62.7691 9.24201 62.4592 9.34925C62.1494 9.4565 61.8724 9.56672 61.6281 9.67992C61.3898 9.79313 61.1932 9.95102 61.0383 10.1536C60.8833 10.3502 60.8059 10.5766 60.8059 10.8328C60.8059 11.1009 60.8863 11.3214 61.0472 11.4942C61.2081 11.661 61.3957 11.7742 61.6102 11.8338C61.8247 11.8874 62.069 11.9142 62.3431 11.9142C62.772 11.9142 63.2487 11.8219 63.773 11.6372Z" fill="#EAEBF1"/>
<path d="M52.6889 6.18555H57.5239C57.363 8.33045 57.2468 10.5439 57.1753 12.8258C55.3402 13.1952 53.7524 13.3799 52.4118 13.3799C50.0763 13.3799 48.3157 12.8735 47.13 11.8606C45.9444 10.8418 45.3516 9.37013 45.3516 7.44568C45.3516 6.77242 45.438 6.12299 45.6107 5.49739C45.7835 4.86583 46.0635 4.25811 46.4508 3.67422C46.8441 3.09033 47.3267 2.58389 47.8986 2.15491C48.4706 1.71997 49.1885 1.37441 50.0525 1.11821C50.9164 0.856053 51.8756 0.724976 52.9302 0.724976C54.1754 0.724976 55.5398 0.885844 57.0234 1.20758L57.1396 3.36142C55.7275 2.89669 54.4525 2.66433 53.3145 2.66433C51.7714 2.66433 50.5172 3.09629 49.552 3.96021C48.5927 4.81817 48.1131 6.00978 48.1131 7.53505C48.1131 8.82795 48.4855 9.80209 49.2303 10.4575C49.975 11.1069 50.9998 11.4316 52.3046 11.4316C53.0196 11.4316 53.812 11.3303 54.6819 11.1278L54.8338 7.97297H52.5995L52.6889 6.18555Z" fill="#EAEBF1"/>
<path d="M40.5152 11.6372L40.0594 13.2101C39.4815 13.3233 38.9184 13.3799 38.3703 13.3799C37.8102 13.3799 37.3217 13.3143 36.9046 13.1833C36.4875 13.0522 36.1688 12.8973 35.9483 12.7185C35.7279 12.5338 35.5491 12.3134 35.4121 12.0572C35.281 11.801 35.1976 11.5776 35.1619 11.3869C35.1321 11.1963 35.1172 10.9996 35.1172 10.7971C35.1172 10.2966 35.2363 9.86165 35.4747 9.49225C35.713 9.12284 36.0198 8.83686 36.3952 8.63428C36.7765 8.42575 37.1936 8.24999 37.6464 8.10699C38.1052 7.95804 38.5639 7.8359 39.0227 7.74057C39.4815 7.63929 39.8985 7.53502 40.2739 7.42777C40.6552 7.31457 40.965 7.16562 41.2033 6.98092C41.4417 6.79622 41.5608 6.57279 41.5608 6.31064C41.5608 5.63737 41.0037 5.30074 39.8896 5.30074C38.841 5.30074 37.6523 5.55694 36.3237 6.06933L36.6007 4.37128C38.0545 4.01976 39.3712 3.84399 40.5509 3.84399C41.0037 3.84399 41.4178 3.87676 41.7932 3.9423C42.1745 4.00784 42.5469 4.12104 42.9103 4.28191C43.2797 4.44278 43.5687 4.68706 43.7772 5.01476C43.9917 5.34245 44.0989 5.74462 44.0989 6.22126C44.0989 6.53108 44.0483 7.50523 43.947 9.1437C43.8457 10.7822 43.7951 12.1198 43.7951 13.1565H41.248C41.3314 12.3998 41.4357 10.8328 41.5608 8.45554C41.4178 8.58066 41.2093 8.69982 40.9352 8.81302C40.6612 8.92027 40.3811 9.00964 40.0951 9.08114C39.8092 9.15264 39.5112 9.24201 39.2014 9.34925C38.8916 9.4565 38.6146 9.56672 38.3703 9.67992C38.132 9.79313 37.9353 9.95102 37.7804 10.1536C37.6255 10.3502 37.5481 10.5766 37.5481 10.8328C37.5481 11.1009 37.6285 11.3214 37.7894 11.4942C37.9502 11.661 38.1379 11.7742 38.3524 11.8338C38.5669 11.8874 38.8112 11.9142 39.0852 11.9142C39.5142 11.9142 39.9909 11.8219 40.5152 11.6372Z" fill="#EAEBF1"/>
<path d="M28.6079 13.1566H26.043C26.329 9.62344 26.4928 5.55407 26.5345 0.948486H29.1173C28.9982 2.59887 28.8879 4.60972 28.7867 6.98103C28.6854 9.34639 28.6258 11.4049 28.6079 13.1566ZM34.9532 4.0586L31.4946 8.08923C31.8342 8.60759 32.1976 9.14381 32.5849 9.69791C32.9781 10.2461 33.4369 10.8776 33.9612 11.5926C34.4855 12.3075 34.8668 12.8289 35.1052 13.1566H32.281C31.9057 12.4893 31.3188 11.5866 30.5204 10.4486C29.728 9.30468 29.1948 8.51226 28.9207 8.07136C29.1412 7.79729 29.4778 7.3832 29.9306 6.8291C30.3834 6.275 30.7796 5.78048 31.1192 5.34554C31.4648 4.90465 31.7865 4.47566 32.0844 4.0586H34.9532Z" fill="#EAEBF1"/>
<path d="M24.1928 13.1566H21.5742C21.9079 8.34245 22.1045 4.27309 22.1641 0.948486H24.8005C24.5443 4.30288 24.3417 8.37224 24.1928 13.1566Z" fill="#EAEBF1"/>
<path d="M15.7011 3.84399C17.1727 3.84399 18.3524 4.24914 19.2402 5.05944C20.1279 5.86974 20.5718 7.00177 20.5718 8.45554C20.5718 8.84877 20.5301 9.24796 20.4467 9.65311C20.3633 10.0583 20.1994 10.4902 19.9551 10.949C19.7168 11.4078 19.4129 11.8129 19.0435 12.1644C18.6801 12.51 18.1826 12.799 17.5511 13.0313C16.9255 13.2637 16.2105 13.3799 15.4062 13.3799C14.6972 13.3799 14.0567 13.2846 13.4847 13.0939C12.9127 12.9032 12.445 12.656 12.0816 12.3521C11.7181 12.0483 11.4143 11.6938 11.17 11.2886C10.9317 10.8835 10.7619 10.4783 10.6606 10.0732C10.5652 9.66801 10.5176 9.2569 10.5176 8.83984C10.5176 7.30265 10.9942 6.08721 11.9475 5.1935C12.9008 4.29383 14.152 3.84399 15.7011 3.84399ZM15.6832 5.63142C15.2244 5.63142 14.8223 5.72079 14.4767 5.89953C14.1311 6.07827 13.8571 6.32255 13.6545 6.63237C13.4579 6.94219 13.3089 7.28776 13.2076 7.66908C13.1123 8.04443 13.0646 8.45256 13.0646 8.89346C13.0646 9.66801 13.2702 10.3115 13.6813 10.8239C14.0984 11.3303 14.6852 11.5835 15.4419 11.5835C15.8828 11.5835 16.2731 11.4971 16.6127 11.3244C16.9523 11.1456 17.2204 10.9043 17.417 10.6004C17.6196 10.2966 17.7715 9.95995 17.8728 9.59055C17.9741 9.22115 18.0247 8.82494 18.0247 8.40192C18.0247 7.58566 17.8311 6.92134 17.4438 6.40894C17.0565 5.89059 16.4697 5.63142 15.6832 5.63142Z" fill="#EAEBF1"/>
<path d="M4.37603 8.01762L3.93811 6.23913C4.32538 6.29871 4.66797 6.3285 4.96587 6.3285C5.8 6.3285 6.43155 6.14976 6.86053 5.79228C7.28951 5.43479 7.504 4.91346 7.504 4.22828C7.504 3.66822 7.35207 3.28095 7.04821 3.06646C6.74435 2.85197 6.25579 2.74472 5.58253 2.74472C5.01056 2.74472 4.35815 2.77451 3.62531 2.83409C3.57765 3.63843 3.51211 5.22328 3.4287 7.58863C3.35124 9.94803 3.31251 11.804 3.31251 13.1565H0.658203C0.783322 12.1555 0.899504 10.2787 1.00675 7.52607C1.11995 4.77345 1.17655 2.58088 1.17655 0.948364H6.97672C7.44144 0.948364 7.85851 1.01986 8.2279 1.16285C8.5973 1.29989 8.89819 1.48161 9.13055 1.70802C9.36291 1.92847 9.55357 2.18466 9.70252 2.47661C9.85743 2.7626 9.96468 3.04561 10.0243 3.32563C10.0898 3.59971 10.1226 3.87378 10.1226 4.14785C10.1226 4.97602 9.91999 5.69695 9.51484 6.31063C9.11565 6.91835 8.58539 7.37414 7.92404 7.67801C7.26866 7.97591 6.53284 8.12486 5.71659 8.12486C5.28165 8.12486 4.8348 8.08911 4.37603 8.01762Z" fill="#EAEBF1"/>
</svg>
