<?xml version="1.0" encoding="UTF-8" standalone="no"?>
<!-- Generator: Adobe Illustrator 23.0.3, SVG Export Plug-In . SVG Version: 6.00 Build 0)  -->

<svg
   version="1.1"
   id="Layer_1"
   x="0px"
   y="0px"
   viewBox="15 15 140 140"
   style="enable-background:new 0 0 170 170;zoom: 1;"
   xml:space="preserve"
   sodipodi:docname="pjs.svg"
   inkscape:version="1.1.2 (b8e25be833, 2022-02-05)"
   xmlns:inkscape="http://www.inkscape.org/namespaces/inkscape"
   xmlns:sodipodi="http://sodipodi.sourceforge.net/DTD/sodipodi-0.dtd"
   xmlns="http://www.w3.org/2000/svg"
   xmlns:svg="http://www.w3.org/2000/svg"><defs
     id="defs37" /><sodipodi:namedview
     id="namedview35"
     pagecolor="#ffffff"
     bordercolor="#666666"
     borderopacity="1.0"
     inkscape:pageshadow="2"
     inkscape:pageopacity="0.0"
     inkscape:pagecheckerboard="0"
     showgrid="false"
     inkscape:zoom="3.515417"
     inkscape:cx="70.688627"
     inkscape:cy="70.261935"
     inkscape:window-width="1280"
     inkscape:window-height="897"
     inkscape:window-x="-8"
     inkscape:window-y="-8"
     inkscape:window-maximized="1"
     inkscape:current-layer="Layer_1" /><style
     type="text/css"
     id="style24">
  .bg0{fill:#FF8C00}
        .st0{fill:#FFFFFF;}
</style><g
     id="g32"><circle
       class="bg0"
       cx="85"
       cy="85"
       r="70"
       id="circle26" /><g
       id="g30"><path
         class="st0"
         d="M85,34.7c-20.8,0-37.8,16.9-37.8,37.8c0,4.2,0.7,8.3,2,12.3c0.9,2.7,3.9,4.2,6.7,3.3c2.7-0.9,4.2-3.9,3.3-6.7 c-1.1-3.1-1.6-6.4-1.5-9.7C58.1,57.6,69.5,46,83.6,45.3c15.7-0.8,28.7,11.7,28.7,27.2c0,14.5-11.4,26.4-25.7,27.2 c0,0-5.3,0.3-7.9,0.7c-1.3,0.2-2.3,0.4-3,0.5c-0.3,0.1-0.6-0.2-0.5-0.5l0.9-4.4L81,73.4c0.6-2.8-1.2-5.6-4-6.2 c-2.8-0.6-5.6,1.2-6.2,4c0,0-11.8,55-11.9,55.6c-0.6,2.8,1.2,5.6,4,6.2c2.8,0.6,5.6-1.2,6.2-4c0.1-0.6,1.7-7.9,1.7-7.9 c1.2-5.6,5.8-9.7,11.2-10.4c1.2-0.2,5.9-0.5,5.9-0.5c19.5-1.5,34.9-17.8,34.9-37.7C122.8,51.6,105.8,34.7,85,34.7z M87.7,121.7 c-3.4-0.7-6.8,1.4-7.5,4.9c-0.7,3.4,1.4,6.8,4.9,7.5c3.4,0.7,6.8-1.4,7.5-4.9C93.3,125.7,91.2,122.4,87.7,121.7z"
         id="path28" /></g></g><text
     xml:space="preserve"
     style="font-style:normal;font-weight:normal;font-size:57.6399px;line-height:1.25;font-family:sans-serif;mix-blend-mode:normal;fill:#ffffff;fill-opacity:1;stroke:none;stroke-width:1.44099;paint-order:stroke fill markers"
     x="93.900612"
     y="154.77478"
     id="text1595"
     transform="scale(1.0637002,0.94011452)"><tspan
       id="tspan1593"
       x="93.900612"
       y="154.77478"
       sodipodi:role="line"
       style="fill:#ffffff;stroke-width:1.44099;paint-order:stroke fill markers">+</tspan></text></svg>
