<svg xmlns="http://www.w3.org/2000/svg" fill="none" viewBox="6.67 6.67 26.71 28.33">
<path d="M20.0143 11.6651H18.3477V11.3818H18.7643V9.5651H18.3477L19.2643 8.64844H19.5977V11.3818H20.0143V11.6651Z" fill="black"/>
<path d="M19.1816 7.91797C20.5616 7.91797 21.6816 9.03797 21.6816 10.418C21.6816 11.798 20.5616 12.918 19.1816 12.918C17.8016 12.918 16.6816 11.798 16.6816 10.418C16.6816 9.03797 17.8016 7.91797 19.1816 7.91797ZM19.1816 6.66797C17.11 6.66797 15.4316 8.3463 15.4316 10.418C15.4316 12.4896 17.11 14.168 19.1816 14.168C21.2533 14.168 22.9316 12.4896 22.9316 10.418C22.9316 8.3463 21.2533 6.66797 19.1816 6.66797Z" fill="black"/>
<path fill-rule="evenodd" clip-rule="evenodd" d="M32.7314 18.732C32.9564 18.9637 33.1297 19.2487 33.2314 19.582L33.228 19.5587C33.3264 19.8537 33.3797 20.1687 33.3797 20.497C33.3797 20.6437 33.368 20.7887 33.348 20.9287C33.2697 21.5304 33.018 22.077 32.6497 22.5137L32.6481 22.5294C32.3263 22.1978 31.9772 21.8928 31.6044 21.6182C31.6029 21.5108 31.5948 21.4047 31.5814 21.312C31.5814 20.972 31.3697 20.682 31.068 20.5654C30.988 20.5204 30.898 20.4954 30.7997 20.4954C30.613 20.4954 30.4497 20.5887 30.3514 20.7254C30.333 20.7596 30.3167 20.7949 30.3025 20.8314C29.2038 20.2979 27.9704 19.9987 26.667 19.9987C22.0646 19.9987 18.3337 23.7297 18.3337 28.332C18.3337 29.5162 18.5807 30.6427 19.026 31.6628C18.1968 31.6535 17.3889 31.5701 16.6814 31.432V32.082C16.6814 33.332 15.6647 33.332 13.4814 33.332H11.6814L11.6564 29.3137C10.6947 28.617 9.87969 27.7287 9.24802 26.6654H8.34802C6.39802 26.6654 6.68136 19.9987 6.68136 19.9987L9.26969 19.957C9.80302 19.0237 10.503 18.2004 11.348 17.5154L10.0147 13.332C14.3814 13.332 15.3314 14.7987 15.4347 15.522C16.6247 15.1837 17.8814 15.002 19.153 15.0004C19.3564 14.9887 19.5614 14.9837 19.768 14.9837C23.8214 14.9837 27.3664 17.1554 29.3364 20.4354C29.3864 20.277 29.453 20.1287 29.5364 19.992C29.808 19.5287 30.3114 19.2187 30.888 19.2187C31.1147 19.2187 31.3297 19.267 31.528 19.3554C31.848 19.4954 32.123 19.717 32.328 19.9937C32.4264 20.1337 32.5064 20.2887 32.5647 20.4804C32.578 20.362 32.5847 20.2437 32.5847 20.1237C32.5847 20.0037 32.578 19.8854 32.5647 19.7737C32.5464 19.502 32.4864 19.2404 32.393 18.9954C32.3097 18.7554 32.198 18.5304 32.0747 18.3354C32.3297 18.4037 32.5564 18.5437 32.7314 18.732ZM13.7814 20.832C13.7814 20.142 13.2214 19.582 12.5314 19.582C11.8414 19.582 11.2814 20.142 11.2814 20.832C11.2814 21.522 11.8414 22.082 12.5314 22.082C13.2214 22.082 13.7814 21.522 13.7814 20.832ZM16.2247 18.372C16.3164 18.372 16.4047 18.357 16.4814 18.332L16.3964 18.3487C17.3347 18.1187 18.3147 17.997 19.323 17.997H19.393H19.4714C20.4797 17.997 21.4614 18.1187 22.3147 18.3304H22.5697C22.818 18.2904 23.0297 18.1337 23.1464 17.9187C23.1664 17.857 23.178 17.7904 23.178 17.7204C23.178 17.4037 22.9514 17.1404 22.7414 17.1004C21.6997 16.847 20.613 16.7137 19.493 16.7137C19.4595 16.7137 19.4254 16.7142 19.3944 16.7146C19.3684 16.715 19.3445 16.7154 19.3247 16.7154C19.2614 16.7137 19.1997 16.7137 19.1364 16.7137C18.0164 16.7137 16.928 16.847 15.9764 17.082C15.678 17.1404 15.4514 17.4037 15.4514 17.7204C15.4514 17.7904 15.4614 17.857 15.483 17.9204C15.6214 18.1887 15.9014 18.372 16.2247 18.372Z" fill="black"/>
<path fill-rule="evenodd" clip-rule="evenodd" d="M26.6667 35.0013C30.3486 35.0013 33.3333 32.0165 33.3333 28.3346C33.3333 24.6527 30.3486 21.668 26.6667 21.668C22.9848 21.668 20 24.6527 20 28.3346C20 32.0165 22.9848 35.0013 26.6667 35.0013ZM30 32.1107C30 32.3264 29.8135 32.5013 29.5833 32.5013L23.75 32.5013C23.5199 32.5013 23.3333 32.3264 23.3333 32.1107V31.8503C23.3333 31.6345 23.5199 31.4596 23.75 31.4596C23.75 29.9791 24.6357 28.7296 25.848 28.3346C24.6357 27.9397 23.75 26.6902 23.75 25.2096C23.5199 25.2096 23.3333 25.0347 23.3333 24.819V24.5586C23.3333 24.3429 23.5199 24.168 23.75 24.168L29.5833 24.168C29.8135 24.168 30 24.3429 30 24.5586V24.819C30 25.0348 29.8135 25.2096 29.5833 25.2096C29.5833 26.6902 28.6976 27.9397 27.4854 28.3346C28.6976 28.7296 29.5833 29.9791 29.5833 31.4596C29.8135 31.4596 30 31.6345 30 31.8503V32.1107ZM28.2799 26.2513L25.0534 26.2513C25.3496 27.0131 25.958 27.5534 26.6667 27.5534C27.3754 27.5534 27.9837 27.013 28.2799 26.2513ZM28.2799 30.418L25.0531 30.418C24.9303 30.7339 24.8611 31.0885 24.8611 31.4596L28.4722 31.4596C28.4722 31.0894 28.403 30.7346 28.2799 30.418Z" fill="black"/>
</svg>