<svg width="48" height="48" viewBox="0 0 48 48" fill="none" xmlns="http://www.w3.org/2000/svg">
  <path d="M48 24C48 37.2507 37.2507 48 24 48C10.7493 48 0 37.2507 0 24C0 10.7493 10.7493 0 24 0C37.2507 0 48 10.7493 48 24Z" fill="#321D47"/>
  <path d="M33.3232 29.5364H28.1852L27.2387 27.1733H20.7486L19.8021 29.5364H14.6641L20.8162 15.6277H27.2387L33.3232 29.5364ZM23.9936 19.2062L22.3034 23.3923H25.6837L23.9936 19.2062Z" fill="white"/>
  <path d="M23.9971 12.6569C25.976 12.6569 27.5802 11.0548 27.5802 9.07846C27.5802 7.10213 25.976 5.5 23.9971 5.5C22.0182 5.5 20.4141 7.10213 20.4141 9.07846C20.4141 11.0548 22.0182 12.6569 23.9971 12.6569Z" fill="#E6007A"/>
  <path d="M23.9971 42.4999C25.976 42.4999 27.5802 40.8978 27.5802 38.9215C27.5802 36.9452 25.976 35.343 23.9971 35.343C22.0182 35.343 20.4141 36.9452 20.4141 38.9215C20.4141 40.8978 22.0182 42.4999 23.9971 42.4999Z" fill="#E6007A"/>
  <path d="M10.8799 19.7463C12.8588 19.7463 14.4631 18.1442 14.4631 16.1678C14.4631 14.1915 12.8588 12.5894 10.8799 12.5894C8.90103 12.5894 7.29688 14.1915 7.29688 16.1678C7.29688 18.1442 8.90103 19.7463 10.8799 19.7463Z" fill="#E6007A"/>
  <path d="M37.1144 19.7463C39.0933 19.7463 40.6975 18.1442 40.6975 16.1678C40.6975 14.1915 39.0933 12.5894 37.1144 12.5894C35.1355 12.5894 33.5312 14.1915 33.5312 16.1678C33.5312 18.1442 35.1355 19.7463 37.1144 19.7463Z" fill="#E6007A"/>
  <path d="M10.8799 35.5456C12.8588 35.5456 14.4631 33.9435 14.4631 31.9671C14.4631 29.9908 12.8588 28.3887 10.8799 28.3887C8.90103 28.3887 7.29688 29.9908 7.29688 31.9671C7.29688 33.9435 8.90103 35.5456 10.8799 35.5456Z" fill="#E6007A"/>
  <path d="M37.1144 35.5456C39.0933 35.5456 40.6975 33.9435 40.6975 31.9671C40.6975 29.9908 39.0933 28.3887 37.1144 28.3887C35.1355 28.3887 33.5312 29.9908 33.5312 31.9671C33.5312 33.9435 35.1355 35.5456 37.1144 35.5456Z" fill="#E6007A"/>
  <rect width="48" height="48" fill="#bbc5d2" fill-opacity="0.5"/>
</svg>