<svg version="1.2" xmlns="http://www.w3.org/2000/svg" viewBox="0 0 30 30" width="30" height="30"><style>.a{fill:#fff}</style><path fill-rule="evenodd" class="a" d="m13.2 1.2c0.7-0.7 1.9-0.7 2.6 0l5.3 5.3c0.7 0.8 0.7 1.9 0 2.6-0.7 0.7-1.8 0.7-2.6 0l-5.3-5.3c-0.7-0.7-0.7-1.9 0-2.6zm-12.2 26v0.9c0 0.5 0.4 0.9 0.9 0.9h11.2c0.5 0 0.9-0.4 0.9-0.9v-0.9c0-1-0.8-1.9-1.9-1.9h-9.2c-1.1 0-1.9 0.9-1.9 1.9zm4.5-15.6c-0.8-0.8-1.9-0.8-2.6 0-0.7 0.7-0.7 1.9 0 2.6l5.3 5.6c0.7 0.7 1.9 0.7 2.6 0 0.7-0.8 0.7-2 0-2.7zm0.5-0.4l5.2 5.2 6.5-6.5-5.2-5.2zm22.5 11.8l-10.9-10.9-3.9 3.9 10.9 10.9c1.1 1.1 2.8 1.1 3.9 0 1.1-1 1.1-2.8 0-3.9z"/></svg>