<svg xmlns="http://www.w3.org/2000/svg" fill="none" viewBox="5 6.67 28.33 28.33">
<path fill-rule="evenodd" clip-rule="evenodd" d="M17.2026 7.20417C17.9176 6.48912 19.0759 6.48946 19.7909 7.20384L25.1301 12.543C25.8451 13.258 25.8451 14.417 25.1301 15.1317C24.4151 15.8468 23.257 15.8466 22.5418 15.132L17.2026 9.79288C16.4876 9.07783 16.4876 7.91888 17.2026 7.20417ZM6.85677 31.3346H16.1425C17.1682 31.3346 17.9997 32.1554 17.9997 33.168V34.0846C17.9997 34.5909 17.5839 35.0013 17.0711 35.0013H5.92822C5.41541 35.0013 4.99968 34.5909 4.99968 34.0846V33.168C4.99961 32.1554 5.83108 31.3346 6.85677 31.3346ZM9.45772 17.5574C8.74272 16.8159 7.58435 16.8161 6.8693 17.557C6.15424 18.2986 6.15424 19.5004 6.8693 20.2416L12.2083 25.7785C12.9232 26.52 14.0815 26.52 14.7967 25.7788C15.5118 25.0373 15.5118 23.8354 14.7967 23.0943L9.45772 17.5574ZM16.4596 10.668L21.6663 15.8772L15.2063 22.3346L9.99967 17.1249L16.4596 10.668ZM32.5304 28.9334L21.558 18.0013L17.6663 21.9249L28.6413 32.8543C29.6794 33.9128 31.418 33.9631 32.5243 32.8605L32.5304 32.8543C33.6005 31.7755 33.6005 30.0123 32.5304 28.9334Z" fill="#63364D"/>
</svg>