<svg width="140" height="144" viewBox="0 0 140 144" fill="none" xmlns="http://www.w3.org/2000/svg">
<path d="M122.421 53.3081C124.905 53.3081 126.918 51.2928 126.918 48.8068C126.918 46.3208 124.905 44.3055 122.421 44.3055C119.937 44.3055 117.924 46.3208 117.924 48.8068C117.924 51.2928 119.937 53.3081 122.421 53.3081Z" fill="#7956A5"/>
<path d="M2.95873 77.6502C4.59279 77.6502 5.91745 76.3244 5.91745 74.6889C5.91745 73.0533 4.59279 71.7275 2.95873 71.7275C1.32467 71.7275 0 73.0533 0 74.6889C0 76.3244 1.32467 77.6502 2.95873 77.6502Z" fill="#7956A5"/>
<path d="M16.5603 130.89C18.1943 130.89 19.519 129.564 19.519 127.929C19.519 126.293 18.1943 124.967 16.5603 124.967C14.9262 124.967 13.6016 126.293 13.6016 127.929C13.6016 129.564 14.9262 130.89 16.5603 130.89Z" fill="#7956A5"/>
<path d="M32.377 130.89L73.8962 117.88V64.5404L32.377 77.4501V130.89Z" fill="#B7BFCD"/>
<path opacity="0.4" d="M115.416 130.89L73.8965 117.88V64.5404L115.416 77.4501V130.89Z" fill="#6D7C9A"/>
<path d="M32.377 130.89L73.8962 117.88V64.5404L32.377 77.4501V130.89Z" fill="#674394"/>
<path d="M115.415 130.89L73.8962 117.88V64.5404L115.415 77.4501V130.89Z" fill="#674394"/>
<path d="M115.416 130.89L73.8965 117.88V64.5404L115.416 77.4501V130.89Z" fill="#7956A5"/>
<path d="M73.8962 144L32.377 130.99V77.6502L73.8962 90.66V144Z" fill="#674394"/>
<path d="M73.8965 144L115.416 130.99V77.6502L73.8965 90.66V144Z" fill="#4B3271"/>
<path opacity="0.29" d="M64.4891 134.593L32.377 130.99V77.6502L73.8962 90.66L64.4891 134.593Z" fill="#060A1C"/>
<path opacity="0.29" d="M83.3035 125.186L115.416 130.99V77.6502L73.8965 90.66L83.3035 125.186Z" fill="url(#paint0_linear_2926_11731)"/>
<path d="M73.8959 64.5404L54.375 49.9294L12.1621 64.1401L32.3767 77.4501L73.8959 64.5404Z" fill="#E30B7B"/>
<path d="M73.8965 64.5404L93.4174 49.9294L135.63 64.1401L115.416 77.4501L73.8965 64.5404Z" fill="#AA83DC"/>
<path d="M32.3767 77.6502L73.8959 90.66L53.1859 103.87L12.1621 90.2597L32.3767 77.6502Z" fill="#AA83DC"/>
<path d="M115.416 77.6502L73.8965 90.66L94.6065 103.87L135.63 90.2597L115.416 77.6502Z" fill="#E30B7B"/>
<path d="M85.4778 13.3322C91.2944 29.1178 93.0281 32.6252 93.5972 48.1797C93.3784 51.7302 93.2427 55.5911 91.5687 58.7C89.3332 63.4558 83.8653 66.7494 78.6993 66.8027C73.3773 66.8978 68.1598 63.6393 65.8114 58.6146C64.1592 55.5652 64.2117 51.394 66.4781 48.6254C68.942 45.9701 73.2765 45.308 76.3946 46.9671C79.8245 48.5427 81.8717 51.8189 82.63 55.2741C83.3883 58.7292 83.0552 62.4767 82.1296 65.884C80.1937 74.171 78.5904 74.5719 73.8431 88.6022" stroke="#BEAAD8" stroke-width="2" stroke-miterlimit="10" stroke-dasharray="4 4"/>
<path d="M92.5561 4.97691C92.5426 7.29808 90.3825 8.71935 87.6432 7.97821C84.7591 7.48656 82.7178 6.97984 82.5864 4.90818C82.6526 2.7836 84.9706 1.95207 87.6837 1.01472C90.9369 -0.277948 92.372 2.70866 92.5561 4.97691Z" fill="#FF4FB9"/>
<path d="M73.9215 12.075C75.3831 13.5797 78.4648 14.0184 79.9665 11.72C81.6131 9.17216 83.0226 7.31986 81.5083 5.61858C80.0467 4.11388 78.6242 5.12692 75.371 6.4196C72.7631 7.75011 72.2096 10.4266 73.9215 12.075Z" fill="#FF4FB9"/>
<path d="M80.6639 2.4735C81.9941 1.90654 83.5877 2.32249 84.2987 3.39617C84.6015 3.73643 84.957 4.27327 85.0623 4.66644C86.1946 7.31279 85.8386 9.93636 84.3108 10.5562C82.6381 11.4256 80.3336 9.93598 79.4515 7.4333C79.2409 6.64696 79.1356 6.25379 78.9777 5.66404C78.8067 4.23504 79.3336 3.04047 80.6639 2.4735C80.8615 2.42059 80.6639 2.4735 80.6639 2.4735Z" fill="#EAEBF1"/>
<path d="M19.518 45.0733H16.9427V42.4981H14.7354V45.0733H12.1602V47.3542H14.7354V49.9295H16.9427V47.3542H19.518V45.0733Z" fill="#FF4FB9"/>
<path d="M25.1742 109.685H22.599V107.109H20.3916V109.685H17.8164V111.966H20.3916V114.541H22.599V111.966H25.1742V109.685Z" fill="#FF4FB9"/>
<path d="M137.751 109.83L134.601 108.24L136.191 105.089L133.491 103.725L131.9 106.876L128.749 105.285L127.34 108.076L130.491 109.667L128.9 112.818L131.601 114.181L133.192 111.03L136.342 112.621L137.751 109.83Z" fill="#FF4FB9"/>
<defs>
<linearGradient id="paint0_linear_2926_11731" x1="83.2048" y1="111.846" x2="92.0783" y2="85.0915" gradientUnits="userSpaceOnUse">
<stop offset="0.00289017" stop-color="#292D36" stop-opacity="0"/>
<stop offset="1" stop-color="#2A2E37"/>
</linearGradient>
</defs>
</svg>
