<svg width="40" height="43" viewBox="0 0 40 43" fill="none" xmlns="http://www.w3.org/2000/svg">
<path fill-rule="evenodd" clip-rule="evenodd" d="M12.265 15.2725C14.2945 15.2519 15.9318 13.6326 15.9318 11.6364C15.9318 9.62727 14.2734 8 12.2258 8C10.1782 8 8.51974 9.62727 8.51974 11.6364C8.51974 13.6326 10.157 15.2519 12.1865 15.2725H8.51952C7.59301 15.2725 6.6665 16.1816 6.6665 17.0907V24.3634C6.6665 25.2725 7.59301 26.1816 8.51952 26.1816V37.0907H15.9316V35.5358L15.6301 35.7083L15.6262 35.7105C14.768 36.2041 13.7015 36.0141 13.0578 35.3259L13.0549 35.3228C11.7472 33.9169 10.7452 32.2264 10.1565 30.3554L10.1533 30.3453L10.1503 30.3352C9.88705 29.455 10.2406 28.4639 11.1016 27.9741L11.1054 27.9719L12.2308 27.328C12.1849 26.7668 12.1849 26.2027 12.2308 25.6415L11.1017 24.9954C10.2612 24.5173 9.86704 23.5291 10.1569 22.6128C10.7451 20.7398 11.7456 19.0504 13.0527 17.649C13.7181 16.9277 14.7853 16.7829 15.6184 17.2546L15.622 17.2566L16.7454 17.9009C17.0796 17.6732 17.4266 17.4646 17.7846 17.2762V17.0907C17.7846 16.1816 16.8581 15.2725 15.9316 15.2725H12.265ZM33.2518 29.2522L31.2568 28.11C31.4581 27.0328 31.4581 25.9277 31.2568 24.8505L33.2518 23.7083C33.4812 23.5783 33.5843 23.3089 33.5093 23.0582C32.9895 21.4052 32.1044 19.9101 30.9477 18.6658C30.7697 18.4754 30.4794 18.429 30.2546 18.559L28.2596 19.7012C27.4213 18.9861 26.4566 18.4336 25.4123 18.0714V15.7916C25.4123 15.5316 25.2297 15.3041 24.9721 15.2484C23.2534 14.8676 21.4926 14.8862 19.8582 15.2484C19.6006 15.3041 19.418 15.5316 19.418 15.7916V18.0761C18.3783 18.4429 17.4136 18.9954 16.5707 19.7058L14.5804 18.5636C14.3509 18.4336 14.0652 18.4754 13.8873 18.6704C12.7306 19.9101 11.8455 21.4052 11.3256 23.0629C11.246 23.3136 11.3537 23.5829 11.5832 23.7129L13.5782 24.8551C13.3768 25.9323 13.3768 27.0374 13.5782 28.1146L11.5832 29.2569C11.3537 29.3869 11.2507 29.6562 11.3256 29.9069C11.8455 31.5599 12.7306 33.055 13.8873 34.2994C14.0652 34.4897 14.3556 34.5362 14.5804 34.4062L16.5754 33.2639C17.4136 33.979 18.3783 34.5315 19.4227 34.8937V37.1781C19.4227 37.4381 19.6053 37.6657 19.8629 37.7214C21.5816 38.1021 23.3424 38.0836 24.9768 37.7214C25.2344 37.6657 25.417 37.4381 25.417 37.1781V34.8937C26.4566 34.5269 27.4213 33.9743 28.2643 33.2639L30.2593 34.4062C30.4887 34.5362 30.7744 34.4944 30.9524 34.2994C32.1091 33.0596 32.9942 31.5645 33.514 29.9069C33.5843 29.6515 33.4812 29.3822 33.2518 29.2522ZM22.4151 30.1948C20.3499 30.1948 18.6687 28.5279 18.6687 26.4802C18.6687 24.4326 20.3499 22.7657 22.4151 22.7657C24.4804 22.7657 26.1616 24.4326 26.1616 26.4802C26.1616 28.5279 24.4804 30.1948 22.4151 30.1948Z" fill="white"/>
<g filter="url(#filter0_d_3129_17374)">
<circle cx="29" cy="11" r="9" fill="#1F7720"/>
<path d="M31.1171 12.8878H33.9836C33.9454 13.7001 33.7215 14.4162 33.312 15.0361C32.9025 15.656 32.3347 16.1396 31.6085 16.487C30.8878 16.829 30.036 17 29.0532 17C28.2561 17 27.5435 16.8691 26.9156 16.6072C26.2932 16.3454 25.7636 15.9686 25.3268 15.477C24.8954 14.9853 24.5651 14.3894 24.3358 13.6894C24.1119 12.9893 24 12.2011 24 11.3246V10.6914C24 9.81496 24.1174 9.02672 24.3522 8.32665C24.5924 7.62124 24.9309 7.02271 25.3677 6.53106C25.81 6.03407 26.3396 5.65464 26.9566 5.39279C27.5736 5.13093 28.2588 5 29.0123 5C30.0497 5 30.926 5.1817 31.6413 5.54509C32.3565 5.90848 32.9107 6.40815 33.3038 7.04409C33.697 7.67468 33.929 8.39345 34 9.2004H31.1335C31.1226 8.76219 31.0461 8.39613 30.9042 8.1022C30.7622 7.80294 30.5384 7.57849 30.2326 7.42886C29.9268 7.27923 29.5201 7.20441 29.0123 7.20441C28.6574 7.20441 28.3489 7.26854 28.0868 7.39679C27.8247 7.52505 27.6063 7.72812 27.4316 8.00601C27.2569 8.2839 27.1259 8.64462 27.0385 9.08818C26.9566 9.52639 26.9156 10.0554 26.9156 10.6754V11.3246C26.9156 11.9446 26.9539 12.4736 27.0303 12.9118C27.1067 13.35 27.2296 13.7081 27.3989 13.986C27.5681 14.2639 27.7865 14.4696 28.0541 14.6032C28.3271 14.7315 28.6601 14.7956 29.0532 14.7956C29.49 14.7956 29.8586 14.7288 30.1589 14.5952C30.4592 14.4562 30.6912 14.2478 30.855 13.9699C31.0188 13.6867 31.1062 13.326 31.1171 12.8878Z" fill="white"/>
</g>
<defs>
<filter id="filter0_d_3129_17374" x="14" y="0" width="26" height="26" filterUnits="userSpaceOnUse" color-interpolation-filters="sRGB">
<feFlood flood-opacity="0" result="BackgroundImageFix"/>
<feColorMatrix in="SourceAlpha" type="matrix" values="0 0 0 0 0 0 0 0 0 0 0 0 0 0 0 0 0 0 127 0" result="hardAlpha"/>
<feOffset dx="-2" dy="2"/>
<feGaussianBlur stdDeviation="2"/>
<feComposite in2="hardAlpha" operator="out"/>
<feColorMatrix type="matrix" values="0 0 0 0 0 0 0 0 0 0 0 0 0 0 0 0 0 0 0.25 0"/>
<feBlend mode="normal" in2="BackgroundImageFix" result="effect1_dropShadow_3129_17374"/>
<feBlend mode="normal" in="SourceGraphic" in2="effect1_dropShadow_3129_17374" result="shape"/>
</filter>
</defs>
</svg>
