<svg width="119" height="77" viewBox="0 0 119 77" fill="none" xmlns="http://www.w3.org/2000/svg">
<path d="M34.0288 12.291C38.454 12.291 48.5434 12.291 51.8181 23.4559" stroke="#8E96AB" stroke-width="1.92" stroke-miterlimit="10" stroke-linecap="round" stroke-linejoin="round"/>
<path d="M85.2718 12.291C80.8466 12.291 70.7572 12.291 67.4825 23.4559" stroke="#809ACB" stroke-width="1.92" stroke-miterlimit="10" stroke-linecap="round" stroke-linejoin="round"/>
<path d="M34.0288 50.2528C38.454 50.2528 48.5434 50.2528 51.8181 39.0879" stroke="#8E96AB" stroke-width="1.92" stroke-miterlimit="10" stroke-linecap="round" stroke-linejoin="round"/>
<path d="M85.2718 50.2528C80.8466 50.2528 70.7572 50.2528 67.4825 39.0879" stroke="#8E96AB" stroke-width="1.92" stroke-miterlimit="10" stroke-linecap="round" stroke-linejoin="round"/>
<g filter="url(#filter0_d_821_7632)">
<path d="M34.6084 17.9079H16.5867C15.7798 17.9079 15.0625 17.2717 15.0625 16.4537V8.91028C15.0625 8.09231 15.7798 7.36523 16.5867 7.36523H34.6084C35.4153 7.36523 36.1326 8.09231 36.1326 8.91028V16.4537C36.1326 17.2717 35.4153 17.9079 34.6084 17.9079Z" fill="#809ACB"/>
</g>
<path d="M30.5551 13.5675H20.6397C20.2856 13.5675 20.02 13.1688 20.02 12.6373C20.02 12.1057 20.2856 11.707 20.6397 11.707H30.5551C30.9092 11.707 31.1748 12.1057 31.1748 12.6373C31.1748 13.1688 30.9092 13.5675 30.5551 13.5675Z" fill="#535E9B"/>
<g filter="url(#filter1_d_821_7632)">
<path d="M103.396 17.9079H85.3742C84.5673 17.9079 83.85 17.2717 83.85 16.4537V8.91028C83.85 8.09231 84.5673 7.36523 85.3742 7.36523H103.396C104.203 7.36523 104.92 8.09231 104.92 8.91028V16.4537C104.92 17.2717 104.203 17.9079 103.396 17.9079Z" fill="#809ACB"/>
</g>
<g filter="url(#filter2_d_821_7632)">
<path d="M85.3545 45.1953H103.144C103.94 45.1953 104.648 45.9099 104.648 46.7137V54.1272C104.648 54.9311 103.94 55.6457 103.144 55.6457H85.3545C84.558 55.6457 83.85 54.9311 83.85 54.1272V46.7137C83.9385 45.9099 84.558 45.1953 85.3545 45.1953Z" fill="#809ACB"/>
</g>
<path d="M99.3426 51.3956H89.4272C89.0731 51.3956 88.8075 50.9969 88.8075 50.4654C88.8075 49.9338 89.0731 49.5352 89.4272 49.5352H99.3426C99.6967 49.5352 99.9623 49.9338 99.9623 50.4654C99.9623 50.9969 99.6967 51.3956 99.3426 51.3956Z" fill="#535E9B"/>
<path d="M99.3426 13.5675H89.4272C89.0731 13.5675 88.8075 13.1688 88.8075 12.6373C88.8075 12.1057 89.0731 11.707 89.4272 11.707H99.3426C99.6967 11.707 99.9623 12.1057 99.9623 12.6373C99.9623 13.1688 99.6967 13.5675 99.3426 13.5675Z" fill="#535E9B"/>
<path d="M74.8021 40.2325H44.4591C42.9318 40.2325 41.71 38.9922 41.71 37.4418V25.0387C41.71 23.4884 42.9318 22.248 44.4591 22.248H74.9039C76.4312 22.248 77.6531 23.4884 77.6531 25.0387V37.4418C77.5513 38.9922 76.3294 40.2325 74.8021 40.2325Z" fill="#596AFF"/>
<path d="M68.4488 30.3107H50.9143C50.2881 30.3107 49.7662 29.7469 49.7662 29.0704C49.7662 28.3939 50.2881 27.8301 50.9143 27.8301H68.4488C69.0751 27.8301 69.5969 28.3939 69.5969 29.0704C69.5969 29.7469 69.0751 30.3107 68.4488 30.3107Z" fill="#3141D0"/>
<path d="M65.1894 34.6515H54.1723C53.7789 34.6515 53.4838 34.2528 53.4838 33.7212C53.4838 33.1897 53.7789 32.791 54.1723 32.791H65.1894C65.5828 32.791 65.8779 33.1897 65.8779 33.7212C65.8779 34.2528 65.5828 34.6515 65.1894 34.6515Z" fill="#3141D0"/>
<g filter="url(#filter3_d_821_7632)">
<path d="M34.5459 55.7575H16.5242C15.7173 55.7575 15 55.1213 15 54.3033V46.7599C15 45.9419 15.7173 45.2148 16.5242 45.2148H34.5459C35.3528 45.2148 36.0701 45.9419 36.0701 46.7599V54.3033C36.0701 55.1213 35.3528 55.7575 34.5459 55.7575Z" fill="#809ACB"/>
</g>
<path d="M30.5551 51.3956H20.6397C20.2856 51.3956 20.02 50.9969 20.02 50.4654C20.02 49.9338 20.2856 49.5352 20.6397 49.5352H30.5551C30.9092 49.5352 31.1748 49.9338 31.1748 50.4654C31.1748 50.9969 30.9092 51.3956 30.5551 51.3956Z" fill="#535E9B"/>
<defs>
<filter id="filter0_d_821_7632" x="0.9825" y="0.325234" width="49.2301" height="38.703" filterUnits="userSpaceOnUse" color-interpolation-filters="sRGB">
<feFlood flood-opacity="0" result="BackgroundImageFix"/>
<feColorMatrix in="SourceAlpha" type="matrix" values="0 0 0 0 0 0 0 0 0 0 0 0 0 0 0 0 0 0 127 0" result="hardAlpha"/>
<feOffset dy="7.04"/>
<feGaussianBlur stdDeviation="7.04"/>
<feColorMatrix type="matrix" values="0 0 0 0 0 0 0 0 0 0 0 0 0 0 0 0 0 0 0.27 0"/>
<feBlend mode="normal" in2="BackgroundImageFix" result="effect1_dropShadow_821_7632"/>
<feBlend mode="normal" in="SourceGraphic" in2="effect1_dropShadow_821_7632" result="shape"/>
</filter>
<filter id="filter1_d_821_7632" x="69.77" y="0.325234" width="49.2301" height="38.703" filterUnits="userSpaceOnUse" color-interpolation-filters="sRGB">
<feFlood flood-opacity="0" result="BackgroundImageFix"/>
<feColorMatrix in="SourceAlpha" type="matrix" values="0 0 0 0 0 0 0 0 0 0 0 0 0 0 0 0 0 0 127 0" result="hardAlpha"/>
<feOffset dy="7.04"/>
<feGaussianBlur stdDeviation="7.04"/>
<feColorMatrix type="matrix" values="0 0 0 0 0 0 0 0 0 0 0 0 0 0 0 0 0 0 0.27 0"/>
<feBlend mode="normal" in2="BackgroundImageFix" result="effect1_dropShadow_821_7632"/>
<feBlend mode="normal" in="SourceGraphic" in2="effect1_dropShadow_821_7632" result="shape"/>
</filter>
<filter id="filter2_d_821_7632" x="69.77" y="38.1553" width="48.9583" height="38.6112" filterUnits="userSpaceOnUse" color-interpolation-filters="sRGB">
<feFlood flood-opacity="0" result="BackgroundImageFix"/>
<feColorMatrix in="SourceAlpha" type="matrix" values="0 0 0 0 0 0 0 0 0 0 0 0 0 0 0 0 0 0 127 0" result="hardAlpha"/>
<feOffset dy="7.04"/>
<feGaussianBlur stdDeviation="7.04"/>
<feColorMatrix type="matrix" values="0 0 0 0 0 0 0 0 0 0 0 0 0 0 0 0 0 0 0.27 0"/>
<feBlend mode="normal" in2="BackgroundImageFix" result="effect1_dropShadow_821_7632"/>
<feBlend mode="normal" in="SourceGraphic" in2="effect1_dropShadow_821_7632" result="shape"/>
</filter>
<filter id="filter3_d_821_7632" x="0.92" y="38.1748" width="49.2301" height="38.703" filterUnits="userSpaceOnUse" color-interpolation-filters="sRGB">
<feFlood flood-opacity="0" result="BackgroundImageFix"/>
<feColorMatrix in="SourceAlpha" type="matrix" values="0 0 0 0 0 0 0 0 0 0 0 0 0 0 0 0 0 0 127 0" result="hardAlpha"/>
<feOffset dy="7.04"/>
<feGaussianBlur stdDeviation="7.04"/>
<feColorMatrix type="matrix" values="0 0 0 0 0 0 0 0 0 0 0 0 0 0 0 0 0 0 0.27 0"/>
<feBlend mode="normal" in2="BackgroundImageFix" result="effect1_dropShadow_821_7632"/>
<feBlend mode="normal" in="SourceGraphic" in2="effect1_dropShadow_821_7632" result="shape"/>
</filter>
</defs>
</svg>
