<svg width="29" height="29" viewBox="0 0 29 29" fill="none" xmlns="http://www.w3.org/2000/svg">
<path d="M13.8424 5.81761H12.1973V5.53793H12.6086V3.74469H12.1973L13.1021 2.83984H13.4311V5.53793H13.8424V5.81761Z" fill="#63364D"/>
<path d="M13.021 2.1167C14.3832 2.1167 15.4888 3.22225 15.4888 4.58446C15.4888 5.94667 14.3832 7.05223 13.021 7.05223C11.6588 7.05223 10.5532 5.94667 10.5532 4.58446C10.5532 3.22225 11.6588 2.1167 13.021 2.1167ZM13.021 0.882812C10.976 0.882812 9.31934 2.53951 9.31934 4.58446C9.31934 6.62942 10.976 8.28611 13.021 8.28611C15.0659 8.28611 16.7226 6.62942 16.7226 4.58446C16.7226 2.53951 15.0659 0.882812 13.021 0.882812Z" fill="#63364D"/>
<path d="M19.3466 16.4604L13.5545 21.7682V27.4967C13.5545 27.6451 13.6074 27.7873 13.7017 27.8922C13.796 27.9971 13.9238 28.056 14.0571 28.056L17.5776 28.0459C17.7105 28.0451 17.8377 27.9859 17.9314 27.8811C18.0251 27.7763 18.0777 27.6344 18.0777 27.4866V24.1412C18.0777 23.9928 18.1307 23.8506 18.225 23.7457C18.3192 23.6408 18.4471 23.5819 18.5804 23.5819H20.591C20.7243 23.5819 20.8522 23.6408 20.9464 23.7457C21.0407 23.8506 21.0937 23.9928 21.0937 24.1412V27.4841C21.0935 27.5577 21.1063 27.6306 21.1315 27.6987C21.1566 27.7668 21.1936 27.8286 21.2403 27.8807C21.287 27.9329 21.3425 27.9742 21.4036 28.0024C21.4647 28.0306 21.5302 28.0452 21.5963 28.0452L25.1155 28.056C25.2488 28.056 25.3767 27.9971 25.471 27.8922C25.5652 27.7873 25.6182 27.6451 25.6182 27.4967V21.7643L19.8273 16.4604C19.7592 16.3994 19.6744 16.3661 19.587 16.3661C19.4995 16.3661 19.4147 16.3994 19.3466 16.4604ZM28.4959 20.068L25.8695 17.6593V12.8179C25.8695 12.7066 25.8298 12.6 25.7591 12.5213C25.6884 12.4426 25.5925 12.3984 25.4925 12.3984H23.7332C23.6332 12.3984 23.5374 12.4426 23.4667 12.5213C23.396 12.6 23.3562 12.7066 23.3562 12.8179V15.3559L20.5436 12.7812C20.2737 12.5341 19.935 12.3989 19.5854 12.3989C19.2358 12.3989 18.8971 12.5341 18.6272 12.7812L10.6749 20.068C10.6367 20.1031 10.6051 20.1462 10.582 20.1949C10.5588 20.2436 10.5444 20.2969 10.5398 20.3518C10.5351 20.4066 10.5402 20.462 10.5548 20.5146C10.5693 20.5673 10.5931 20.6163 10.6246 20.6587L11.4257 21.7423C11.4572 21.7849 11.496 21.8202 11.5397 21.8461C11.5835 21.872 11.6314 21.8881 11.6807 21.8934C11.7301 21.8987 11.7799 21.8931 11.8273 21.8769C11.8747 21.8608 11.9188 21.8344 11.957 21.7993L19.3466 15.0273C19.4147 14.9663 19.4995 14.933 19.587 14.933C19.6744 14.933 19.7592 14.9663 19.8273 15.0273L27.2173 21.7993C27.2554 21.8344 27.2994 21.8608 27.3468 21.877C27.3941 21.8932 27.4438 21.8989 27.4931 21.8937C27.5424 21.8885 27.5903 21.8725 27.6341 21.8467C27.6779 21.8209 27.7166 21.7858 27.7482 21.7433L28.5493 20.6598C28.5808 20.6171 28.6045 20.5679 28.6189 20.515C28.6333 20.4621 28.6381 20.4065 28.6332 20.3515C28.6282 20.2965 28.6135 20.2432 28.59 20.1945C28.5664 20.1459 28.5344 20.1029 28.4959 20.068Z" fill="#63364D"/>
<path fill-rule="evenodd" clip-rule="evenodd" d="M26.901 13.6591V15.4452C26.9478 15.2896 26.9825 15.1287 27.004 14.9636C27.0237 14.8254 27.0352 14.6822 27.0352 14.5375C27.0352 14.231 26.9882 13.9364 26.901 13.6591ZM20.0461 27.207V24.5861H19.1656V27.207H20.0461ZM12.5614 25.5525C11.8507 25.5287 11.1635 25.4507 10.5522 25.3315V25.9731C10.5522 27.207 9.54865 27.207 7.39346 27.207H5.61667L5.59199 23.2404C4.64273 22.5528 3.83824 21.6759 3.21471 20.6263H2.32632C0.40146 20.6263 0.68114 14.0456 0.68114 14.0456L3.2361 14.0044C3.76256 13.0831 4.45353 12.2704 5.28764 11.5942L3.97149 7.46484C8.28186 7.46484 9.21961 8.9126 9.32161 9.62661C10.4963 9.29264 11.7367 9.11331 12.992 9.11167C13.1927 9.10015 13.3951 9.09521 13.5991 9.09521C16.2214 9.09521 18.6283 10.0161 20.5231 11.5623C20.2357 11.4446 19.9254 11.3811 19.6055 11.3811C18.981 11.3811 18.3934 11.6232 17.9406 12.0374L10.0455 19.2659L10.0441 19.2672C9.90268 19.3971 9.79186 19.5509 9.71304 19.7163C9.63426 19.8816 9.58746 20.0582 9.57229 20.2364C9.55712 20.4146 9.57349 20.5951 9.62158 20.7689C9.66952 20.9421 9.74915 21.1091 9.86039 21.259L9.86158 21.2606L10.655 22.3329C10.7666 22.4838 10.9094 22.6161 11.0793 22.7167C11.2497 22.8175 11.442 22.8833 11.6453 22.9051C11.8488 22.9269 12.0529 22.9035 12.2443 22.8384C12.3579 22.7997 12.4641 22.7473 12.5614 22.6838V25.5525ZM7.6896 14.8681C7.6896 14.187 7.13682 13.6343 6.45571 13.6343C5.77461 13.6343 5.22183 14.187 5.22183 14.8681C5.22183 15.5492 5.77461 16.102 6.45571 16.102C7.13682 16.102 7.6896 15.5492 7.6896 14.8681ZM10.1014 12.4399C10.1919 12.4399 10.2791 12.4251 10.3548 12.4004L10.2709 12.4168C11.1971 12.1898 12.1645 12.0697 13.1598 12.0697H13.2289H13.3062C14.3016 12.0697 15.2706 12.1898 16.1129 12.3987H16.3646C16.6097 12.3592 16.8187 12.2046 16.9338 11.9924C16.9536 11.9315 16.9651 11.8657 16.9651 11.7966C16.9651 11.484 16.7414 11.2241 16.5341 11.1846C15.5058 10.9345 14.4332 10.8029 13.3276 10.8029C13.2945 10.8029 13.2609 10.8034 13.2303 10.8038C13.2046 10.8042 13.181 10.8046 13.1615 10.8046C13.0989 10.8029 13.0381 10.8029 12.9756 10.8029C11.87 10.8029 10.7957 10.9345 9.85629 11.1665C9.56181 11.2241 9.33806 11.484 9.33806 11.7966C9.33806 11.8657 9.34793 11.9315 9.36932 11.994C9.50587 12.2589 9.78226 12.4399 10.1014 12.4399Z" fill="#63364D"/>
</svg>
