<svg version="1.2" xmlns="http://www.w3.org/2000/svg" viewBox="0 0 28 30" width="28" height="30"><style>.a{fill:#fff}</style><path class="a" d="m14 5.7h-1.7v-0.3h0.5v-1.8h-0.5l1-1h0.3v2.8h0.4z"/><path fill-rule="evenodd" class="a" d="m16.9 4.4c0 2.1-1.6 3.8-3.7 3.8-2.1 0-3.8-1.7-3.8-3.8 0-2.1 1.7-3.7 3.8-3.7 2.1 0 3.7 1.6 3.7 3.7zm-6.2 0c0 1.4 1.1 2.5 2.5 2.5 1.4 0 2.5-1.1 2.5-2.5 0-1.4-1.1-2.5-2.5-2.5-1.4 0-2.5 1.1-2.5 2.5z"/><path fill-rule="evenodd" class="a" d="m26.7 12.7q0.4 0.4 0.5 0.9 0.2 0.4 0.2 0.9 0 0.2-0.1 0.4c0 0.6-0.3 1.2-0.7 1.6q-0.4-0.5-1-0.9 0-0.1 0-0.3c0-0.3-0.2-0.6-0.5-0.7q-0.2-0.1-0.3-0.1c-0.2 0-0.4 0.1-0.4 0.2q-0.1 0.1-0.1 0.1c-1.1-0.5-2.3-0.8-3.6-0.8-4.6 0-8.4 3.7-8.4 8.3 0 1.2 0.3 2.3 0.7 3.4-0.8 0-1.6-0.1-2.3-0.3v0.7c0 1.2-1 1.2-3.2 1.2h-1.8v-4q-1.5-1-2.5-2.6h-0.9c-1.9 0-1.6-6.7-1.6-6.7h2.6q0.8-1.5 2-2.5l-1.3-4.2c4.4 0 5.3 1.5 5.4 2.2q1.8-0.5 3.8-0.5 0.3 0 0.6 0c4 0 7.6 2.2 9.5 5.4q0.1-0.2 0.2-0.4c0.3-0.5 0.8-0.8 1.4-0.8q0.3 0 0.6 0.2 0.5 0.2 0.8 0.6 0.2 0.2 0.3 0.5 0-0.2 0-0.4 0-0.2 0-0.3-0.1-0.4-0.2-0.8-0.1-0.4-0.3-0.7 0.4 0.1 0.6 0.4zm-18.9 2.1c0-0.7-0.6-1.2-1.3-1.2-0.7 0-1.2 0.5-1.2 1.2 0 0.7 0.5 1.3 1.2 1.3 0.7 0 1.3-0.6 1.3-1.3zm2.4-2.4q0.2 0 0.3-0.1h-0.1q1.4-0.3 2.9-0.3h0.2c1 0 2 0.1 2.8 0.3h0.3c0.2 0 0.4-0.2 0.5-0.4q0.1-0.1 0.1-0.2c0-0.3-0.2-0.6-0.5-0.6q-1.5-0.4-3.2-0.4-0.1 0-0.1 0 0 0-0.1 0-0.1 0-0.2 0c-1.1 0-2.2 0.1-3.1 0.4-0.3 0-0.5 0.3-0.5 0.6q0 0.1 0 0.2c0.1 0.3 0.4 0.5 0.7 0.5z"/><path fill-rule="evenodd" class="a" d="m20.7 29c-3.7 0-6.7-3-6.7-6.7 0-3.7 3-6.6 6.7-6.6 3.7 0 6.6 2.9 6.6 6.6 0 3.7-2.9 6.7-6.6 6.7zm3.3-3.1c0-0.3-0.2-0.4-0.4-0.4 0-1.5-0.9-2.8-2.1-3.2 1.2-0.4 2.1-1.6 2.1-3.1 0.2 0 0.4-0.2 0.4-0.4v-0.2c0-0.3-0.2-0.4-0.4-0.4h-5.8c-0.3 0-0.5 0.1-0.5 0.4v0.2c0 0.2 0.2 0.4 0.5 0.4 0 1.5 0.8 2.7 2 3.1-1.2 0.4-2 1.7-2 3.2-0.3 0-0.5 0.1-0.5 0.4v0.2c0 0.2 0.2 0.4 0.5 0.4h5.8c0.2 0 0.4-0.2 0.4-0.4zm-3.3-4.3c-0.7 0-1.4-0.5-1.6-1.3h3.2c-0.3 0.8-0.9 1.3-1.6 1.3zm1.8 3.9h-3.6q0-0.5 0.2-1h3.2q0.2 0.5 0.2 1z"/></svg>