<svg width="86" height="80" viewBox="0 0 86 80" fill="none" xmlns="http://www.w3.org/2000/svg">
<path d="M39.576 80C61.4325 80 79.1519 62.2678 79.1519 40.3175C79.1519 18.3671 61.4325 0.634918 39.576 0.634918C17.7194 0.634918 0 18.3671 0 40.3175C0 62.2678 17.7194 80 39.576 80Z" fill="#2D1E4A" fill-opacity="0.5"/>
<path d="M55.8557 32.8703V48.0657C55.8557 49.387 55.0834 50.7084 53.98 51.369L42.2848 58.0858C41.6228 58.5263 40.7401 58.7465 39.9678 58.7465V39.8073L55.304 30.9984C55.7454 31.5489 55.8557 32.2096 55.8557 32.8703Z" fill="#AA83DC"/>
<path d="M39.968 39.8073V58.7465C39.1957 58.7465 38.4233 58.5263 37.651 58.0858L25.9557 51.369C24.7421 50.7083 24.0801 49.4971 24.0801 48.0656V32.8702C24.0801 32.2096 24.3007 31.5489 24.6317 30.9983L39.968 39.8073Z" fill="#5A4682"/>
<path d="M55.4137 30.9982L40.0775 39.8072L24.6309 30.8881C24.9619 30.3375 25.4032 29.787 26.0652 29.4566L38.0915 22.5196C39.1948 21.8589 40.6291 21.8589 41.8428 22.4095L54.0897 29.6769C54.0897 29.6769 54.0897 29.6769 54.2001 29.6769C54.6414 30.0072 55.0827 30.4477 55.4137 30.9982Z" fill="#AA83DC"/>
<path d="M55.8557 11.4958V26.6912C55.8557 28.0125 55.0834 29.3339 53.98 29.9945L42.2848 36.7114C41.6228 37.1518 40.7401 37.372 39.9678 37.372V18.4328L55.304 9.62387C55.7454 10.1744 55.8557 10.8351 55.8557 11.4958Z" fill="#3B2762"/>
<path d="M39.968 18.4328V37.3721C39.1957 37.3721 38.4233 37.1518 37.651 36.7114L25.9557 29.9946C24.7421 29.3339 24.0801 28.1227 24.0801 26.6912V11.4958C24.0801 10.8351 24.3007 10.1745 24.6317 9.6239L39.968 18.4328Z" fill="#5A4682"/>
<path d="M55.4137 9.62373L40.0775 18.4327L24.6309 9.51362C24.9619 8.96306 25.4032 8.4125 26.0652 8.08217L38.0915 1.14513C39.1948 0.484454 40.6291 0.484454 41.8428 1.03501L54.0897 8.30239C54.0897 8.30239 54.0897 8.30239 54.2001 8.30239C54.6414 8.63273 55.0827 9.07318 55.4137 9.62373Z" fill="#AA83DC"/>
<path d="M38.4104 42.8894V58.0848C38.4104 59.4062 37.6381 60.7275 36.5347 61.3882L24.8395 68.105C24.1775 68.5454 23.2948 68.7657 22.5225 68.7657V49.8264L37.8587 41.0175C38.3001 41.568 38.4104 42.2287 38.4104 42.8894Z" fill="#3B2762"/>
<path d="M22.5227 49.8264V68.7657C21.7504 68.7657 20.978 68.5454 20.2057 68.105L8.51042 61.3882C7.29676 60.7275 6.63477 59.5163 6.63477 58.0848V42.8894C6.63477 42.2287 6.85543 41.568 7.18643 41.0175L22.5227 49.8264Z" fill="#5A4682"/>
<path d="M37.9684 41.0173L22.6321 49.8263L7.18555 40.9072C7.51655 40.3567 7.95788 39.8061 8.61987 39.4758L20.6461 32.5387C21.7495 31.8781 23.1838 31.8781 24.3975 32.4286L36.6444 39.696C36.6444 39.696 36.6444 39.696 36.7547 39.696C37.1961 40.0263 37.6374 40.4668 37.9684 41.0173Z" fill="#AA83DC"/>
<path d="M73.301 43.5575V58.7529C73.301 60.0742 72.5287 61.3956 71.4254 62.0563L59.7301 68.7731C59.0681 69.2135 58.1854 69.4337 57.4131 69.4337V50.4945L72.7493 41.6856C73.1907 42.2361 73.301 42.8968 73.301 43.5575Z" fill="#3B2762"/>
<path d="M57.4133 50.4945V69.4337C56.641 69.4337 55.8687 69.2135 55.0963 68.773L43.401 62.0562C42.1874 61.3956 41.5254 60.1843 41.5254 58.7529V43.5574C41.5254 42.8968 41.7461 42.2361 42.0771 41.6855L57.4133 50.4945Z" fill="#5A4682"/>
<path d="M72.859 41.6852L57.5228 50.4942L42.0762 41.5751C42.4072 41.0246 42.8485 40.474 43.5105 40.1437L55.5368 33.2066C56.6401 32.5459 58.0744 32.5459 59.2881 33.0965L71.535 40.3639C71.535 40.3639 71.535 40.3639 71.6454 40.3639C72.0867 40.6942 72.528 41.1347 72.859 41.6852Z" fill="#AA83DC"/>
<path d="M38.4104 21.5152V36.7106C38.4104 38.0319 37.6381 39.3533 36.5347 40.0139L24.8395 46.7307C24.1775 47.1712 23.2948 47.3914 22.5225 47.3914V28.4522L37.8587 19.6432C38.3001 20.1938 38.4104 20.8545 38.4104 21.5152Z" fill="#3B2762"/>
<path d="M22.5227 28.4522V47.3914C21.7504 47.3914 20.978 47.1712 20.2057 46.7307L8.51042 40.0139C7.29676 39.3532 6.63477 38.142 6.63477 36.7105V21.5151C6.63477 20.8544 6.85543 20.1938 7.18643 19.6432L22.5227 28.4522Z" fill="#5A4682"/>
<path d="M37.9684 19.6429L22.6321 28.4518L7.18555 19.5328C7.51655 18.9822 7.95788 18.4317 8.61987 18.1013L20.6461 11.1643C21.7495 10.5036 23.1838 10.5036 24.3975 11.0542L36.6444 18.3216C36.6444 18.3216 36.6444 18.3216 36.7547 18.3216C37.1961 18.6519 37.6374 19.0923 37.9684 19.6429Z" fill="#AA83DC"/>
<path d="M85.3938 10.8609V26.0563C85.3938 27.3776 84.6215 28.699 83.5181 29.3596L71.8228 36.0764C71.1609 36.5169 70.2782 36.7371 69.5059 36.7371V17.7979L84.8421 8.98895C85.2835 9.53951 85.3938 10.2002 85.3938 10.8609Z" fill="#BF16BA"/>
<path d="M69.5061 17.7979V36.7371C68.7338 36.7371 67.9614 36.5169 67.1891 36.0764L55.4938 29.3596C54.2802 28.699 53.6182 27.4877 53.6182 26.0563V10.8609C53.6182 10.2002 53.8388 9.53951 54.1698 8.98895L69.5061 17.7979Z" fill="#871C84"/>
<path d="M84.9518 8.98882L69.6155 17.7978L54.1689 8.8787C54.4999 8.32814 54.9413 7.77758 55.6033 7.44725L67.6295 0.510207C68.7329 -0.150464 70.1672 -0.150464 71.3809 0.400095L83.6278 7.66747C83.6278 7.66747 83.6278 7.66747 83.7381 7.66747C84.1795 7.99781 84.6208 8.43826 84.9518 8.98882Z" fill="url(#paint0_linear_2708_6950)"/>
<path d="M55.8557 53.5766V68.772C55.8557 70.0934 55.0834 71.4147 53.98 72.0754L42.2848 78.7922C41.6228 79.2327 40.7401 79.4529 39.9678 79.4529V60.5137L55.304 51.7047C55.7454 52.2553 55.8557 52.9159 55.8557 53.5766Z" fill="#3B2762"/>
<path d="M39.968 60.5137V79.4529C39.1957 79.4529 38.4233 79.2327 37.651 78.7922L25.9557 72.0754C24.7421 71.4147 24.0801 70.2035 24.0801 68.772V53.5766C24.0801 52.9159 24.3007 52.2553 24.6317 51.7047L39.968 60.5137Z" fill="#5A4682"/>
<path d="M55.4137 51.7046L40.0775 60.5135L24.6309 51.5945C24.9619 51.0439 25.4032 50.4933 26.0652 50.163L38.0915 43.226C39.1948 42.5653 40.6291 42.5653 41.8428 43.1159L54.0897 50.3832C54.0897 50.3832 54.0897 50.3832 54.2001 50.3832C54.6414 50.7136 55.0827 51.154 55.4137 51.7046Z" fill="#AA83DC"/>
<path d="M55.8557 32.2021V47.3976C55.8557 48.7189 55.0834 50.0402 53.98 50.7009L42.2848 57.4177C41.6228 57.8582 40.7401 58.0784 39.9678 58.0784V39.1392L55.304 30.3302C55.7454 30.8808 55.8557 31.5415 55.8557 32.2021Z" fill="#3B2762"/>
<path d="M39.968 39.1392V58.0785C39.1957 58.0785 38.4233 57.8582 37.651 57.4178L25.9557 50.701C24.7421 50.0403 24.0801 48.8291 24.0801 47.3976V32.2022C24.0801 31.5415 24.3007 30.8809 24.6317 30.3303L39.968 39.1392Z" fill="#5A4682"/>
<path d="M55.4137 30.3301L40.0775 39.1391L24.6309 30.22C24.9619 29.6695 25.4032 29.1189 26.0652 28.7886L38.0915 21.8515C39.1948 21.1908 40.6291 21.1908 41.8428 21.7414L54.0897 29.0088C54.0897 29.0088 54.0897 29.0088 54.2001 29.0088C54.6414 29.3391 55.0827 29.7796 55.4137 30.3301Z" fill="#AA83DC"/>
<defs>
<linearGradient id="paint0_linear_2708_6950" x1="84.9518" y1="0" x2="51.8386" y2="7.47579" gradientUnits="userSpaceOnUse">
<stop stop-color="#6E00B1"/>
<stop offset="0.45" stop-color="#DC45A0"/>
<stop offset="1" stop-color="#6E00B1"/>
</linearGradient>
</defs>
</svg>
