<svg width="40" height="40" viewBox="0 0 40 40" fill="none" xmlns="http://www.w3.org/2000/svg">
<path d="M24.9997 3.33203C18.583 3.33203 13.333 8.58203 13.333 14.9987C13.333 21.4154 18.583 26.6654 24.9997 26.6654C31.4163 26.6654 36.6663 21.4154 36.6663 14.9987C36.6663 8.58203 31.4163 3.33203 24.9997 3.33203ZM31.1247 19.082L29.083 21.1237L24.9997 17.0404L20.9163 21.1237L18.8747 19.082L22.958 14.9987L18.8747 10.9154L20.9163 8.8737L24.9997 12.957L29.083 8.8737L31.1247 10.9154L27.0413 14.9987L31.1247 19.082Z" fill="#BA2882"/>
<path fill-rule="evenodd" clip-rule="evenodd" d="M10.1729 12.7109C10.0592 12.9119 9.99967 13.1193 9.99967 13.3312C9.99967 13.4514 10.0188 13.5701 10.0562 13.687C10.0846 13.3585 10.1236 13.033 10.1729 12.7109ZM10.4135 18.5115C6.31586 19.0319 3.33301 20.6192 3.33301 22.4978C3.33301 24.7999 7.81217 26.6645 13.333 26.6645C14.0613 26.6645 14.7715 26.632 15.4557 26.5704C12.989 24.5338 11.1845 21.7237 10.4135 18.5115ZM17.478 27.9785C16.1491 28.2126 14.7394 28.3311 13.333 28.3311C9.42155 28.3311 5.48405 27.4145 3.33301 25.6436V28.3311C3.33301 30.1697 7.81217 31.6645 13.333 31.6645C17.3118 31.6645 20.7495 30.8881 22.3595 29.7662C20.6085 29.4553 18.9626 28.8406 17.478 27.9785ZM3.33301 33.3311V31.1072C5.48405 32.6228 9.41634 33.3311 13.333 33.3311C17.2497 33.3311 21.182 32.6228 23.333 31.1072V33.3311C23.333 35.1697 18.8538 36.6645 13.333 36.6645C7.81217 36.6645 3.33301 35.1697 3.33301 33.3311Z" fill="#BA2882"/>
</svg>
