<svg width="188" height="144" viewBox="0 0 188 144" fill="none" xmlns="http://www.w3.org/2000/svg">
<path d="M80.4536 125C116.05 125 144.907 97.0178 144.907 62.5C144.907 27.9822 116.05 0 80.4536 0C44.8569 0 16 27.9822 16 62.5C16 97.0178 44.8569 125 80.4536 125Z" fill="#110F2A"/>
<g filter="url(#filter0_d_4735_28149)">
<path d="M139.582 25.2044V99.2718C139.582 101.951 137.307 104.158 134.543 104.158H27.0353C24.2719 104.158 21.9961 101.951 21.9961 99.2718V25.2044C21.9961 22.5247 24.2719 20.3179 27.0353 20.3179H134.543C137.307 20.3179 139.582 22.5247 139.582 25.2044Z" fill="#3C467D"/>
</g>
<rect x="28.1641" y="60" width="106" height="21" rx="4" fill="#535E9B"/>
<path d="M139.582 25.2044V28.751H21.9961V25.2044C21.9961 22.5247 24.2719 20.3179 27.0353 20.3179H134.543C137.307 20.3179 139.582 22.5247 139.582 25.2044Z" fill="black"/>
<path d="M27.2787 26.0714C28.1315 26.0714 28.8229 25.4009 28.8229 24.5739C28.8229 23.7469 28.1315 23.0764 27.2787 23.0764C26.4258 23.0764 25.7344 23.7469 25.7344 24.5739C25.7344 25.4009 26.4258 26.0714 27.2787 26.0714Z" fill="#C6CDDF"/>
<path opacity="0.6" d="M32.0746 26.0714C32.9274 26.0714 33.6188 25.4009 33.6188 24.5739C33.6188 23.7469 32.9274 23.0764 32.0746 23.0764C31.2217 23.0764 30.5303 23.7469 30.5303 24.5739C30.5303 25.4009 31.2217 26.0714 32.0746 26.0714Z" fill="#C6CDDF"/>
<path opacity="0.4" d="M36.9515 26.0714C37.8044 26.0714 38.4958 25.4009 38.4958 24.5739C38.4958 23.7469 37.8044 23.0764 36.9515 23.0764C36.0986 23.0764 35.4072 23.7469 35.4072 24.5739C35.4072 25.4009 36.0986 26.0714 36.9515 26.0714Z" fill="#C6CDDF"/>
<path d="M52.0487 38.6666H34.9469C33.878 38.6666 32.9873 37.59 32.9873 36.7286C32.9873 35.652 33.878 34.7906 34.9469 34.7906H52.0487C53.1176 34.7906 54.0083 35.8673 54.0083 36.7286C54.0083 37.8053 53.1176 38.6666 52.0487 38.6666Z" fill="#809ACB"/>
<path d="M47.4237 67.7985H34.9006C33.857 67.7985 32.9873 66.7218 32.9873 65.8605C32.9873 64.7838 33.857 63.9225 34.9006 63.9225H47.4237C48.4673 63.9225 49.337 64.9991 49.337 65.8605C49.1631 66.7218 48.2934 67.7985 47.4237 67.7985Z" fill="#82FFA5"/>
<path d="M127.905 67.7985H103.9C102.803 67.7985 101.889 66.7218 101.889 65.8605C101.889 64.7838 102.803 63.9225 103.9 63.9225H127.905C129.002 63.9225 129.917 64.9991 129.917 65.8605C129.734 66.7218 128.82 67.7985 127.905 67.7985Z" fill="#82FFA5"/>
<g filter="url(#filter1_d_4735_28149)">
<path d="M134.081 68.1014L113.316 101.199C110.809 105.195 113.681 110.388 118.399 110.388L159.928 110.388C164.645 110.388 167.517 105.195 165.01 101.199L144.246 68.1014C141.894 64.3529 136.432 64.3529 134.081 68.1014Z" fill="#809ACB"/>
</g>
<path d="M139.292 78.7761C137.835 78.7761 136.678 80 136.759 81.4543L137.389 92.7143C137.446 93.7237 138.281 94.5132 139.292 94.5132C140.303 94.5132 141.138 93.7237 141.194 92.7143L141.824 81.4543C141.906 80 140.748 78.7761 139.292 78.7761ZM139.283 102.023C140.645 102.023 141.708 100.923 141.708 99.5428C141.708 98.1628 140.645 97.0798 139.283 97.0798C137.938 97.0798 136.876 98.1628 136.876 99.5428C136.876 100.923 137.938 102.023 139.283 102.023Z" fill="black"/>
<path d="M94.0188 67.7985H57.2089C56.1004 67.7985 55.1768 66.7218 55.1768 65.8605C55.1768 64.7838 56.1004 63.9225 57.2089 63.9225H94.0188C95.1273 63.9225 96.051 64.9991 96.051 65.8605C95.8662 66.7218 94.9425 67.7985 94.0188 67.7985Z" fill="#82FFA5"/>
<path d="M64.8025 76.5194H42.046C40.9268 76.5194 39.9941 75.4427 39.9941 74.5814C39.9941 73.5048 40.9268 72.6434 42.046 72.6434H64.8025C65.9217 72.6434 66.8543 73.7201 66.8543 74.5814C66.6678 75.6581 65.7352 76.5194 64.8025 76.5194Z" fill="#82FFA5"/>
<path d="M85.8992 76.5194H73.5032C72.4249 76.5194 71.5264 75.4427 71.5264 74.5814C71.5264 73.5048 72.4249 72.6434 73.5032 72.6434H85.8992C86.9775 72.6434 87.8761 73.7201 87.8761 74.5814C87.6963 75.6581 86.7978 76.5194 85.8992 76.5194Z" fill="#82FFA5"/>
<path d="M61.3019 88.2093H35.0364C33.9187 88.2093 32.9873 87.1327 32.9873 86.2714C32.9873 85.1947 33.9187 84.3334 35.0364 84.3334H61.3019C62.4196 84.3334 63.351 85.41 63.351 86.2714C63.351 87.348 62.6059 88.2093 61.3019 88.2093Z" fill="#809ACB"/>
<path d="M80.0643 88.2093H69.9947C68.9189 88.2093 68.0225 87.1327 68.0225 86.2714C68.0225 85.1947 68.9189 84.3334 69.9947 84.3334H80.0643C81.14 84.3334 82.0365 85.41 82.0365 86.2714C82.0365 87.348 81.3193 88.2093 80.0643 88.2093Z" fill="#809ACB"/>
<path d="M46.1326 96.9303H35.0239C33.913 96.9303 32.9873 95.8536 32.9873 94.9923C32.9873 93.9157 33.913 93.0543 35.0239 93.0543H46.1326C47.2434 93.0543 48.1692 94.131 48.1692 94.9923C48.1692 96.069 47.4286 96.9303 46.1326 96.9303Z" fill="#809ACB"/>
<path d="M55.6759 96.9303H53.507C52.506 96.9303 51.6719 95.8536 51.6719 94.9923C51.6719 93.9157 52.506 93.0543 53.507 93.0543H55.6759C56.6769 93.0543 57.511 94.131 57.511 94.9923C57.511 96.069 56.6769 96.9303 55.6759 96.9303Z" fill="#809ACB"/>
<path d="M39.3989 57.0775H34.7505C33.7888 57.0775 32.9873 56.0008 32.9873 55.1395C32.9873 54.0629 33.7888 53.2015 34.7505 53.2015H39.3989C40.3607 53.2015 41.1621 54.2782 41.1621 55.1395C41.1621 56.2162 40.3607 57.0775 39.3989 57.0775Z" fill="#809ACB"/>
<path d="M80.0194 57.0775H51.3557C50.2551 57.0775 49.3379 56.0008 49.3379 55.1395C49.3379 54.0629 50.2551 53.2015 51.3557 53.2015H80.0194C81.1201 53.2015 82.0373 54.2782 82.0373 55.1395C82.0373 56.2162 81.1201 57.0775 80.0194 57.0775Z" fill="#809ACB"/>
<path d="M61.3019 47.3876H35.0364C33.9187 47.3876 32.9873 46.3109 32.9873 45.4496C32.9873 44.3729 33.9187 43.5116 35.0364 43.5116H61.3019C62.4196 43.5116 63.351 44.5883 63.351 45.4496C63.351 46.5262 62.6059 47.3876 61.3019 47.3876Z" fill="#809ACB"/>
<path d="M96.3371 47.3876H70.0715C68.9539 47.3876 68.0225 46.3109 68.0225 45.4496C68.0225 44.3729 68.9539 43.5116 70.0715 43.5116H96.3371C97.4548 43.5116 98.3862 44.5883 98.3862 45.4496C98.3862 46.5262 97.641 47.3876 96.3371 47.3876Z" fill="#809ACB"/>
<path d="M115.099 47.3876H105.03C103.954 47.3876 103.058 46.3109 103.058 45.4496C103.058 44.3729 103.954 43.5116 105.03 43.5116H115.099C116.175 43.5116 117.072 44.5883 117.072 45.4496C117.072 46.5262 116.354 47.3876 115.099 47.3876Z" fill="#809ACB"/>
<defs>
<filter id="filter0_d_4735_28149" x="-0.00390625" y="9.31787" width="161.586" height="127.84" filterUnits="userSpaceOnUse" color-interpolation-filters="sRGB">
<feFlood flood-opacity="0" result="BackgroundImageFix"/>
<feColorMatrix in="SourceAlpha" type="matrix" values="0 0 0 0 0 0 0 0 0 0 0 0 0 0 0 0 0 0 127 0" result="hardAlpha"/>
<feOffset dy="11"/>
<feGaussianBlur stdDeviation="11"/>
<feColorMatrix type="matrix" values="0 0 0 0 0 0 0 0 0 0 0 0 0 0 0 0 0 0 0.27 0"/>
<feBlend mode="normal" in2="BackgroundImageFix" result="effect1_dropShadow_4735_28149"/>
<feBlend mode="normal" in="SourceGraphic" in2="effect1_dropShadow_4735_28149" result="shape"/>
</filter>
<filter id="filter1_d_4735_28149" x="90.3887" y="54.29" width="97.5488" height="89.098" filterUnits="userSpaceOnUse" color-interpolation-filters="sRGB">
<feFlood flood-opacity="0" result="BackgroundImageFix"/>
<feColorMatrix in="SourceAlpha" type="matrix" values="0 0 0 0 0 0 0 0 0 0 0 0 0 0 0 0 0 0 127 0" result="hardAlpha"/>
<feOffset dy="11"/>
<feGaussianBlur stdDeviation="11"/>
<feColorMatrix type="matrix" values="0 0 0 0 0 0 0 0 0 0 0 0 0 0 0 0 0 0 0.27 0"/>
<feBlend mode="normal" in2="BackgroundImageFix" result="effect1_dropShadow_4735_28149"/>
<feBlend mode="normal" in="SourceGraphic" in2="effect1_dropShadow_4735_28149" result="shape"/>
</filter>
</defs>
</svg>
