<svg width="157" height="159" viewBox="0 0 157 159" fill="none" xmlns="http://www.w3.org/2000/svg">
<path d="M73.4551 131C107.948 131 135.91 103.018 135.91 68.5C135.91 33.9822 107.948 6 73.4551 6C38.9621 6 11 33.9822 11 68.5C11 103.018 38.9621 131 73.4551 131Z" fill="#2D1E4A" fill-opacity="0.55"/>
<g filter="url(#filter0_d_2460_14313)">
<path d="M120.114 125.562H27.8101C24.9748 125.562 22.6121 123.276 22.6121 120.36V16.64C22.6121 13.8027 24.896 11.517 27.8101 11.517H120.114C122.95 11.517 125.312 13.8027 125.312 16.7188V120.36C125.312 123.197 123.028 125.562 120.114 125.562Z" fill="#2D1E4A"/>
</g>
<path d="M114.365 42.8064H32.929C31.9839 42.8064 31.1963 42.0183 31.1963 41.0725V25.6249C31.1963 24.6791 31.9839 23.8909 32.929 23.8909H114.365C115.31 23.8909 116.097 24.6791 116.097 25.6249V40.9937C116.176 42.0183 115.389 42.8064 114.365 42.8064Z" fill="#05091C"/>
<path d="M39.7026 35.7131C41.0075 35.7131 42.0653 34.6545 42.0653 33.3487C42.0653 32.0428 41.0075 30.9843 39.7026 30.9843C38.3977 30.9843 37.3398 32.0428 37.3398 33.3487C37.3398 34.6545 38.3977 35.7131 39.7026 35.7131Z" fill="#5A4682"/>
<path d="M97.8257 34.925H50.0196C49.6258 34.925 49.3108 34.6097 49.3108 34.2157V32.4029C49.3108 32.0089 49.6258 31.6936 50.0196 31.6936H97.8257C98.2195 31.6936 98.5345 32.0089 98.5345 32.4029V34.2157C98.5345 34.6097 98.2195 34.925 97.8257 34.925Z" fill="#5A4682"/>
<path d="M114.365 67.0813H32.929C31.9839 67.0813 31.1963 66.2932 31.1963 65.3474V49.9786C31.1963 49.0328 31.9839 48.2446 32.929 48.2446H114.365C115.31 48.2446 116.097 49.0328 116.097 49.9786V65.3474C116.176 66.2932 115.389 67.0813 114.365 67.0813Z" fill="#05091C"/>
<path d="M39.7026 59.988C41.0075 59.988 42.0653 58.9294 42.0653 57.6236C42.0653 56.3178 41.0075 55.2592 39.7026 55.2592C38.3977 55.2592 37.3398 56.3178 37.3398 57.6236C37.3398 58.9294 38.3977 59.988 39.7026 59.988Z" fill="#5A4682"/>
<path d="M97.8257 59.2786H50.0196C49.6258 59.2786 49.3108 58.9634 49.3108 58.5693V56.7566C49.3108 56.3625 49.6258 56.0472 50.0196 56.0472H97.8257C98.2195 56.0472 98.5345 56.3625 98.5345 56.7566V58.5693C98.5345 58.9634 98.2195 59.2786 97.8257 59.2786Z" fill="#5A4682"/>
<path d="M114.365 115.71H32.929C31.9839 115.71 31.1963 114.922 31.1963 113.976V98.6072C31.1963 97.6614 31.9839 96.8733 32.929 96.8733H114.365C115.31 96.8733 116.097 97.6614 116.097 98.6072V113.976C116.176 114.922 115.389 115.71 114.365 115.71Z" fill="#05091C"/>
<path d="M39.7026 108.617C41.0075 108.617 42.0653 107.558 42.0653 106.252C42.0653 104.946 41.0075 103.888 39.7026 103.888C38.3977 103.888 37.3398 104.946 37.3398 106.252C37.3398 107.558 38.3977 108.617 39.7026 108.617Z" fill="#5A4682"/>
<path d="M97.8257 107.829H50.0196C49.6258 107.829 49.3108 107.513 49.3108 107.119V105.306C49.3108 104.912 49.6258 104.597 50.0196 104.597H97.8257C98.2195 104.597 98.5345 104.912 98.5345 105.306V107.119C98.5345 107.513 98.2195 107.829 97.8257 107.829Z" fill="#5A4682"/>
<g filter="url(#filter1_d_2460_14313)">
<path d="M132.558 91.3562H51.1221C50.177 91.3562 49.3894 90.5681 49.3894 89.6223V74.2535C49.3894 73.3077 50.177 72.5195 51.1221 72.5195H132.558C133.503 72.5195 134.29 73.3077 134.29 74.2535V89.6223C134.29 90.5681 133.503 91.3562 132.558 91.3562Z" fill="url(#paint0_linear_2460_14313)"/>
</g>
<path d="M57.8957 84.3417C59.2006 84.3417 60.2584 83.2831 60.2584 81.9773C60.2584 80.6714 59.2006 79.6129 57.8957 79.6129C56.5908 79.6129 55.533 80.6714 55.533 81.9773C55.533 83.2831 56.5908 84.3417 57.8957 84.3417Z" fill="#EAEBF1"/>
<path d="M116.019 83.5537H68.2127C67.8189 83.5537 67.5039 83.2384 67.5039 82.8443V81.0316C67.5039 80.6375 67.8189 80.3223 68.2127 80.3223H116.019C116.413 80.3223 116.728 80.6375 116.728 81.0316V82.8443C116.728 83.2384 116.413 83.5537 116.019 83.5537Z" fill="#EAEBF1"/>
<defs>
<filter id="filter0_d_2460_14313" x="0.612061" y="0.517029" width="146.7" height="158.045" filterUnits="userSpaceOnUse" color-interpolation-filters="sRGB">
<feFlood flood-opacity="0" result="BackgroundImageFix"/>
<feColorMatrix in="SourceAlpha" type="matrix" values="0 0 0 0 0 0 0 0 0 0 0 0 0 0 0 0 0 0 127 0" result="hardAlpha"/>
<feOffset dy="11"/>
<feGaussianBlur stdDeviation="11"/>
<feColorMatrix type="matrix" values="0 0 0 0 0 0 0 0 0 0 0 0 0 0 0 0 0 0 0.27 0"/>
<feBlend mode="normal" in2="BackgroundImageFix" result="effect1_dropShadow_2460_14313"/>
<feBlend mode="normal" in="SourceGraphic" in2="effect1_dropShadow_2460_14313" result="shape"/>
</filter>
<filter id="filter1_d_2460_14313" x="27.3894" y="61.5195" width="128.901" height="62.8367" filterUnits="userSpaceOnUse" color-interpolation-filters="sRGB">
<feFlood flood-opacity="0" result="BackgroundImageFix"/>
<feColorMatrix in="SourceAlpha" type="matrix" values="0 0 0 0 0 0 0 0 0 0 0 0 0 0 0 0 0 0 127 0" result="hardAlpha"/>
<feOffset dy="11"/>
<feGaussianBlur stdDeviation="11"/>
<feColorMatrix type="matrix" values="0 0 0 0 0 0 0 0 0 0 0 0 0 0 0 0 0 0 0.27 0"/>
<feBlend mode="normal" in2="BackgroundImageFix" result="effect1_dropShadow_2460_14313"/>
<feBlend mode="normal" in="SourceGraphic" in2="effect1_dropShadow_2460_14313" result="shape"/>
</filter>
<linearGradient id="paint0_linear_2460_14313" x1="134.29" y1="72.5195" x2="62.9875" y2="114.469" gradientUnits="userSpaceOnUse">
<stop stop-color="#6E00B1"/>
<stop offset="0.45" stop-color="#DC45A0"/>
<stop offset="1" stop-color="#6E00B1"/>
</linearGradient>
</defs>
</svg>
