<svg width="26" height="11" viewBox="0 0 26 11" fill="none" xmlns="http://www.w3.org/2000/svg">
<path d="M12.12 6.60562C12.12 7.02687 11.7786 7.36831 11.3573 7.36831C10.9362 7.36831 10.5947 7.02687 10.5947 6.60562C10.5947 6.18446 10.9362 5.84302 11.3573 5.84302C11.7786 5.84302 12.12 6.18446 12.12 6.60562Z" fill="#BA2882"/>
<path d="M15.2792 6.60562C15.2792 7.02687 14.9378 7.36831 14.5166 7.36831C14.0953 7.36831 13.7539 7.02687 13.7539 6.60562C13.7539 6.18446 14.0953 5.84302 14.5166 5.84302C14.9378 5.84302 15.2792 6.18446 15.2792 6.60562Z" fill="#BA2882"/>
<path d="M25.4397 8.81171H24.4592V8.48491C24.4592 8.02192 24.0778 7.61336 23.5876 7.61336C23.3697 7.61336 23.2063 7.69511 23.0429 7.80398C22.9067 7.69502 22.7161 7.61336 22.4981 7.61336C22.2802 7.61336 22.1168 7.69511 21.9534 7.80398C21.8172 7.69502 21.6266 7.61336 21.4086 7.61336C21.1907 7.61336 21.0273 7.69511 20.8639 7.80398C20.7277 7.69502 20.5371 7.61336 20.3191 7.61336C19.8561 7.61336 19.4476 7.99471 19.4476 8.48491V8.81171H17.541C17.5682 8.72996 17.5682 8.67553 17.5954 8.59378C18.3308 8.43037 18.6849 7.91284 18.6849 7.01396C18.6849 6.33303 18.5215 5.84271 18.1946 5.54312C18.0584 5.40693 17.8405 5.29796 17.5136 5.24353C17.5409 4.75321 17.5136 4.15404 17.4592 3.44589C17.432 3.06454 17.3775 2.76495 17.2958 2.46536C17.4048 1.92062 17.4592 1.32144 17.3776 0.83112C17.3503 0.667714 17.1596 0.558745 16.969 0.613184C16.86 0.640403 16.7784 0.694933 16.6694 0.722152C16.6966 0.558746 16.6966 0.422563 16.6694 0.259161C16.6422 0.0685358 16.4515 -0.0404273 16.2608 0.0140021C15.4709 0.313591 14.327 0.585965 12.8562 0.585965C10.432 0.585965 8.44371 0.694932 8.25305 3.44589C8.19861 4.18126 8.19861 4.75333 8.19861 5.24354C7.8718 5.27076 7.65386 5.40694 7.51767 5.54313C7.19087 5.84271 7.02735 6.33303 7.02735 7.01397C7.02735 7.91285 7.38148 8.43027 8.11685 8.59378C8.11685 8.67553 8.14407 8.72997 8.17129 8.81172H6.29188V8.48491C6.29188 8.02192 5.91054 7.61336 5.42033 7.61336C5.2024 7.61336 5.03899 7.69511 4.87559 7.80399C4.7394 7.69502 4.54878 7.61336 4.33084 7.61336C4.1129 7.61336 3.94949 7.69511 3.78609 7.80399C3.6499 7.69502 3.45929 7.61336 3.24134 7.61336C3.02341 7.61336 2.86 7.69511 2.69659 7.80399C2.56041 7.69502 2.36979 7.61336 2.15185 7.61336C1.68886 7.61336 1.28029 7.99471 1.28029 8.48491V8.81172H0.435776C0.190616 8.81172 0 9.00234 0 9.24749C0 9.49264 0.190626 9.68327 0.435776 9.68327H1.68867C1.85208 9.81946 2.04281 9.90121 2.26064 9.90121C2.39682 9.90121 2.53301 9.87399 2.6692 9.79224C2.8326 9.98286 3.07776 10.119 3.35013 10.119C3.48632 10.119 3.62251 10.0918 3.75869 10.0101C3.9221 10.228 4.16725 10.3642 4.43963 10.3642C4.712 10.3642 4.95716 10.228 5.12056 10.0101C5.22953 10.0645 5.36572 10.119 5.52912 10.119C5.85593 10.119 6.1283 9.92842 6.26449 9.68326H19.6381C19.7742 9.95564 20.0738 10.119 20.4007 10.119C20.5369 10.119 20.6731 10.0918 20.8093 10.0101C20.9727 10.228 21.2179 10.3642 21.4902 10.3642C21.7626 10.3642 22.0078 10.228 22.1712 10.0101C22.2801 10.0645 22.4163 10.119 22.5797 10.119C22.8521 10.119 23.0973 9.98285 23.2607 9.79224C23.3696 9.84668 23.5058 9.90121 23.6692 9.90121C23.8872 9.90121 24.0778 9.81946 24.2412 9.68327H25.4941C25.7393 9.68327 25.9299 9.49264 25.9299 9.24749C25.8755 9.00233 25.6849 8.81172 25.4397 8.81172L25.4397 8.81171ZM23.6147 8.26696C23.7237 8.26696 23.8327 8.37593 23.8327 8.4849V9.02965C23.8327 9.13862 23.7237 9.24759 23.6147 9.24759C23.5058 9.24759 23.3968 9.13862 23.3968 9.02965V8.4849C23.3969 8.37584 23.5059 8.26696 23.6147 8.26696ZM9.0155 8.26696C8.98828 7.99459 8.77034 7.80398 8.52518 7.77665C8.19838 7.74943 7.98044 7.72221 7.98044 7.01395C7.98044 6.44199 8.11662 6.25126 8.19837 6.19683C8.22559 6.16961 8.28012 6.11508 8.44353 6.11508C8.47075 6.38746 8.49797 6.63262 8.52528 6.7688C8.60703 7.06839 9.3424 7.04118 9.39683 6.79602C9.45127 6.57809 9.26064 5.13456 9.94158 3.85438C10.6497 4.15397 11.712 4.3447 12.9377 4.3447C14.1634 4.3447 15.2256 4.15408 15.9338 3.85438C16.6147 5.1345 16.4513 6.57812 16.4786 6.79602C16.533 7.04118 17.2685 7.0684 17.3501 6.7688C17.3773 6.63262 17.4045 6.38746 17.4319 6.11508C17.5953 6.11508 17.6498 6.16952 17.677 6.19683C17.7588 6.27858 17.8949 6.46921 17.8949 7.01395C17.8949 7.7221 17.677 7.74932 17.3502 7.77665C17.0778 7.80387 16.8872 7.99458 16.8599 8.26696C16.8327 8.45759 16.8054 8.6211 16.7509 8.81171H9.12444C9.09722 8.64822 9.0427 8.45758 9.01548 8.26696H9.0155ZM2.04273 8.48481C2.04273 8.37584 2.1517 8.26688 2.26066 8.26688C2.36963 8.26688 2.4786 8.37584 2.4786 8.48481V9.02956C2.4786 9.13853 2.36963 9.2475 2.26066 9.2475C2.1517 9.2475 2.04273 9.16575 2.04273 9.02956V8.48481ZM3.35017 9.49264C3.2412 9.49264 3.13223 9.38367 3.13223 9.27471V8.51201C3.13223 8.40305 3.2412 8.29408 3.35017 8.29408C3.45914 8.29408 3.5681 8.40305 3.5681 8.51201L3.56802 9.27471C3.56802 9.38367 3.45905 9.49264 3.35017 9.49264H3.35017ZM4.63028 9.49264C4.63028 9.60161 4.52131 9.71058 4.41235 9.71058C4.30338 9.71058 4.19441 9.60161 4.19441 9.49264L4.1945 9.27471V8.51201C4.1945 8.40305 4.30347 8.29408 4.41243 8.29408C4.5214 8.29408 4.63037 8.40305 4.63037 8.51201L4.63028 9.27471V9.49264ZM5.71978 9.27471C5.71978 9.38367 5.61081 9.49264 5.50184 9.49264C5.39287 9.49264 5.28391 9.38367 5.28391 9.27471V8.51201C5.28391 8.40305 5.39287 8.29408 5.50184 8.29408C5.61081 8.29408 5.71978 8.40305 5.71978 8.51201V9.27471ZM20.3735 9.49264C20.2645 9.49264 20.1556 9.38367 20.1556 9.27471V8.51201C20.1556 8.40305 20.2645 8.29408 20.3735 8.29408C20.4825 8.29408 20.5914 8.40305 20.5914 8.51201L20.5913 9.27471C20.5913 9.38367 20.5097 9.49264 20.3735 9.49264ZM21.6808 9.49264C21.6808 9.60161 21.5719 9.71058 21.4629 9.71058C21.3539 9.71058 21.245 9.60161 21.245 9.49264L21.2451 9.27471V8.51201C21.2451 8.40305 21.354 8.29408 21.463 8.29408C21.572 8.29408 21.6809 8.40305 21.6809 8.51201L21.6808 9.27471V9.49264ZM22.7431 9.27471C22.7431 9.38367 22.6342 9.49264 22.5252 9.49264C22.4162 9.49264 22.3073 9.38367 22.3073 9.27471V8.51201C22.3073 8.40305 22.4162 8.29408 22.5252 8.29408C22.6342 8.29408 22.7431 8.40305 22.7431 8.51201V9.27471Z" fill="#BA2882"/>
</svg>
