<svg width="159" height="137" viewBox="0 0 159 137" fill="none" xmlns="http://www.w3.org/2000/svg">
<path d="M79.4551 125C113.948 125 141.91 97.0178 141.91 62.5C141.91 27.9822 113.948 0 79.4551 0C44.9621 0 17 27.9822 17 62.5C17 97.0178 44.9621 125 79.4551 125Z" fill="#2D1E4A" fill-opacity="0.55"/>
<g filter="url(#filter0_d_5813_7011)">
<path d="M136.425 25.647V98.7454C136.425 101.425 134.219 103.632 131.542 103.632H27.3674C24.6896 103.632 22.4844 101.425 22.4844 98.7454V25.647C22.4844 22.9673 24.6896 20.7605 27.3674 20.7605H131.542C134.219 20.7605 136.425 22.9673 136.425 25.647Z" fill="#5F3F87"/>
</g>
<path d="M22.9316 28.9255H50.7094V104.148H26.9316C24.7225 104.148 22.9316 102.357 22.9316 100.148V28.9255Z" fill="#130A2C"/>
<rect x="58.1484" y="35.8525" width="72.6744" height="31.9767" rx="2" fill="#150B2E"/>
<g opacity="0.3">
<path d="M97.3387 48.6388C98.1869 48.6388 98.8746 47.9457 98.8746 47.0907C98.8746 46.2356 98.1869 45.5425 97.3387 45.5425C96.4904 45.5425 95.8027 46.2356 95.8027 47.0907C95.8027 47.9457 96.4904 48.6388 97.3387 48.6388Z" fill="#AA83DC"/>
<path d="M97.4287 58.6907H85.7108C84.9548 58.6907 84.5138 57.8064 84.9548 57.2379L90.8138 49.0265C91.1918 48.5211 91.9478 48.5211 92.3258 49.0265L98.1847 57.2379C98.6257 57.8696 98.1847 58.6907 97.4287 58.6907Z" fill="#AA83DC"/>
<path opacity="0.7" d="M101.508 58.5232H95.7412C94.8652 58.5232 94.4272 57.6051 94.8652 56.9695L97.7122 53.0851C98.1502 52.5201 98.9532 52.5201 99.3913 53.0851L102.238 56.9695C102.895 57.6051 102.384 58.5232 101.508 58.5232Z" fill="#AA83DC"/>
</g>
<rect x="58.1484" y="73.6433" width="22.2868" height="23.2558" rx="2" fill="#150B2E"/>
<rect x="84.3105" y="73.6433" width="20.3488" height="23.2558" rx="2" fill="#150B2E"/>
<rect x="108.537" y="73.6433" width="22.2868" height="23.2558" rx="2" fill="#150B2E"/>
<path d="M29.0781 38.7598H44.582" stroke="#5E4186" stroke-width="2" stroke-miterlimit="10"/>
<path d="M29.0781 46.5117H41.675" stroke="#5E4186" stroke-width="2" stroke-miterlimit="10"/>
<path d="M29.0781 54.2637H45.551" stroke="#5E4186" stroke-width="2" stroke-miterlimit="10"/>
<path d="M29.0781 62.0154H35.8611" stroke="#5E4186" stroke-width="2" stroke-miterlimit="10"/>
<path d="M29.0781 69.7673H42.644" stroke="#5E4186" stroke-width="2" stroke-miterlimit="10"/>
<path d="M29.0781 77.5193H37.7991" stroke="#5E4186" stroke-width="2" stroke-miterlimit="10"/>
<path d="M136.425 25.647V29.1937H22.4844V25.647C22.4844 22.9673 24.6896 20.7605 27.3674 20.7605H131.542C134.219 20.7605 136.425 22.9673 136.425 25.647Z" fill="#3A1D58"/>
<path d="M27.6038 26.514C28.4303 26.514 29.1002 25.8436 29.1002 25.0165C29.1002 24.1895 28.4303 23.519 27.6038 23.519C26.7774 23.519 26.1074 24.1895 26.1074 25.0165C26.1074 25.8436 26.7774 26.514 27.6038 26.514Z" fill="#C6CDDF"/>
<path opacity="0.6" d="M32.2503 26.514C33.0767 26.514 33.7467 25.8436 33.7467 25.0165C33.7467 24.1895 33.0767 23.519 32.2503 23.519C31.4239 23.519 30.7539 24.1895 30.7539 25.0165C30.7539 25.8436 31.4239 26.514 32.2503 26.514Z" fill="#C6CDDF"/>
<path opacity="0.4" d="M36.9749 26.514C37.8014 26.514 38.4713 25.8436 38.4713 25.0165C38.4713 24.1895 37.8014 23.519 36.9749 23.519C36.1485 23.519 35.4785 24.1895 35.4785 25.0165C35.4785 25.8436 36.1485 26.514 36.9749 26.514Z" fill="#C6CDDF"/>
<path d="M85.2812 61.0466L98.6331 71.2736C104.89 76.0664 111.698 80.0948 118.91 83.2732L136.638 91.0854" stroke="#AA83DC" stroke-width="4" stroke-linecap="round" stroke-linejoin="round" stroke-dasharray="1.5 7"/>
<path d="M75.1074 60.562L57.6194 73.0054C52.4939 76.6524 47.0324 79.8026 41.3091 82.4132L22.2973 91.0853" stroke="#AA83DC" stroke-width="4" stroke-linecap="round" stroke-linejoin="round" stroke-dasharray="1.5 7"/>
<path d="M80.4355 54.748L84.287 54.2949C103.401 52.0462 121.691 45.2214 137.606 34.3992V34.3992" stroke="#AA83DC" stroke-width="4" stroke-linecap="round" stroke-linejoin="round" stroke-dasharray="1.5 7"/>
<path d="M79.4668 54.748L75.6154 54.2949C56.5013 52.0462 38.2112 45.2214 22.2963 34.3992V34.3992" stroke="#AA83DC" stroke-width="4" stroke-linecap="round" stroke-linejoin="round" stroke-dasharray="1.5 7"/>
<path d="M86.4856 83.0566H73.2298C71.7694 83.0566 70.5898 81.857 70.5898 80.3719V61.6935C70.5898 56.4955 74.7463 52.3257 79.8015 52.3257C84.8567 52.3257 89.0132 56.5526 89.0132 61.6935V80.429C89.0694 81.857 87.8898 83.0566 86.4856 83.0566ZM75.8697 77.7444H83.8457V61.6935C83.8457 59.4658 82.0483 57.6379 79.8577 57.6379C77.6671 57.6379 75.8697 59.4658 75.8697 61.6935V77.7444Z" fill="url(#paint0_linear_5813_7011)"/>
<path d="M92.1025 88.1783H67.5009C65.83 88.1783 64.4473 86.7879 64.4473 85.1079V68.7128C64.4473 67.0327 65.83 65.6423 67.5009 65.6423H92.1025C93.7733 65.6423 95.1561 67.0327 95.1561 68.7128V85.1079C95.1561 86.7879 93.7733 88.1783 92.1025 88.1783Z" fill="url(#paint1_linear_5813_7011)"/>
<path d="M82.8722 74.7613C82.8722 75.9269 82.1898 76.9259 81.2231 77.4254V80.6446C81.2231 81.4216 80.5975 82.0322 79.8013 82.0322C79.0052 82.0322 78.3796 81.4216 78.3796 80.6446V77.4254C77.4129 76.9259 76.7305 75.9269 76.7305 74.7613C76.7305 73.0962 78.0953 71.7642 79.8013 71.7642C81.5074 71.7642 82.8722 73.0962 82.8722 74.7613Z" fill="#EAEBF1"/>
<defs>
<filter id="filter0_d_5813_7011" x="0.484375" y="9.7605" width="157.939" height="126.871" filterUnits="userSpaceOnUse" color-interpolation-filters="sRGB">
<feFlood flood-opacity="0" result="BackgroundImageFix"/>
<feColorMatrix in="SourceAlpha" type="matrix" values="0 0 0 0 0 0 0 0 0 0 0 0 0 0 0 0 0 0 127 0" result="hardAlpha"/>
<feOffset dy="11"/>
<feGaussianBlur stdDeviation="11"/>
<feColorMatrix type="matrix" values="0 0 0 0 0 0 0 0 0 0 0 0 0 0 0 0 0 0 0.27 0"/>
<feBlend mode="normal" in2="BackgroundImageFix" result="effect1_dropShadow_5813_7011"/>
<feBlend mode="normal" in="SourceGraphic" in2="effect1_dropShadow_5813_7011" result="shape"/>
</filter>
<linearGradient id="paint0_linear_5813_7011" x1="89.0151" y1="52.3257" x2="68.3116" y2="53.946" gradientUnits="userSpaceOnUse">
<stop stop-color="#6E00B1"/>
<stop offset="0.45" stop-color="#DC45A0"/>
<stop offset="1" stop-color="#6E00B1"/>
</linearGradient>
<linearGradient id="paint1_linear_5813_7011" x1="95.1561" y1="65.6423" x2="61.5035" y2="71.6281" gradientUnits="userSpaceOnUse">
<stop stop-color="#6E00B1"/>
<stop offset="0.45" stop-color="#DC45A0"/>
<stop offset="1" stop-color="#6E00B1"/>
</linearGradient>
</defs>
</svg>
