<svg width="142" height="128" viewBox="0 0 142 128" fill="none" xmlns="http://www.w3.org/2000/svg">
<path d="M69.2832 125C103.776 125 131.738 97.0178 131.738 62.5C131.738 27.9822 103.776 0 69.2832 0C34.7902 0 6.82812 27.9822 6.82812 62.5C6.82812 97.0178 34.7902 125 69.2832 125Z" fill="#2D1E4A" fill-opacity="0.55"/>
<g filter="url(#filter0_d_7094_43105)">
<path d="M117.737 32.8363V91.6739C117.737 93.4002 116.299 94.8388 114.572 94.8388H25.1649C23.4386 94.9107 22 93.4721 22 91.7458V32.8363C22 31.038 23.4386 29.6714 25.1649 29.6714H114.572C116.37 29.6714 117.737 31.11 117.737 32.8363Z" fill="#2C1D48"/>
</g>
<path d="M117.737 32.8363V37.3678H22V32.8363C22 31.038 23.4386 29.6714 25.1649 29.6714H114.572C116.37 29.6714 117.737 31.11 117.737 32.8363Z" fill="#1D1537"/>
<path d="M56.6692 60.1694C58.139 60.1694 59.3305 58.9779 59.3305 57.508C59.3305 56.0382 58.139 54.8467 56.6692 54.8467C55.1993 54.8467 54.0078 56.0382 54.0078 57.508C54.0078 58.9779 55.1993 60.1694 56.6692 60.1694Z" fill="#FF4FB9"/>
<path d="M83.1399 60.1694C84.6097 60.1694 85.8012 58.9779 85.8012 57.508C85.8012 56.0382 84.6097 54.8467 83.1399 54.8467C81.67 54.8467 80.4785 56.0382 80.4785 57.508C80.4785 58.9779 81.67 60.1694 83.1399 60.1694Z" fill="#FF4FB9"/>
<path d="M74.2193 77.6477H65.8756C64.5809 77.6477 63.502 76.5688 63.502 75.274C63.502 73.9793 64.5809 72.9004 65.8756 72.9004H74.1474C75.4421 72.9004 76.521 73.9793 76.521 75.274C76.593 76.5688 75.514 77.6477 74.2193 77.6477Z" fill="#FF4FB9"/>
<path d="M26.243 34.8502C26.8389 34.8502 27.3219 34.3672 27.3219 33.7713C27.3219 33.1754 26.8389 32.6924 26.243 32.6924C25.6471 32.6924 25.1641 33.1754 25.1641 33.7713C25.1641 34.3672 25.6471 34.8502 26.243 34.8502Z" fill="#594580"/>
<path d="M29.6239 34.8502C30.2197 34.8502 30.7028 34.3672 30.7028 33.7713C30.7028 33.1754 30.2197 32.6924 29.6239 32.6924C29.028 32.6924 28.5449 33.1754 28.5449 33.7713C28.5449 34.3672 29.028 34.8502 29.6239 34.8502Z" fill="#594580"/>
<path d="M33.077 34.8502C33.6729 34.8502 34.1559 34.3672 34.1559 33.7713C34.1559 33.1754 33.6729 32.6924 33.077 32.6924C32.4811 32.6924 31.998 33.1754 31.998 33.7713C31.998 34.3672 32.4811 34.8502 33.077 34.8502Z" fill="#594580"/>
<path d="M113.853 22.0471C113.134 22.0471 112.559 21.4717 112.559 20.7524V6.29472C112.559 5.57543 113.134 5 113.853 5C114.573 5 115.148 5.57543 115.148 6.29472V20.7524C115.148 21.4717 114.573 22.0471 113.853 22.0471Z" fill="#FF4FB9"/>
<path d="M124.355 33.1243C124.355 32.405 124.931 31.8296 125.65 31.8296H140.108C140.827 31.8296 141.403 32.405 141.403 33.1243C141.403 33.8436 140.827 34.419 140.108 34.419H125.65C124.931 34.419 124.355 33.8436 124.355 33.1243Z" fill="#FF4FB9"/>
<path d="M123.204 23.7732C122.7 23.2697 122.7 22.4065 123.204 21.903L133.49 11.6891C133.993 11.1856 134.856 11.1856 135.36 11.6891C135.863 12.1926 135.863 13.0558 135.36 13.5593L125.146 23.7732C124.57 24.2767 123.707 24.2767 123.204 23.7732Z" fill="#FF4FB9"/>
<defs>
<filter id="filter0_d_7094_43105" x="0" y="18.6714" width="139.736" height="109.17" filterUnits="userSpaceOnUse" color-interpolation-filters="sRGB">
<feFlood flood-opacity="0" result="BackgroundImageFix"/>
<feColorMatrix in="SourceAlpha" type="matrix" values="0 0 0 0 0 0 0 0 0 0 0 0 0 0 0 0 0 0 127 0" result="hardAlpha"/>
<feOffset dy="11"/>
<feGaussianBlur stdDeviation="11"/>
<feColorMatrix type="matrix" values="0 0 0 0 0 0 0 0 0 0 0 0 0 0 0 0 0 0 0.27 0"/>
<feBlend mode="normal" in2="BackgroundImageFix" result="effect1_dropShadow_7094_43105"/>
<feBlend mode="normal" in="SourceGraphic" in2="effect1_dropShadow_7094_43105" result="shape"/>
</filter>
</defs>
</svg>
