<svg width="28" height="28" viewBox="0 0 28 28" fill="none" xmlns="http://www.w3.org/2000/svg">
<path d="M10.5003 23.332V17.1487C9.80033 16.7987 9.33366 15.982 9.33366 15.1654V10.4987C9.33366 9.68203 9.80033 8.98203 10.5003 8.51536C10.5003 8.3987 10.5003 8.28203 10.5003 8.16536C10.5003 6.88203 9.45033 5.83203 8.16699 5.83203C6.88366 5.83203 5.83366 6.88203 5.83366 8.16536C5.83366 9.4487 6.88366 10.4987 8.16699 10.4987H5.83366C5.25033 10.4987 4.66699 11.082 4.66699 11.6654V16.332C4.66699 16.9154 5.25033 17.4987 5.83366 17.4987V23.332H10.5003Z" fill="black"/>
<path d="M22.1667 10.4987H19.8333C21.1167 10.4987 22.1667 9.4487 22.1667 8.16536C22.1667 6.88203 21.1167 5.83203 19.8333 5.83203C18.55 5.83203 17.5 6.88203 17.5 8.16536C17.5 8.28203 17.5 8.3987 17.5 8.51536C18.2 8.98203 18.6667 9.68203 18.6667 10.4987V15.1654C18.6667 15.982 18.2 16.7987 17.5 17.1487V23.332H22.1667V17.4987C22.75 17.4987 23.3333 16.9154 23.3333 16.332V11.6654C23.3333 11.082 22.75 10.4987 22.1667 10.4987Z" fill="black"/>
<path d="M16.3337 7.0013C16.3337 8.29047 15.2895 9.33464 14.0003 9.33464C12.7112 9.33464 11.667 8.29047 11.667 7.0013C11.667 5.71214 12.7112 4.66797 14.0003 4.66797C15.2895 4.66797 16.3337 5.71214 16.3337 7.0013Z" fill="black"/>
<path d="M16.3333 9.33203H11.6667C11.0833 9.33203 10.5 9.91536 10.5 10.4987V15.1654C10.5 15.7487 11.0833 16.332 11.6667 16.332V23.332H16.3333V16.332C16.9167 16.332 17.5 15.7487 17.5 15.1654V10.4987C17.5 9.91536 16.9167 9.33203 16.3333 9.33203Z" fill="black"/>
</svg>
