<svg width="57" height="59" viewBox="0 0 57 59" fill="none" xmlns="http://www.w3.org/2000/svg">
<path d="M36.6733 17.7712C39.7779 19.5636 39.7779 24.0447 36.6733 25.8372L6.98539 42.9775C3.88077 44.77 -1.56701e-07 42.5294 0 38.9445L1.49845e-06 4.66387C1.65515e-06 1.07897 3.88077 -1.16159 6.98539 0.630857L36.6733 17.7712Z" fill="#99004F"/>
<path d="M36.8582 30.2116L38.6137 29.1981C39.5283 28.67 40.296 28.0146 40.9166 27.2729L43.4659 28.3436V37.8418C43.4659 43.1779 35.3551 47.8736 33.3274 49.0475L32.7938 49.261L32.2602 49.0475C30.224 47.8673 28.2956 46.5103 26.4972 44.9921V44.8854H26.3905C24.3866 43.1678 22.5534 41.0236 22.1877 38.6816L32.7938 32.5582V44.3518C38.9836 40.4031 39.1971 38.0552 39.1971 37.8418V31.2251L36.8582 30.2116Z" fill="#99004F"/>
<path d="M22.1217 34.2386L36.6733 25.8372C36.7873 25.7714 36.8971 25.7019 37.0028 25.6291L32.7938 23.8613L22.1217 28.3436V34.2386Z" fill="#99004F"/>
<path d="M13.93 38.9681L10.0342 41.2173C9.74277 40.0781 9.53617 38.9142 9.41819 37.7348C9.38827 37.4371 9.42127 37.1364 9.51505 36.8523C9.60883 36.5682 9.7613 36.307 9.96257 36.0856C10.1638 35.8642 10.4094 35.6876 10.6833 35.5672C10.9572 35.4469 11.2534 35.3854 11.5526 35.3869C12.0836 35.3843 12.5965 35.5796 12.9912 35.9348C13.3858 36.29 13.6339 36.7796 13.687 37.3079C13.744 37.8661 13.8251 38.42 13.93 38.9681Z" fill="#99004F"/>
<path d="M11.3321 44.949L15.0811 42.7846C15.7763 44.443 16.7044 46.0042 17.845 47.4185C20.181 50.3149 23.3079 52.4705 26.8457 53.6234C30.3836 54.7763 34.1801 54.8769 37.7741 53.913C41.368 52.949 44.6047 50.9621 47.0908 48.1935H44.6362C44.1089 48.2031 43.595 48.0265 43.1851 47.6946C42.7752 47.3628 42.4954 46.897 42.395 46.3792C42.3486 46.0733 42.3692 45.761 42.4555 45.4638C42.5418 45.1667 42.6916 44.8918 42.8946 44.6584C43.0977 44.4249 43.349 44.2383 43.6313 44.1116C43.9136 43.9849 44.2201 43.9211 44.5295 43.9246H51.9999C52.566 43.9246 53.1089 44.1495 53.5092 44.5498C53.9095 44.9501 54.1344 45.493 54.1344 46.0591V53.4228C54.144 53.9501 53.9674 54.464 53.6355 54.8739C53.3037 55.2838 52.8379 55.5636 52.3201 55.664C52.0142 55.7104 51.7018 55.6898 51.4047 55.6035C51.1076 55.5172 50.8327 55.3674 50.5992 55.1644C50.3658 54.9613 50.1792 54.71 50.0525 54.4277C49.9258 54.1454 49.862 53.8389 49.8655 53.5295V51.5018C46.7766 54.779 42.8103 57.0986 38.4397 58.1841C34.069 59.2697 29.4783 59.0753 25.215 57.6242C20.9518 56.1731 17.1958 53.5266 14.3949 50C13.1592 48.4442 12.1323 46.746 11.3321 44.949Z" fill="#99004F"/>
<path d="M34.3707 11.9607C39.6225 12.3121 44.6215 14.4206 48.5485 17.971C52.8673 21.8758 55.5813 27.2459 56.1635 33.0391C56.1935 33.3368 56.1605 33.6374 56.0667 33.9216C55.9729 34.2057 55.8204 34.4669 55.6192 34.6883C55.4179 34.9097 55.1723 35.0863 54.8984 35.2067C54.6245 35.327 54.3283 35.3884 54.0291 35.3869C53.4981 35.3896 52.9852 35.1943 52.5906 34.8391C52.1959 34.4838 51.9478 33.9943 51.8947 33.466C51.5172 29.7642 50.0727 26.2517 47.7367 23.3554C46.2281 21.4848 44.3896 19.9233 42.3236 18.7412C41.6664 17.0092 40.4298 15.4589 38.6137 14.4103L34.3707 11.9607Z" fill="#99004F"/>
<path d="M27.5267 12.4904C26.146 12.8052 24.7934 13.2463 23.4862 13.81C20.5482 15.077 17.9031 16.9364 15.7162 19.272V17.2443C15.7197 16.9349 15.6559 16.6285 15.5292 16.3462C15.4025 16.0639 15.216 15.8126 14.9825 15.6095C14.749 15.4065 14.4742 15.2567 14.177 15.1704C13.8799 15.0841 13.5675 15.0635 13.2616 15.1099C12.7439 15.2103 12.2781 15.4901 11.9462 15.9C11.6144 16.3099 11.4377 16.8237 11.4474 17.3511V24.7148C11.4474 25.2809 11.6722 25.8238 12.0725 26.2241C12.4728 26.6244 13.0157 26.8493 13.5818 26.8493H21.0523C21.3617 26.8528 21.6681 26.7889 21.9504 26.6623C22.2327 26.5356 22.4841 26.349 22.6871 26.1155C22.8901 25.882 23.04 25.6072 23.1262 25.3101C23.2125 25.0129 23.2331 24.7006 23.1867 24.3947C23.0863 23.8769 22.8066 23.4111 22.3966 23.0793C21.9867 22.7474 21.4729 22.5708 20.9456 22.5804H18.491C20.977 19.8118 24.2137 17.8248 27.8076 16.8609C29.845 16.3145 31.9475 16.1101 34.031 16.2457L27.5267 12.4904Z" fill="#99004F"/>
</svg>
