<svg width="137" height="153" viewBox="0 0 137 153" fill="none" xmlns="http://www.w3.org/2000/svg">
<path d="M71.4051 124.998H78.4506L79.8755 120.717H69.9802L71.4051 124.998Z" fill="#05091C"/>
<path d="M18.5247 124.998H25.6493L27.0742 120.717H17.1789L18.5247 124.998Z" fill="#05091C"/>
<path d="M5.30406 121.43H89.2161C92.1452 121.43 94.52 119.052 94.52 116.118V31.1274C94.52 28.1939 92.1452 25.8154 89.2161 25.8154H5.30406C2.37505 25.8154 0.000175476 28.1939 0.000175476 31.1274V116.118C0.000175476 119.052 2.37505 121.43 5.30406 121.43Z" fill="#B9BFD5"/>
<path d="M10.4496 114.374H83.9915C86.208 114.374 88.1079 112.551 88.1079 110.251V35.7257C88.1079 33.5058 86.2872 31.603 83.9915 31.603H10.4496C8.23309 31.603 6.33319 33.4265 6.33319 35.7257V110.251C6.33319 112.551 8.15392 114.374 10.4496 114.374Z" fill="white"/>
<path d="M15.0212 69.1829H87.9429V76.3183H15.0212V69.1829Z" fill="#C6CDDF" stroke="#8E96AB" stroke-width="2" stroke-miterlimit="10"/>
<path d="M62.5069 92.063L60.8811 91.4911C60.5559 91.3767 60.3209 90.9521 60.4512 90.5757C60.5816 90.1992 60.9257 89.9582 61.2508 90.0726L62.8766 90.6445C63.2018 90.7589 63.4369 91.1835 63.3065 91.5599C63.1358 92.0026 62.8321 92.1773 62.5069 92.063Z" fill="#C6CDDF"/>
<g filter="url(#filter0_d_3894_42481)">
<path d="M101.467 63.3161L90.0568 107.182C89.6421 108.684 88.076 109.455 86.5048 108.923L41.8863 93.8879C40.3152 93.3552 39.3962 91.7497 39.8109 90.2474L55.2244 34.0553C55.6391 32.553 57.2052 31.7816 58.7764 32.3143L91.0415 43.2244L101.467 63.3161Z" fill="#8E97B8"/>
</g>
<path d="M91.9839 42.1492L88.25 54.3902C87.767 56.1019 88.8097 57.9964 90.5277 58.4907L101.559 62.002" fill="#8E97B8"/>
<g filter="url(#filter1_d_3894_42481)">
<path d="M112.548 81.6931L89.4529 118.693C88.6829 119.943 86.7996 120.182 85.3906 119.205L44.2099 92.4031C42.7729 91.4973 42.2624 89.6652 43.0325 88.4152L73.3633 41.3137C74.1334 40.0636 76.0166 39.8248 77.4257 40.8021L107.327 60.2875L112.548 81.6931Z" fill="#D7DDF0"/>
</g>
<path d="M107.109 57.9664L100.516 68.2465C99.5675 69.6996 100.23 71.7874 101.856 72.8551L112.086 79.4737" fill="#8E97B8"/>
<path d="M23.3534 67.1215H28.5781V77.0318H23.3534V67.1215Z" fill="#8E96AB"/>
<path d="M14.0915 32.3166L41.2442 21.772C41.7983 20.662 42.5899 19.6313 43.5399 18.8385H49.2396C50.427 18.9178 51.377 19.9485 51.377 21.3755V123.571C51.377 124.998 50.3478 126.029 49.1604 126.108H43.5399L42.8274 124.047L14.0915 114.216C12.2707 113.581 11.0042 111.678 11.0042 109.538V36.9149C11.1625 34.8536 12.3499 32.9508 14.0915 32.3166Z" fill="#677195"/>
<path d="M42.9855 18.9969L8.54992 32.3164C6.80835 33.0299 5.62091 34.8534 5.62091 36.9148V109.538C5.62091 111.678 6.8875 113.581 8.70824 114.215L43.0647 126.029C44.4896 126.504 45.9146 125.315 45.9146 123.571V21.3754C45.9146 19.6312 44.4105 18.4419 42.9855 18.9969Z" fill="#8E97B8"/>
<path opacity="0.2" d="M14.6456 82.5025C13.854 80.5205 13.4582 78.142 13.4582 75.6842C13.4582 73.3057 13.854 71.0065 14.5665 69.0245L10.1334 61.6512C9.73758 60.9376 9.73758 59.6691 10.1334 58.7177C10.5292 57.7663 11.2417 57.5285 11.7166 58.242L16.3872 65.536C17.5747 63.9504 18.9996 62.8404 20.662 62.5233C22.4827 62.1269 24.2243 62.7612 25.7284 64.1882L33.2488 51.7409C33.2488 51.7409 33.328 51.6616 33.328 51.5823C33.328 51.503 33.4071 51.4237 33.4863 51.4237L33.5654 51.3444C34.0404 50.948 34.9904 51.1066 35.8612 51.8201C36.5736 52.4544 37.0486 53.2472 36.9694 53.8815C36.9694 54.0401 36.8903 54.1986 36.8111 54.2779C36.7319 54.5158 36.5736 54.7536 36.4153 54.9914L28.2616 67.6767C29.2907 69.8966 29.8448 72.5922 29.8448 75.5257C29.8448 78.6177 29.2115 81.3926 28.1032 83.6125L36.3361 96.4563C36.4945 96.6941 36.6528 97.0113 36.7319 97.2491C36.8111 97.4077 36.8111 97.4869 36.8903 97.6455C36.9694 98.2005 36.5736 98.914 35.9403 99.5483C35.0695 100.341 34.0404 100.579 33.4863 100.183C33.4071 100.103 33.328 99.9447 33.2488 99.8654L25.57 87.1802C24.1451 88.4487 22.4036 89.0037 20.662 88.6866C19.0787 88.3694 17.6538 87.3388 16.5455 85.9117L11.7166 93.4435C11.4792 93.7607 11.1625 93.9192 10.925 93.8399C10.6084 93.7607 10.3709 93.4435 10.1334 92.9678C9.73758 92.0165 9.73758 90.7479 10.1334 90.0344L14.6456 82.5025Z" fill="#291443"/>
<path d="M24.9368 78.459C23.0131 78.459 21.4536 75.6193 21.4536 72.1164C21.4536 68.6135 23.0131 65.7738 24.9368 65.7738C26.8605 65.7738 28.4199 68.6135 28.4199 72.1164C28.4199 75.6193 26.8605 78.459 24.9368 78.459Z" fill="#291443"/>
<path d="M9.89568 72.275C9.89568 66.6459 12.1122 61.8097 15.1996 59.9069V59.0348H18.3661C22.72 59.2726 26.2031 65.0603 26.2031 72.1957C26.2031 79.3311 22.72 85.1188 18.3661 85.3566H15.1996V84.4845C12.1122 82.7403 9.89568 77.9833 9.89568 72.275Z" fill="#291443"/>
<path d="M8.39125 79.1726C7.59963 77.1905 7.20382 74.812 7.20382 72.3543C7.20382 69.9758 7.59963 67.6766 8.31209 65.6945L3.879 58.3212C3.48319 57.6077 3.48319 56.3392 3.879 55.3878C4.27481 54.4364 4.98728 54.1985 5.46225 54.9121L10.1328 62.2061C11.3203 60.6204 12.7452 59.5105 14.4076 59.1933C16.2283 58.7969 17.9699 59.4312 19.474 60.8583L26.9944 48.4109C26.9944 48.4109 27.0736 48.3316 27.0736 48.2523C27.0736 48.1731 27.1527 48.0938 27.2319 48.0938L27.3111 48.0145C27.786 47.6181 28.736 47.7766 29.6068 48.4902C30.3192 49.1244 30.7942 49.9173 30.715 50.5515C30.715 50.7101 30.6359 50.8687 30.5567 50.9479C30.4775 51.1858 30.3192 51.4236 30.1609 51.6615L22.0072 64.3467C23.0363 66.5666 23.5904 69.2622 23.5904 72.1957C23.5904 75.2877 22.9571 78.0626 21.8489 80.2825L30.0817 93.1263C30.2401 93.3642 30.3984 93.6813 30.4775 93.9191C30.5567 94.0777 30.5567 94.157 30.6359 94.3156C30.715 94.8705 30.3192 95.5841 29.6859 96.2183C28.8151 97.0112 27.786 97.249 27.2319 96.8526C27.1527 96.7733 27.0736 96.6148 26.9944 96.5355L19.3157 83.8502C17.8907 85.1188 16.1492 85.6737 14.4076 85.3566C12.8243 85.0395 11.3994 84.0088 10.2912 82.5817L5.46225 90.1136C5.22476 90.4307 4.90811 90.5893 4.67063 90.51C4.35398 90.4307 4.11649 90.1136 3.879 89.6379C3.48319 88.6865 3.48319 87.418 3.879 86.7044L8.39125 79.1726Z" fill="url(#paint0_linear_3894_42481)"/>
<path d="M28.1032 50.7102C29.0532 51.503 30.0823 51.6616 30.4781 51.0273C30.5573 50.8687 30.6364 50.7894 30.6364 50.6309C30.7156 49.9966 30.2406 49.2038 29.5281 48.5695C28.6574 47.856 27.7074 47.6974 27.2324 48.0938C27.2324 48.0938 27.1533 48.0938 27.1533 48.1731L27.0741 48.2524L26.995 48.3317C26.7575 48.9659 27.2324 49.9966 28.1032 50.7102Z" fill="#A680D7"/>
<path d="M26.9949 96.5354C26.9949 96.6146 26.9949 96.6146 27.0741 96.6939C27.0741 96.6939 27.0741 96.7732 27.1532 96.7732C27.1532 96.7732 27.1532 96.8525 27.2324 96.8525C27.2324 96.8525 27.2324 96.8525 27.3116 96.9318C27.8657 97.3282 28.8948 97.0903 29.7656 96.2975C30.3989 95.7425 30.7947 94.9497 30.7155 94.3947C30.7155 94.2362 30.6364 94.0776 30.5572 93.9983C30.5572 93.919 30.4781 93.919 30.4781 93.8397C30.3989 93.7605 30.2406 93.6812 30.0823 93.6019C29.5281 93.4433 28.6573 93.6812 27.8657 94.3154C27.0741 95.029 26.7574 95.9011 26.9949 96.5354Z" fill="#A680D7"/>
<path d="M12.1122 72.1164C12.1122 69.8965 12.7455 67.9144 13.7746 66.8838V66.0909H15.3579C17.1786 66.0909 18.6035 68.7866 18.6035 72.1164C18.6035 75.4463 17.1786 78.1419 15.3579 78.1419H13.7746V77.3491C12.8247 76.3184 12.1122 74.3363 12.1122 72.1164Z" fill="#FF4FB9"/>
<path d="M13.5375 78.1419C11.745 78.1419 10.2919 75.4442 10.2919 72.1164C10.2919 68.7886 11.745 66.0909 13.5375 66.0909C15.3301 66.0909 16.7832 68.7886 16.7832 72.1164C16.7832 75.4442 15.3301 78.1419 13.5375 78.1419Z" fill="#2D1E4A"/>
<defs>
<filter id="filter0_d_3894_42481" x="17.7114" y="21.1459" width="105.755" height="120.945" filterUnits="userSpaceOnUse" color-interpolation-filters="sRGB">
<feFlood flood-opacity="0" result="BackgroundImageFix"/>
<feColorMatrix in="SourceAlpha" type="matrix" values="0 0 0 0 0 0 0 0 0 0 0 0 0 0 0 0 0 0 127 0" result="hardAlpha"/>
<feOffset dy="11"/>
<feGaussianBlur stdDeviation="11"/>
<feColorMatrix type="matrix" values="0 0 0 0 0 0 0 0 0 0 0 0 0 0 0 0 0 0 0.27 0"/>
<feBlend mode="normal" in2="BackgroundImageFix" result="effect1_dropShadow_3894_42481"/>
<feBlend mode="normal" in="SourceGraphic" in2="effect1_dropShadow_3894_42481" result="shape"/>
</filter>
<filter id="filter1_d_3894_42481" x="20.6748" y="29.199" width="113.873" height="123.609" filterUnits="userSpaceOnUse" color-interpolation-filters="sRGB">
<feFlood flood-opacity="0" result="BackgroundImageFix"/>
<feColorMatrix in="SourceAlpha" type="matrix" values="0 0 0 0 0 0 0 0 0 0 0 0 0 0 0 0 0 0 127 0" result="hardAlpha"/>
<feOffset dy="11"/>
<feGaussianBlur stdDeviation="11"/>
<feColorMatrix type="matrix" values="0 0 0 0 0 0 0 0 0 0 0 0 0 0 0 0 0 0 0.27 0"/>
<feBlend mode="normal" in2="BackgroundImageFix" result="effect1_dropShadow_3894_42481"/>
<feBlend mode="normal" in="SourceGraphic" in2="effect1_dropShadow_3894_42481" result="shape"/>
</filter>
<linearGradient id="paint0_linear_3894_42481" x1="3.58214" y1="47.8021" x2="34.1084" y2="49.9985" gradientUnits="userSpaceOnUse">
<stop stop-color="#6E00B1"/>
<stop offset="0.45" stop-color="#DC45A0"/>
<stop offset="1" stop-color="#6E00B1"/>
</linearGradient>
</defs>
</svg>
