<svg width="66" height="66" viewBox="0 0 66 66" fill="none" xmlns="http://www.w3.org/2000/svg">
<path d="M33.0005 2.74999C28.8781 2.73361 24.7967 3.56771 21.0114 5.20015C17.226 6.83259 13.818 9.22828 11.0005 12.2375V9.62499C11.005 9.22637 10.9228 8.83153 10.7596 8.46783C10.5963 8.10413 10.356 7.78027 10.0552 7.51869C9.75433 7.2571 9.40023 7.06405 9.01739 6.9529C8.63455 6.84175 8.23212 6.81517 7.83798 6.87499C7.17088 7.00431 6.57076 7.36476 6.14321 7.89291C5.71565 8.42106 5.48806 9.08309 5.50048 9.76249V19.25C5.50048 19.9793 5.79021 20.6788 6.30594 21.1945C6.82166 21.7103 7.52114 22 8.25048 22H17.8755C18.2741 22.0045 18.6689 21.9223 19.0326 21.7591C19.3963 21.5958 19.7202 21.3555 19.9818 21.0547C20.2434 20.7538 20.4364 20.3997 20.5476 20.0169C20.6587 19.6341 20.6853 19.2316 20.6255 18.8375C20.4962 18.1704 20.1357 17.5703 19.6076 17.1427C19.0794 16.7152 18.4174 16.4876 17.738 16.5H14.5755C17.7786 12.9329 21.9487 10.3729 26.5791 9.13098C31.2096 7.88904 36.1011 8.01866 40.6593 9.50408C45.2175 10.9895 49.2461 13.7668 52.2558 17.4985C55.2655 21.2301 57.1266 25.7556 57.613 30.525C57.6814 31.2057 58.001 31.8364 58.5095 32.2941C59.018 32.7517 59.6789 33.0034 60.363 33C60.7485 33.0019 61.1301 32.9228 61.483 32.7677C61.8359 32.6127 62.1523 32.3851 62.4116 32.0999C62.6709 31.8146 62.8674 31.4781 62.9882 31.112C63.109 30.7459 63.1515 30.3586 63.113 29.975C62.3628 22.5111 58.8661 15.5921 53.3017 10.5613C47.7372 5.53038 40.502 2.74649 33.0005 2.74999Z" fill="#4B4B4B"/>
<path d="M57.7474 44H48.1224C47.7238 43.9955 47.3289 44.0777 46.9652 44.241C46.6015 44.4042 46.2777 44.6445 46.0161 44.9454C45.7545 45.2462 45.5614 45.6003 45.4503 45.9831C45.3391 46.366 45.3126 46.7684 45.3724 47.1625C45.5017 47.8296 45.8621 48.4298 46.3903 48.8573C46.9185 49.2849 47.5805 49.5125 48.2599 49.5H51.4224C48.2193 53.0671 44.0492 55.6271 39.4187 56.869C34.7883 58.111 29.8968 57.9814 25.3386 56.496C20.7804 55.0105 16.7517 52.2333 13.7421 48.5016C10.7324 44.7699 8.87129 40.2444 8.38488 35.475C8.31648 34.7943 7.99682 34.1636 7.48832 33.7059C6.97982 33.2483 6.31899 32.9966 5.63488 33C5.2494 32.9981 4.86781 33.0772 4.51488 33.2323C4.16195 33.3874 3.84557 33.6149 3.58626 33.9001C3.32695 34.1854 3.13051 34.522 3.00968 34.888C2.88885 35.2541 2.84633 35.6415 2.88488 36.025C3.46243 41.7985 5.68824 47.284 9.29689 51.8276C12.9056 56.3712 17.7448 59.7811 23.2376 61.6506C28.7304 63.5202 34.6451 63.7706 40.2762 62.372C45.9074 60.9734 51.0176 57.9848 54.9974 53.7625V56.375C54.9929 56.7737 55.0751 57.1685 55.2383 57.5322C55.4015 57.8959 55.6419 58.2198 55.9427 58.4813C56.2435 58.7429 56.5976 58.936 56.9805 59.0471C57.3633 59.1583 57.7658 59.1849 58.1599 59.125C58.827 58.9957 59.4271 58.6353 59.8547 58.1071C60.2822 57.579 60.5098 56.9169 60.4974 56.2375V46.75C60.4974 46.0207 60.2077 45.3212 59.6919 44.8055C59.1762 44.2898 58.4767 44 57.7474 44Z" fill="#4B4B4B"/>
<path d="M24.8875 45.3754C27.2045 47.3314 29.6891 49.0798 32.3125 50.6004L33 50.8754L33.6875 50.6004C36.3 49.0879 46.75 43.0379 46.75 36.1629V23.9254L33 18.1504L19.25 23.9254V36.1629C19.25 39.6004 21.8625 42.7629 24.75 45.2379H24.8875V45.3754ZM33 24.0629L41.25 27.6379V36.1629C41.25 36.4379 40.975 39.4629 33 44.5504V24.0629Z" fill="#4B4B4B"/>
</svg>
