<svg width="40" height="40" viewBox="0 0 40 40" fill="none" xmlns="http://www.w3.org/2000/svg">
<path fill-rule="evenodd" clip-rule="evenodd" d="M12.265 12.2725C14.2945 12.2519 15.9318 10.6326 15.9318 8.63636C15.9318 6.62727 14.2734 5 12.2258 5C10.1782 5 8.51974 6.62727 8.51974 8.63636C8.51974 10.6326 10.157 12.2519 12.1865 12.2725H8.51952C7.59301 12.2725 6.6665 13.1816 6.6665 14.0907V21.3634C6.6665 22.2725 7.59301 23.1816 8.51952 23.1816V34.0907H15.9316V32.5358L15.6301 32.7083L15.6262 32.7105C14.768 33.2041 13.7015 33.0141 13.0578 32.3259L13.0549 32.3228C11.7472 30.9169 10.7452 29.2264 10.1565 27.3554L10.1533 27.3453L10.1503 27.3352C9.88705 26.455 10.2406 25.4639 11.1016 24.9741L11.1054 24.9719L12.2308 24.328C12.1849 23.7668 12.1849 23.2027 12.2308 22.6415L11.1017 21.9954C10.2612 21.5173 9.86704 20.5291 10.1569 19.6128C10.7451 17.7398 11.7456 16.0504 13.0527 14.649C13.7181 13.9277 14.7853 13.7829 15.6184 14.2546L15.622 14.2566L16.7454 14.9009C17.0796 14.6732 17.4266 14.4646 17.7846 14.2762V14.0907C17.7846 13.1816 16.8581 12.2725 15.9316 12.2725H12.265ZM33.2518 26.2522L31.2568 25.11C31.4581 24.0328 31.4581 22.9277 31.2568 21.8505L33.2518 20.7083C33.4812 20.5783 33.5843 20.3089 33.5093 20.0582C32.9895 18.4052 32.1044 16.9101 30.9477 15.6658C30.7697 15.4754 30.4794 15.429 30.2546 15.559L28.2596 16.7012C27.4213 15.9861 26.4566 15.4336 25.4123 15.0714V12.7916C25.4123 12.5316 25.2297 12.3041 24.9721 12.2484C23.2534 11.8676 21.4926 11.8862 19.8582 12.2484C19.6006 12.3041 19.418 12.5316 19.418 12.7916V15.0761C18.3783 15.4429 17.4136 15.9954 16.5707 16.7058L14.5804 15.5636C14.3509 15.4336 14.0652 15.4754 13.8873 15.6704C12.7306 16.9101 11.8455 18.4052 11.3256 20.0629C11.246 20.3136 11.3537 20.5829 11.5832 20.7129L13.5782 21.8551C13.3768 22.9323 13.3768 24.0374 13.5782 25.1146L11.5832 26.2569C11.3537 26.3869 11.2507 26.6562 11.3256 26.9069C11.8455 28.5599 12.7306 30.055 13.8873 31.2994C14.0652 31.4897 14.3556 31.5362 14.5804 31.4062L16.5754 30.2639C17.4136 30.979 18.3783 31.5315 19.4227 31.8937V34.1781C19.4227 34.4381 19.6053 34.6657 19.8629 34.7214C21.5816 35.1021 23.3424 35.0836 24.9768 34.7214C25.2344 34.6657 25.417 34.4381 25.417 34.1781V31.8937C26.4566 31.5269 27.4213 30.9743 28.2643 30.2639L30.2593 31.4062C30.4887 31.5362 30.7744 31.4944 30.9524 31.2994C32.1091 30.0596 32.9942 28.5645 33.514 26.9069C33.5843 26.6515 33.4812 26.3822 33.2518 26.2522ZM22.4151 27.1948C20.3499 27.1948 18.6687 25.5279 18.6687 23.4802C18.6687 21.4326 20.3499 19.7657 22.4151 19.7657C24.4804 19.7657 26.1616 21.4326 26.1616 23.4802C26.1616 25.5279 24.4804 27.1948 22.4151 27.1948Z" fill="#180710"/>
</svg>
