<svg width="28" height="28" viewBox="0 0 28 28" fill="none" xmlns="http://www.w3.org/2000/svg">
<path d="M16.3337 7.0013C16.3337 8.29047 15.2895 9.33464 14.0003 9.33464C12.7112 9.33464 11.667 8.29047 11.667 7.0013C11.667 5.71214 12.7112 4.66797 14.0003 4.66797C15.2895 4.66797 16.3337 5.71214 16.3337 7.0013Z" fill="#63364D"/>
<path d="M16.3333 9.33203H11.6667C11.0833 9.33203 10.5 9.91536 10.5 10.4987V15.1654C10.5 15.7487 11.0833 16.332 11.6667 16.332V23.332H16.3333V16.332C16.9167 16.332 17.5 15.7487 17.5 15.1654V10.4987C17.5 9.91536 16.9167 9.33203 16.3333 9.33203Z" fill="#63364D"/>
</svg>
