<svg width="34" height="34" viewBox="0 0 34 34" fill="none" xmlns="http://www.w3.org/2000/svg">
<path d="M21.9997 0.332031C15.583 0.332031 10.333 5.58203 10.333 11.9987C10.333 18.4154 15.583 23.6654 21.9997 23.6654C28.4163 23.6654 33.6663 18.4154 33.6663 11.9987C33.6663 5.58203 28.4163 0.332031 21.9997 0.332031ZM28.1247 16.082L26.083 18.1237L21.9997 14.0404L17.9163 18.1237L15.8747 16.082L19.958 11.9987L15.8747 7.91536L17.9163 5.8737L21.9997 9.95703L26.083 5.8737L28.1247 7.91536L24.0413 11.9987L28.1247 16.082Z" fill="#BA2882"/>
<path fill-rule="evenodd" clip-rule="evenodd" d="M7.17289 9.71094C7.05917 9.91193 6.99967 10.1193 6.99967 10.3312C6.99967 10.4514 7.01882 10.5701 7.05615 10.687C7.08459 10.3585 7.12362 10.033 7.17289 9.71094ZM7.41348 15.5115C3.31586 16.0319 0.333008 17.6192 0.333008 19.4978C0.333008 21.7999 4.81217 23.6645 10.333 23.6645C11.0613 23.6645 11.7715 23.632 12.4557 23.5704C9.98899 21.5338 8.18448 18.7237 7.41348 15.5115ZM14.478 24.9785C13.1491 25.2126 11.7394 25.3311 10.333 25.3311C6.42155 25.3311 2.48405 24.4145 0.333008 22.6436V25.3311C0.333008 27.1697 4.81217 28.6645 10.333 28.6645C14.3118 28.6645 17.7495 27.8881 19.3595 26.7662C17.6085 26.4553 15.9626 25.8406 14.478 24.9785ZM0.333008 30.3311V28.1072C2.48405 29.6228 6.41634 30.3311 10.333 30.3311C14.2497 30.3311 18.182 29.6228 20.333 28.1072V30.3311C20.333 32.1697 15.8538 33.6645 10.333 33.6645C4.81217 33.6645 0.333008 32.1697 0.333008 30.3311Z" fill="#BA2882"/>
</svg>
