<svg width="154" height="21" viewBox="0 0 154 21" fill="none" xmlns="http://www.w3.org/2000/svg">
<path d="M21 7.125L18.3585 2.875L13.2075 5.625V0H7.92453V5.625L2.64151 2.875L0 7.125L5.15094 10L0 12.875L2.64151 17.125L7.92453 14.375V20H13.2075V14.375L18.3585 17.125L21 12.875L15.717 10L21 7.125Z" fill="white"/>
<path d="M47 7.125L44.4843 2.875L39.5786 5.625V0H34.5472V5.625L29.5157 2.875L27 7.125L31.9057 10L27 12.875L29.5157 17.125L34.5472 14.375V20H39.5786V14.375L44.4843 17.125L47 12.875L41.9686 10L47 7.125Z" fill="white"/>
<path d="M74 7.125L71.4843 2.875L66.5786 5.625V0H61.5472V5.625L56.5157 2.875L54 7.125L58.9057 10L54 12.875L56.5157 17.125L61.5472 14.375V20H66.5786V14.375L71.4843 17.125L74 12.875L68.9686 10L74 7.125Z" fill="white"/>
<path d="M101 7.125L98.4843 2.875L93.5786 5.625V0H88.5472V5.625L83.5157 2.875L81 7.125L85.9057 10L81 12.875L83.5157 17.125L88.5472 14.375V20H93.5786V14.375L98.4843 17.125L101 12.875L95.9686 10L101 7.125Z" fill="white"/>
<path d="M154 7.125L151.484 2.875L146.579 5.625V0H141.547V5.625L136.516 2.875L134 7.125L138.906 10L134 12.875L136.516 17.125L141.547 14.375V20H146.579V14.375L151.484 17.125L154 12.875L148.969 10L154 7.125Z" fill="white"/>
<path d="M128 8.125L125.358 3.875L120.208 6.625V1H114.925V6.625L109.642 3.875L107 8.125L112.151 11L107 13.875L109.642 18.125L114.925 15.375V21H120.208V15.375L125.358 18.125L128 13.875L122.717 11L128 8.125Z" fill="white"/>
</svg>
