<svg width="40" height="43" viewBox="0 0 40 43" fill="none" xmlns="http://www.w3.org/2000/svg">
<path fill-rule="evenodd" clip-rule="evenodd" d="M12.265 15.2725C14.2945 15.2519 15.9318 13.6326 15.9318 11.6364C15.9318 9.62727 14.2734 8 12.2258 8C10.1782 8 8.51974 9.62727 8.51974 11.6364C8.51974 13.6326 10.157 15.2519 12.1865 15.2725H8.51952C7.59301 15.2725 6.6665 16.1816 6.6665 17.0907V24.3634C6.6665 25.2725 7.59301 26.1816 8.51952 26.1816V37.0907H15.9316V35.5358L15.6301 35.7083L15.6262 35.7105C14.768 36.2041 13.7015 36.0141 13.0578 35.3259L13.0549 35.3228C11.7472 33.9169 10.7452 32.2264 10.1565 30.3554L10.1533 30.3453L10.1503 30.3352C9.88705 29.455 10.2406 28.4639 11.1016 27.9741L11.1054 27.9719L12.2308 27.328C12.1849 26.7668 12.1849 26.2027 12.2308 25.6415L11.1017 24.9954C10.2612 24.5173 9.86704 23.5291 10.1569 22.6128C10.7451 20.7398 11.7456 19.0504 13.0527 17.649C13.7181 16.9277 14.7853 16.7829 15.6184 17.2546L15.622 17.2566L16.7454 17.9009C17.0796 17.6732 17.4266 17.4646 17.7846 17.2762V17.0907C17.7846 16.1816 16.8581 15.2725 15.9316 15.2725H12.265ZM33.2518 29.2522L31.2568 28.11C31.4581 27.0328 31.4581 25.9277 31.2568 24.8505L33.2518 23.7083C33.4812 23.5783 33.5843 23.3089 33.5093 23.0582C32.9895 21.4052 32.1044 19.9101 30.9477 18.6658C30.7697 18.4754 30.4794 18.429 30.2546 18.559L28.2596 19.7012C27.4213 18.9861 26.4566 18.4336 25.4123 18.0714V15.7916C25.4123 15.5316 25.2297 15.3041 24.9721 15.2484C23.2534 14.8676 21.4926 14.8862 19.8582 15.2484C19.6006 15.3041 19.418 15.5316 19.418 15.7916V18.0761C18.3783 18.4429 17.4136 18.9954 16.5707 19.7058L14.5804 18.5636C14.3509 18.4336 14.0652 18.4754 13.8873 18.6704C12.7306 19.9101 11.8455 21.4052 11.3256 23.0629C11.246 23.3136 11.3537 23.5829 11.5832 23.7129L13.5782 24.8551C13.3768 25.9323 13.3768 27.0374 13.5782 28.1146L11.5832 29.2569C11.3537 29.3869 11.2507 29.6562 11.3256 29.9069C11.8455 31.5599 12.7306 33.055 13.8873 34.2994C14.0652 34.4897 14.3556 34.5362 14.5804 34.4062L16.5754 33.2639C17.4136 33.979 18.3783 34.5315 19.4227 34.8937V37.1781C19.4227 37.4381 19.6053 37.6657 19.8629 37.7214C21.5816 38.1021 23.3424 38.0836 24.9768 37.7214C25.2344 37.6657 25.417 37.4381 25.417 37.1781V34.8937C26.4566 34.5269 27.4213 33.9743 28.2643 33.2639L30.2593 34.4062C30.4887 34.5362 30.7744 34.4944 30.9524 34.2994C32.1091 33.0596 32.9942 31.5645 33.514 29.9069C33.5843 29.6515 33.4812 29.3822 33.2518 29.2522ZM22.4151 30.1948C20.3499 30.1948 18.6687 28.5279 18.6687 26.4802C18.6687 24.4326 20.3499 22.7657 22.4151 22.7657C24.4804 22.7657 26.1616 24.4326 26.1616 26.4802C26.1616 28.5279 24.4804 30.1948 22.4151 30.1948Z" fill="#180710"/>
<g filter="url(#filter0_d_3129_17420)">
<circle cx="29" cy="11" r="9" fill="#FFB800"/>
<path d="M30.2483 13.7353C30.2483 13.5535 30.2221 13.3904 30.1699 13.246C30.1176 13.0963 30.0209 12.9572 29.8798 12.8289C29.7387 12.7005 29.5348 12.5722 29.2683 12.4439C29.007 12.3102 28.662 12.1711 28.2334 12.0267C27.7317 11.8556 27.2483 11.6631 26.7831 11.4492C26.3179 11.2299 25.9024 10.9759 25.5366 10.6872C25.1707 10.393 24.8807 10.0508 24.6664 9.66043C24.4521 9.26471 24.3449 8.80481 24.3449 8.28075C24.3449 7.77807 24.4547 7.3262 24.6742 6.92513C24.8937 6.51872 25.1995 6.1738 25.5915 5.89037C25.9887 5.6016 26.4538 5.38235 26.9869 5.23262C27.52 5.07754 28.1028 5 28.7352 5C29.5714 5 30.3084 5.14973 30.946 5.4492C31.5889 5.74332 32.0906 6.1631 32.4512 6.70856C32.8171 7.24866 33 7.8877 33 8.62567H30.2639C30.2639 8.33155 30.2038 8.07219 30.0836 7.84759C29.9686 7.62299 29.7936 7.44652 29.5584 7.31818C29.3232 7.18984 29.0279 7.12567 28.6725 7.12567C28.3275 7.12567 28.0375 7.17914 27.8023 7.2861C27.5671 7.39305 27.3894 7.53743 27.2692 7.71925C27.149 7.89572 27.0889 8.09091 27.0889 8.30481C27.0889 8.48128 27.1359 8.64171 27.23 8.7861C27.3293 8.92513 27.4678 9.05615 27.6455 9.17914C27.8284 9.30214 28.0479 9.41979 28.304 9.53209C28.5653 9.64438 28.858 9.75401 29.1821 9.86096C29.7883 10.0588 30.3267 10.2807 30.797 10.5267C31.2726 10.7674 31.6725 11.0428 31.9965 11.3529C32.3258 11.6578 32.574 12.0053 32.7413 12.3957C32.9138 12.7861 33 13.2273 33 13.7193C33 14.2433 32.9007 14.7086 32.7021 15.115C32.5035 15.5214 32.2186 15.8663 31.8476 16.1497C31.4765 16.4278 31.0322 16.639 30.5148 16.7834C29.9974 16.9278 29.4199 17 28.7822 17C28.1969 17 27.6193 16.9251 27.0497 16.7754C26.4852 16.6203 25.973 16.385 25.5131 16.0695C25.0531 15.7487 24.6847 15.3396 24.4077 14.8422C24.1359 14.3396 24 13.7433 24 13.0535H26.7596C26.7596 13.3957 26.804 13.6845 26.8929 13.9198C26.9817 14.1551 27.1124 14.3449 27.2848 14.4893C27.4573 14.6283 27.669 14.7299 27.9199 14.7941C28.1707 14.8529 28.4582 14.8824 28.7822 14.8824C29.1324 14.8824 29.4146 14.8316 29.6289 14.7299C29.8432 14.623 30 14.484 30.0993 14.3128C30.1986 14.1364 30.2483 13.9439 30.2483 13.7353Z" fill="white"/>
</g>
<defs>
<filter id="filter0_d_3129_17420" x="14" y="0" width="26" height="26" filterUnits="userSpaceOnUse" color-interpolation-filters="sRGB">
<feFlood flood-opacity="0" result="BackgroundImageFix"/>
<feColorMatrix in="SourceAlpha" type="matrix" values="0 0 0 0 0 0 0 0 0 0 0 0 0 0 0 0 0 0 127 0" result="hardAlpha"/>
<feOffset dx="-2" dy="2"/>
<feGaussianBlur stdDeviation="2"/>
<feComposite in2="hardAlpha" operator="out"/>
<feColorMatrix type="matrix" values="0 0 0 0 0 0 0 0 0 0 0 0 0 0 0 0 0 0 0.25 0"/>
<feBlend mode="normal" in2="BackgroundImageFix" result="effect1_dropShadow_3129_17420"/>
<feBlend mode="normal" in="SourceGraphic" in2="effect1_dropShadow_3129_17420" result="shape"/>
</filter>
</defs>
</svg>
