<svg width="18" height="18" viewBox="0 0 18 18" fill="none" xmlns="http://www.w3.org/2000/svg">
<g clip-path="url(#clip0_2968_15693)">
<path opacity="0.2" d="M9.95595 2.30805C10.484 1.78005 10.484 0.924 9.95595 0.396C9.42795 -0.132 8.5719 -0.132 8.0439 0.396L0.396 8.04405C-0.132 8.57205 -0.132 9.4281 0.396 9.95595L4.21995 13.7799V13.78C4.74795 14.308 5.60385 14.308 6.13185 13.78L12.824 7.08795L14.736 9L8.0439 15.6921C7.5159 16.2199 7.5159 17.076 8.0439 17.6041C8.5719 18.132 9.42795 18.132 9.95595 17.6041L17.6039 9.95595C18.1319 9.4281 18.1319 8.57205 17.6039 8.04405L13.7799 4.21995C13.2519 3.6921 12.396 3.6921 11.868 4.21995L5.1759 10.912L3.26385 9L9.95595 2.30805Z" fill="url(#paint0_linear_2968_15693)"/>
<path d="M9.95607 15.6921C10.4841 16.2201 10.4841 17.0761 9.95607 17.6041C9.42807 18.1321 8.57202 18.1321 8.04402 17.6041C7.51602 17.0761 7.51602 16.2201 8.04402 15.6921C8.57202 15.1641 9.42807 15.1641 9.95607 15.6921ZM6.13203 11.8681C6.66003 12.3961 6.66003 13.2521 6.13203 13.7801C5.60403 14.3081 4.74798 14.3081 4.21998 13.7801C3.69198 13.2521 3.69198 12.3961 4.21998 11.8681C4.74798 11.3401 5.60403 11.3401 6.13203 11.8681ZM13.78 11.8681C14.308 12.3961 14.308 13.2521 13.78 13.78C13.252 14.3081 12.396 14.3081 11.868 13.7801C11.34 13.2521 11.34 12.3961 11.868 11.8681C12.396 11.3401 13.252 11.3401 13.78 11.8681ZM2.30805 8.04411C2.83605 8.57211 2.83605 9.42816 2.30805 9.95601C1.78005 10.4842 0.924 10.4842 0.396 9.95601C-0.132 9.42816 -0.132 8.57211 0.396 8.04411C0.924 7.51596 1.78005 7.51596 2.30805 8.04411ZM9.95607 8.04411C10.4841 8.57211 10.4841 9.42816 9.95607 9.95601C9.42807 10.4842 8.57202 10.4842 8.04402 9.95601C7.51602 9.42816 7.51602 8.57211 8.04402 8.04411C8.57202 7.51596 9.42807 7.51596 9.95607 8.04411ZM17.604 8.04411C18.132 8.57211 18.132 9.42816 17.604 9.95601C17.076 10.4842 16.22 10.4842 15.692 9.95601C15.164 9.42816 15.164 8.57211 15.692 8.04411C16.22 7.51596 17.076 7.51596 17.604 8.04411ZM6.13203 4.21998C6.66003 4.74813 6.66003 5.60418 6.13203 6.13203C5.60403 6.66003 4.74798 6.66003 4.21998 6.13203C3.69198 5.60418 3.69198 4.74813 4.21998 4.22013C4.74798 3.69198 5.60403 3.69198 6.13203 4.21998ZM13.78 4.21998C14.308 4.74813 14.308 5.60418 13.78 6.13203C13.252 6.66003 12.396 6.66003 11.868 6.13203C11.34 5.60418 11.34 4.74813 11.868 4.22013C12.396 3.69198 13.252 3.69198 13.78 4.21998ZM9.95607 0.396C10.4841 0.92415 10.4841 1.7802 9.95607 2.30805C9.42807 2.83605 8.57202 2.83605 8.04402 2.30805C7.51602 1.7802 7.51602 0.92415 8.04402 0.396C8.57202 -0.132 9.42807 -0.132 9.95607 0.396Z" fill="url(#paint1_linear_2968_15693)"/>
</g>
<defs>
<linearGradient id="paint0_linear_2968_15693" x1="17.9997" y1="18" x2="3.27568e-06" y2="0.000185548" gradientUnits="userSpaceOnUse">
<stop stop-color="#FE3876"/>
<stop offset="0.714448" stop-color="#7C30DD"/>
<stop offset="1" stop-color="#3A30DD"/>
</linearGradient>
<linearGradient id="paint1_linear_2968_15693" x1="18.0001" y1="18.0001" x2="-0.000151396" y2="7.62951e-05" gradientUnits="userSpaceOnUse">
<stop stop-color="#FE3876"/>
<stop offset="0.714448" stop-color="#7C30DD"/>
<stop offset="1" stop-color="#3A30DD"/>
</linearGradient>
<clipPath id="clip0_2968_15693">
<rect width="18" height="18" fill="white"/>
</clipPath>
</defs>
</svg>
