<svg width="12" height="10" viewBox="0 0 12 10" fill="none" xmlns="http://www.w3.org/2000/svg">
<path fill-rule="evenodd" clip-rule="evenodd" d="M12 0.75C12 0.55152 11.9191 0.361133 11.775 0.220552C11.6309 0.0799713 11.4354 0.0006616 11.2313 0H0.771263C0.566712 0 0.370538 0.0790175 0.225898 0.21967C0.0812579 0.360322 0 0.551088 0 0.75C0 0.948912 0.0812579 1.13968 0.225898 1.28033C0.370538 1.42098 0.566712 1.5 0.771263 1.5H11.2313C11.6555 1.5 12 1.16667 12 0.75ZM12 5C12 4.80152 11.9191 4.61113 11.775 4.47055C11.6309 4.32997 11.4354 4.25066 11.2313 4.25H0.771263C0.566712 4.25 0.370538 4.32902 0.225898 4.46967C0.0812579 4.61032 0 4.80109 0 5C0 5.19891 0.0812579 5.38968 0.225898 5.53033C0.370538 5.67098 0.566712 5.75 0.771263 5.75H11.2313C11.6555 5.75 12 5.41667 12 5ZM0.0025709 9.25C0.0025709 9.66417 0.353924 10 0.770406 10H6.94737C7.37156 10 7.7152 9.66667 7.7152 9.25C7.7152 8.83583 7.36385 8.5 6.94737 8.5H0.770406C0.346211 8.5 0.0025709 8.83333 0.0025709 9.25Z" fill="#674394"/>
</svg>
