<svg width="132" height="71" viewBox="0 0 132 71" fill="none" xmlns="http://www.w3.org/2000/svg">
<g opacity="0.9">
<mask id="path-1-inside-1_3759_21666" fill="white">
<path fill-rule="evenodd" clip-rule="evenodd" d="M-0.000164925 37.089C14.9397 57.3583 38.9805 70.5078 66.0925 70.5078C93.0931 70.5078 117.048 57.4662 132 37.3387L82.8757 0.254016C79.1633 5.52555 73.0301 8.96952 66.0925 8.96952C59.0435 8.96952 52.8249 5.414 49.1323 -0.00147209L-0.000164925 37.089Z"/>
</mask>
<path fill-rule="evenodd" clip-rule="evenodd" d="M-0.000164925 37.089C14.9397 57.3583 38.9805 70.5078 66.0925 70.5078C93.0931 70.5078 117.048 57.4662 132 37.3387L82.8757 0.254016C79.1633 5.52555 73.0301 8.96952 66.0925 8.96952C59.0435 8.96952 52.8249 5.414 49.1323 -0.00147209L-0.000164925 37.089Z" fill="white" fill-opacity="0.9"/>
<path d="M-0.000164925 37.089L-0.602669 36.2909L-1.39169 36.8865L-0.805133 37.6823L-0.000164925 37.089ZM132 37.3387L132.803 37.935L133.395 37.1385L132.603 36.5406L132 37.3387ZM82.8757 0.254016L83.4782 -0.5441L82.6532 -1.16687L82.0581 -0.321767L82.8757 0.254016ZM49.1323 -0.00147209L49.9586 -0.564831L49.3674 -1.43185L48.5298 -0.799588L49.1323 -0.00147209ZM-0.805133 37.6823C14.3151 58.1964 38.6494 71.5078 66.0925 71.5078L66.0925 69.5078C39.3116 69.5078 15.5643 56.5203 0.804803 36.4957L-0.805133 37.6823ZM66.0925 71.5078C93.4228 71.5078 117.67 58.3056 132.803 37.935L131.198 36.7423C116.425 56.6269 92.7633 69.5078 66.0925 69.5078L66.0925 71.5078ZM82.2732 1.05213L131.398 38.1368L132.603 36.5406L83.4782 -0.5441L82.2732 1.05213ZM66.0925 9.96952C73.3691 9.96952 79.8016 6.3559 83.6933 0.8298L82.0581 -0.321767C78.525 4.69521 72.6911 7.96952 66.0925 7.96952L66.0925 9.96952ZM48.3061 0.561887C52.177 6.23888 58.699 9.96952 66.0925 9.96952L66.0925 7.96952C59.3881 7.96952 53.4728 4.58913 49.9586 -0.564831L48.3061 0.561887ZM0.602339 37.8871L49.7348 0.796644L48.5298 -0.799588L-0.602669 36.2909L0.602339 37.8871Z" fill="#BA2882" mask="url(#path-1-inside-1_3759_21666)"/>
</g>
</svg>
