<svg width="151" height="89" viewBox="0 0 151 89" fill="none" xmlns="http://www.w3.org/2000/svg">
<g opacity="0.9" filter="url(#filter0_d_3759_21666)">
<mask id="path-1-inside-1_3759_21666" fill="white">
<path fill-rule="evenodd" clip-rule="evenodd" d="M9.49984 46.4132C24.4397 66.6825 48.4805 79.832 75.5925 79.832C102.593 79.832 126.548 66.7905 141.5 46.6629L92.3757 9.57824C88.6633 14.8498 82.5301 18.2937 75.5925 18.2937C68.5435 18.2937 62.3249 14.7382 58.6323 9.32275L9.49984 46.4132Z"/>
</mask>
<path fill-rule="evenodd" clip-rule="evenodd" d="M9.49984 46.4132C24.4397 66.6825 48.4805 79.832 75.5925 79.832C102.593 79.832 126.548 66.7905 141.5 46.6629L92.3757 9.57824C88.6633 14.8498 82.5301 18.2937 75.5925 18.2937C68.5435 18.2937 62.3249 14.7382 58.6323 9.32275L9.49984 46.4132Z" fill="black"/>
<path d="M9.49984 46.4132L8.89733 45.6151L8.10831 46.2108L8.69487 47.0066L9.49984 46.4132ZM141.5 46.6629L142.303 47.2593L142.895 46.4627L142.103 45.8648L141.5 46.6629ZM92.3757 9.57824L92.9782 8.78012L92.1532 8.15735L91.5581 9.00245L92.3757 9.57824ZM58.6323 9.32275L59.4586 8.75938L58.8674 7.89237L58.0298 8.52463L58.6323 9.32275ZM8.69487 47.0066C23.8151 67.5206 48.1494 80.832 75.5925 80.832L75.5925 78.832C48.8116 78.832 25.0643 65.8445 10.3048 45.8199L8.69487 47.0066ZM75.5925 80.832C102.923 80.832 127.17 67.6298 142.303 47.2593L140.698 46.0666C125.925 65.9511 102.263 78.832 75.5925 78.832L75.5925 80.832ZM91.7732 10.3764L140.898 47.461L142.103 45.8648L92.9782 8.78012L91.7732 10.3764ZM75.5925 19.2937C82.8691 19.2937 89.3016 15.6801 93.1933 10.154L91.5581 9.00245C88.025 14.0194 82.1911 17.2937 75.5925 17.2937L75.5925 19.2937ZM57.8061 9.88611C61.677 15.5631 68.199 19.2937 75.5925 19.2937L75.5925 17.2937C68.8881 17.2937 62.9728 13.9133 59.4586 8.75938L57.8061 9.88611ZM10.1023 47.2113L59.2348 10.1209L58.0298 8.52463L8.89733 45.6151L10.1023 47.2113Z" fill="#BA2882" mask="url(#path-1-inside-1_3759_21666)"/>
</g>
<defs>
<filter id="filter0_d_3759_21666" x="0.5" y="0.324219" width="150" height="88.5078" filterUnits="userSpaceOnUse" color-interpolation-filters="sRGB">
<feFlood flood-opacity="0" result="BackgroundImageFix"/>
<feColorMatrix in="SourceAlpha" type="matrix" values="0 0 0 0 0 0 0 0 0 0 0 0 0 0 0 0 0 0 127 0" result="hardAlpha"/>
<feOffset/>
<feGaussianBlur stdDeviation="4.5"/>
<feComposite in2="hardAlpha" operator="out"/>
<feColorMatrix type="matrix" values="0 0 0 0 0 0 0 0 0 0 0 0 0 0 0 0 0 0 0.8 0"/>
<feBlend mode="normal" in2="BackgroundImageFix" result="effect1_dropShadow_3759_21666"/>
<feBlend mode="normal" in="SourceGraphic" in2="effect1_dropShadow_3759_21666" result="shape"/>
</filter>
</defs>
</svg>
