<svg width="135" height="73" transform='rotate(180, -21, -11) scale(1.6)' viewBox="0 0 135 73" fill="none" xmlns="http://www.w3.org/2000/svg">
<g opacity="0.9">
<mask id="path-1-inside-1_3674_21406" fill="white">
<path fill-rule="evenodd" clip-rule="evenodd" d="M83.654 21.1786C74.1859 8.33325 58.9504 0 41.7685 0C24.6572 0 9.47629 8.26489 -5.22898e-07 21.0204L31.1327 44.5227C33.4855 41.1823 37.3721 39 41.7685 39C46.2354 39 50.1762 41.253 52.5164 44.6846L83.654 21.1786Z"/>
</mask>
<path fill-rule="evenodd" clip-rule="evenodd" d="M83.654 21.1786C74.1859 8.33325 58.9504 0 41.7685 0C24.6572 0 9.47629 8.26489 -5.22898e-07 21.0204L31.1327 44.5227C33.4855 41.1823 37.3721 39 41.7685 39C46.2354 39 50.1762 41.253 52.5164 44.6846L83.654 21.1786Z" fill="#F3EDF1"/>
<path d="M83.654 21.1786L84.2565 21.9767L85.0455 21.381L84.4589 20.5852L83.654 21.1786ZM-5.22898e-07 21.0204L-0.802722 20.4241L-1.39451 21.2206L-0.602504 21.8185L-5.22898e-07 21.0204ZM31.1327 44.5227L30.5302 45.3209L31.3551 45.9436L31.9503 45.0986L31.1327 44.5227ZM52.5164 44.6846L51.6902 45.248L52.2814 46.1149L53.1189 45.4827L52.5164 44.6846ZM84.4589 20.5852C74.8105 7.49521 59.2815 -1 41.7685 -1V1C58.6192 1 73.5613 9.17129 82.849 21.7719L84.4589 20.5852ZM41.7685 -1C24.3275 -1 8.85411 7.42552 -0.802722 20.4241L0.802721 21.6168C10.0985 9.10425 24.9869 1 41.7685 1V-1ZM31.7352 43.7246L0.602503 20.2223L-0.602504 21.8185L30.5302 45.3209L31.7352 43.7246ZM41.7685 38C37.0331 38 32.8472 40.3519 30.3152 43.9469L31.9503 45.0986C34.1238 42.0127 37.7111 40 41.7685 40V38ZM53.3425 44.1212C50.824 40.4281 46.5799 38 41.7685 38V40C45.8909 40 49.5283 42.0779 51.6902 45.248L53.3425 44.1212ZM83.0515 20.3805L51.9139 43.8865L53.1189 45.4827L84.2565 21.9767L83.0515 20.3805Z" fill="#BA2882" mask="url(#path-1-inside-1_3674_21406)"/>
</g>
</svg>
