<svg width="28" height="28" viewBox="0 0 28 28" fill="none" xmlns="http://www.w3.org/2000/svg">
<path d="M17.2051 11.3672C17.1017 11.2902 16.9591 11.3145 16.8877 11.4102L16.8867 11.4121L13.3652 16.1074L11.0996 13.8418L11.0625 13.8125C10.9717 13.7532 10.8508 13.7646 10.7764 13.8389C10.6898 13.9254 10.6898 14.0736 10.7764 14.1602L13.2266 16.6104L13.2666 16.6426C13.3083 16.6694 13.3557 16.681 13.4023 16.6777C13.4712 16.6728 13.5325 16.6382 13.5693 16.5889L13.5703 16.5869L17.249 11.6826C17.3152 11.5923 17.3048 11.4735 17.2373 11.3975L17.2051 11.3672ZM23.292 21.6631C23.2506 22.08 23.0665 22.467 22.7754 22.7627L22.7705 22.7686L22.7646 22.7744C22.4269 23.1067 21.9693 23.2988 21.4844 23.2988H21.4834L20.2129 23.2969L19.7295 24.4639L19.7305 24.4648C19.5483 24.9144 19.194 25.269 18.748 25.4531L18.749 25.4541C18.7478 25.4546 18.7463 25.4546 18.7451 25.4551L18.7441 25.4561L18.7432 25.4551C18.2984 25.6387 17.7996 25.6406 17.3525 25.4521V25.4512L16.1826 24.9658L15.2891 25.8604L15.29 25.8613C14.9485 26.2082 14.482 26.3993 14.002 26.3994C13.5217 26.3994 13.0546 26.2084 12.7129 25.8613V25.8604L11.8193 24.9658L10.6504 25.4512L10.6514 25.4521C10.2024 25.6415 9.70013 25.64 9.25391 25.4541V25.4531C8.80836 25.2688 8.45447 24.9141 8.27246 24.4648V24.4639L7.78906 23.2969L6.51953 23.2988H6.51855C6.0336 23.2988 5.57601 23.1067 5.23828 22.7744L5.23242 22.7686L5.22754 22.7627C4.89491 22.4248 4.70215 21.9672 4.70215 21.4824V21.4814L4.70312 20.2109L3.5293 19.7256V19.7246C3.08181 19.541 2.72755 19.1879 2.54492 18.7422L2.5459 18.7412C2.36238 18.2965 2.36041 17.7977 2.54883 17.3506L3.03418 16.1807L2.13477 15.2832L2.13574 15.2822C1.83503 14.9838 1.65145 14.5921 1.61035 14.1787L1.60156 14L1.61035 13.8203C1.65172 13.4047 1.836 13.0099 2.13965 12.7109L3.03418 11.8174L2.54883 10.6494L2.4873 10.4785C2.36323 10.0755 2.38424 9.64246 2.54688 9.25195H2.54785C2.73115 8.80869 3.08337 8.45626 3.5293 8.27344L4.70312 7.78711L4.70215 6.51758V6.5166C4.70215 6.03179 4.89503 5.57417 5.22754 5.23633L5.23242 5.23047L5.23828 5.22559C5.576 4.8933 6.03356 4.7002 6.51855 4.7002H6.51953L7.78906 4.70117L8.27539 3.52734C8.45897 3.07961 8.81362 2.72564 9.25977 2.54297V2.54395C9.70465 2.36025 10.2042 2.35825 10.6514 2.54688L10.6504 2.54785L11.8193 3.03223L12.7178 2.13281C13.059 1.7889 13.524 1.59961 14.002 1.59961L14.1807 1.6084C14.5941 1.6495 14.9868 1.83211 15.2852 2.13281L16.1826 3.03223L17.3574 2.54492V2.5459C17.803 2.35949 18.2992 2.36133 18.7422 2.54395L18.7432 2.54297C18.7444 2.54346 18.7459 2.54442 18.7471 2.54492L18.75 2.5459L18.749 2.54688C19.1922 2.73019 19.5438 3.08181 19.7266 3.52734H19.7275L20.2129 4.70117L21.4834 4.7002H21.4844L21.665 4.70898C22.0227 4.74445 22.3581 4.88486 22.6328 5.10742L22.7646 5.22559L22.7705 5.23047L22.7764 5.23633C23.1088 5.57415 23.3008 6.03186 23.3008 6.5166V6.51758L23.2988 7.78711L24.4736 8.27344H24.4727C24.919 8.45613 25.2716 8.80839 25.4551 9.25195H25.4561C25.6419 9.69816 25.6435 10.2004 25.4541 10.6494L24.9678 11.8174L25.8633 12.7109L25.9863 12.8447C26.2554 13.1695 26.4014 13.5798 26.4014 14C26.4013 14.4778 26.211 14.9411 25.8672 15.2822L25.8682 15.2832L24.9678 16.1807L25.4541 17.3506L25.5166 17.5205C25.6401 17.9216 25.6176 18.3521 25.457 18.7412L25.458 18.7422C25.2752 19.1882 24.9206 19.5411 24.4727 19.7246L24.4736 19.7256L23.2988 20.2109L23.3008 21.4814V21.4824L23.292 21.6631Z" fill="#809ACB" stroke="#11113E" stroke-width="2"/>
</svg>
