<svg width="14" height="14" viewBox="0 0 14 14" fill="none" xmlns="http://www.w3.org/2000/svg">
<path d="M7.09082 0.804688C7.29734 0.825344 7.49351 0.916185 7.64258 1.06641L8.09082 1.51562L8.67578 1.27441C8.90034 1.17969 9.15183 1.17942 9.375 1.27246L9.37402 1.27344C9.59581 1.36505 9.77182 1.54076 9.86328 1.76367L10.1064 2.35059H10.7422L10.833 2.35449C11.0412 2.37525 11.2342 2.46723 11.3818 2.6123L11.3877 2.61816C11.5539 2.78699 11.6503 3.01555 11.6504 3.25781V3.25879L11.6494 3.89355L12.2324 4.13477C12.4581 4.22612 12.6377 4.4047 12.7295 4.62891H12.7285C12.8199 4.85038 12.8206 5.0984 12.7275 5.32129L12.4844 5.90918L12.9307 6.35547C13.1042 6.52633 13.2012 6.75985 13.2012 7C13.2011 7.24008 13.1052 7.47372 12.9316 7.64453L12.9307 7.64355L12.4844 8.08984L12.7275 8.6748L12.7578 8.76074C12.8194 8.96107 12.8086 9.17578 12.7285 9.37012C12.637 9.59351 12.4598 9.77064 12.2354 9.8623L12.2363 9.86328L11.6494 10.1045L11.6504 10.7412L11.6455 10.832C11.6247 11.0403 11.5331 11.2341 11.3877 11.3818L11.3828 11.3867H11.3818C11.2342 11.532 11.0413 11.6237 10.833 11.6445L10.7422 11.6494L10.1055 11.6484L9.86426 12.2354C9.77252 12.4596 9.59523 12.6371 9.37207 12.7285L9.37109 12.7275C9.14878 12.8192 8.89921 12.8208 8.67578 12.7266V12.7256L8.09082 12.4834L7.64453 12.9297C7.47373 13.1032 7.24106 13.2001 7.00098 13.2002C6.76084 13.2002 6.52729 13.1042 6.35645 12.9307V12.9297L5.91016 12.4834L5.32324 12.7275L5.32227 12.7266C5.09941 12.8196 4.85137 12.819 4.62988 12.7275V12.7285C4.40571 12.6367 4.22712 12.4581 4.13574 12.2324V12.2314L3.89453 11.6484L3.25977 11.6494H3.25879C3.01643 11.6493 2.78792 11.5528 2.61914 11.3867L2.61328 11.3818C2.46786 11.2341 2.37623 11.0403 2.35547 10.832L2.35156 10.7412V10.1055L1.76465 9.86328V9.8623C1.54186 9.7709 1.36509 9.59554 1.27344 9.37402L1.24316 9.28906C1.18193 9.08842 1.19154 8.87136 1.27441 8.6748L1.5166 8.08984L1.06738 7.6416L1.06836 7.64062C0.918134 7.49154 0.826317 7.29637 0.805664 7.08984L0.800781 7L0.805664 6.91016C0.826361 6.7023 0.918443 6.50496 1.07031 6.35547L1.5166 5.9082L1.27344 5.32227L1.27441 5.32129C1.1809 5.09748 1.1809 4.84816 1.27344 4.62598C1.35393 4.4312 1.50007 4.27175 1.68555 4.17383L1.76855 4.13477L2.35156 3.89258V3.25781C2.35167 3.01561 2.44719 2.78698 2.61328 2.61816L2.61914 2.6123C2.7879 2.44629 3.01647 2.35069 3.25879 2.35059H3.89355L4.1377 1.76367C4.22907 1.54083 4.40532 1.36513 4.62695 1.27344V1.27246C4.84915 1.17989 5.09849 1.17992 5.32227 1.27344L5.32324 1.27246L5.90918 1.51562L6.35938 1.06641C6.52997 0.894602 6.76212 0.799805 7.00098 0.799805L7.09082 0.804688ZM8.60254 5.68359C8.5509 5.64516 8.48008 5.6574 8.44434 5.70508L8.44336 5.70605L6.68262 8.05371L5.5498 6.9209C5.50375 6.87525 5.43119 6.87747 5.38867 6.91992C5.3454 6.96319 5.3454 7.03681 5.38867 7.08008L6.61328 8.30469C6.63806 8.32947 6.67002 8.34105 6.70117 8.33887C6.7356 8.33641 6.76576 8.3186 6.78418 8.29395H6.78516L8.62305 5.84277C8.66165 5.79108 8.65041 5.71934 8.60254 5.68359Z" fill="#82FFA5" stroke="black"/>
<g clip-path="url(#clip0_7916_49279)">
<path fill-rule="evenodd" clip-rule="evenodd" d="M12.7008 6.99981C12.7008 6.8918 12.6576 6.78741 12.5808 6.7118L11.8944 6.02661L12.2664 5.1302C12.3084 5.03061 12.3084 4.919 12.2664 4.81821C12.2256 4.71861 12.1464 4.6394 12.0456 4.5986L11.1492 4.2278L11.1504 3.25821C11.1504 3.14901 11.1072 3.04581 11.0316 2.969C10.9548 2.89341 10.8516 2.85021 10.7424 2.85021L9.77277 2.85141L9.40197 1.95501C9.36116 1.85421 9.28197 1.775 9.18236 1.73421C9.08159 1.6922 8.96998 1.6922 8.87039 1.73421L7.97397 2.10621L7.28877 1.41981C7.21318 1.34301 7.10877 1.2998 7.00078 1.2998C6.89278 1.2998 6.78837 1.34301 6.71278 1.41981L6.02758 2.10621L5.13117 1.73421C5.03157 1.6922 4.91996 1.6922 4.81919 1.73421C4.71958 1.775 4.64039 1.85421 4.59958 1.95501L4.22878 2.85141L3.25918 2.85021C3.14996 2.85021 3.0468 2.89341 2.96997 2.969C2.89437 3.04581 2.85118 3.14901 2.85118 3.25821L2.85237 4.2278L1.95596 4.5986C1.85518 4.6394 1.77596 4.71861 1.73518 4.81821C1.69318 4.919 1.69318 5.03061 1.73518 5.1302L2.10717 6.02661L1.42078 6.7118C1.34397 6.78741 1.30078 6.8918 1.30078 6.99981C1.30078 7.10781 1.34397 7.2122 1.42078 7.28781L2.10717 7.97301L1.73518 8.8694C1.69318 8.969 1.69318 9.08061 1.73518 9.1814C1.77596 9.28101 1.85518 9.36021 1.95596 9.40101L2.85237 9.77181L2.85118 10.7414C2.85118 10.8506 2.89437 10.9538 2.96997 11.0306C3.0468 11.1062 3.14996 11.1494 3.25918 11.1494L4.22878 11.1482L4.59958 12.0446C4.64039 12.1454 4.71958 12.2246 4.81919 12.2654C4.91996 12.3074 5.03157 12.3074 5.13117 12.2654L6.02758 11.8934L6.71278 12.5798C6.78837 12.6566 6.89278 12.6998 7.00078 12.6998C7.10877 12.6998 7.21318 12.6566 7.28877 12.5798L7.97397 11.8934L8.87039 12.2654C8.96998 12.3074 9.08159 12.3074 9.18236 12.2654C9.28197 12.2246 9.36116 12.1454 9.40197 12.0446L9.77277 11.1482L10.7424 11.1494C10.8516 11.1494 10.9548 11.1062 11.0316 11.0306C11.1072 10.9538 11.1504 10.8506 11.1504 10.7414L11.1492 9.77181L12.0456 9.40101C12.1464 9.36021 12.2256 9.28101 12.2664 9.1814C12.3084 9.08061 12.3084 8.969 12.2664 8.8694L11.8944 7.97301L12.5808 7.28781C12.6576 7.2122 12.7008 7.10781 12.7008 6.99981ZM5.03473 7.43349C4.79621 7.19496 4.79621 6.80465 5.03473 6.56612C5.27325 6.32759 5.66178 6.32759 5.90209 6.56612L6.62852 7.29255L8.04344 5.40601C8.24582 5.13495 8.63072 5.08075 8.90177 5.28313C9.17283 5.48552 9.22705 5.87042 9.02464 6.14147L7.1851 8.59361C7.07847 8.73636 6.91404 8.8249 6.73696 8.83756C6.55987 8.85021 6.38638 8.78516 6.2599 8.65866L5.03473 7.43349Z" fill="#82FFA5"/>
</g>
<defs>
<clipPath id="clip0_7916_49279">
<rect width="12" height="12" fill="white" transform="translate(1 1)"/>
</clipPath>
</defs>
</svg>
