<svg width="140" height="102" viewBox="0 0 140 102" fill="none" xmlns="http://www.w3.org/2000/svg">
<path d="M122.421 11.308C124.904 11.308 126.918 9.2927 126.918 6.80671C126.918 4.32071 124.904 2.30542 122.421 2.30542C119.937 2.30542 117.923 4.32071 117.923 6.80671C117.923 9.2927 119.937 11.308 122.421 11.308Z" fill="#7956A5"/>
<path d="M2.95873 35.6503C4.59279 35.6503 5.91745 34.3244 5.91745 32.6889C5.91745 31.0534 4.59279 29.7275 2.95873 29.7275C1.32467 29.7275 0 31.0534 0 32.6889C0 34.3244 1.32467 35.6503 2.95873 35.6503Z" fill="#7956A5"/>
<path d="M16.5593 88.89C18.1934 88.89 19.518 87.5642 19.518 85.9287C19.518 84.2931 18.1934 82.9673 16.5593 82.9673C14.9253 82.9673 13.6006 84.2931 13.6006 85.9287C13.6006 87.5642 14.9253 88.89 16.5593 88.89Z" fill="#7956A5"/>
<path d="M32.376 88.8903L73.8952 75.8805V22.5405L32.376 35.4502V88.8903Z" fill="#B7BFCD"/>
<path opacity="0.4" d="M115.414 88.8903L73.895 75.8805V22.5405L115.414 35.4502V88.8903Z" fill="#6D7C9A"/>
<path d="M32.376 88.8903L73.8952 75.8805V22.5405L32.376 35.4502V88.8903Z" fill="#674394"/>
<path d="M115.414 88.8903L73.8952 75.8805V22.5405L115.414 35.4502V88.8903Z" fill="#674394"/>
<path d="M115.414 88.8903L73.895 75.8805V22.5405L115.414 35.4502V88.8903Z" fill="#7956A5"/>
<path d="M73.8952 102L32.376 88.9902V35.6501L73.8952 48.6599V102Z" fill="#674394"/>
<path d="M73.895 102L115.414 88.9902V35.6501L73.895 48.6599V102Z" fill="#4B3271"/>
<path opacity="0.29" d="M64.4881 92.5929L32.376 88.9902V35.6501L73.8952 48.6599L64.4881 92.5929Z" fill="#060A1C"/>
<path opacity="0.29" d="M83.3021 83.1858L115.414 88.9902V35.6501L73.895 48.6599L83.3021 83.1858Z" fill="url(#paint0_linear_76_3972)"/>
<path d="M73.8949 22.5404L54.374 7.92944L12.1611 22.1401L32.3757 35.4501L73.8949 22.5404Z" fill="#E30B7B"/>
<path d="M73.895 22.5404L93.416 7.92944L135.629 22.1401L115.414 35.4501L73.895 22.5404Z" fill="#AA83DC"/>
<path d="M32.3757 35.6501L73.8949 48.6599L53.1849 61.8698L12.1611 48.2596L32.3757 35.6501Z" fill="#AA83DC"/>
<path d="M115.414 35.6501L73.895 48.6599L94.6051 61.8698L135.629 48.2596L115.414 35.6501Z" fill="#E30B7B"/>
<path d="M19.5185 3.07328H16.9432V0.498047H14.7359V3.07328H12.1606V5.3542H14.7359V7.92943H16.9432V5.3542H19.5185V3.07328Z" fill="#FF4FB9"/>
<path d="M25.1752 67.6846H22.6V65.1094H20.3926V67.6846H17.8174V69.9655H20.3926V72.5408H22.6V69.9655H25.1752V67.6846Z" fill="#FF4FB9"/>
<path d="M137.751 67.8305L134.6 66.2397L136.191 63.0889L133.49 61.7253L131.899 64.8762L128.749 63.2854L127.34 66.0761L130.49 67.6669L128.9 70.8177L131.6 72.1813L133.191 69.0305L136.342 70.6213L137.751 67.8305Z" fill="#FF4FB9"/>
<path d="M63.0603 63.863L88.3621 23.818C91.1161 20.0607 96.8822 20.0607 99.6361 23.818L124.938 63.863C127.606 67.4534 124.938 72.5467 120.377 72.5467H67.7076C63.0603 72.4632 60.3924 67.4534 63.0603 63.863Z" fill="#FFCE4F"/>
<path d="M93.9998 34.0701C91.5888 34.0701 89.7136 36.1895 89.8921 38.6776L91.2316 53.606C91.3209 55.0804 92.571 56.2783 93.9998 56.2783C95.4285 56.2783 96.6786 55.0804 96.7679 53.606L98.1074 38.6776C98.2859 36.0974 96.4107 34.0701 93.9998 34.0701Z" fill="#05091C"/>
<path d="M94.0003 59.043C92.2144 59.043 90.7856 60.5174 90.7856 62.3604C90.7856 64.2034 92.2144 65.6778 94.0003 65.6778C95.7862 65.6778 97.2149 64.2034 97.2149 62.3604C97.2149 60.5174 95.7862 59.043 94.0003 59.043Z" fill="#05091C"/>
<defs>
<linearGradient id="paint0_linear_76_3972" x1="83.2034" y1="69.8461" x2="92.0768" y2="43.0914" gradientUnits="userSpaceOnUse">
<stop offset="0.00289017" stop-color="#292D36" stop-opacity="0"/>
<stop offset="1" stop-color="#2A2E37"/>
</linearGradient>
</defs>
</svg>
