<svg width="207" height="150" viewBox="0 0 207 150" fill="none" xmlns="http://www.w3.org/2000/svg">
<path d="M104.455 127C138.948 127 166.91 99.0178 166.91 64.5C166.91 29.9822 138.948 2 104.455 2C69.9621 2 42 29.9822 42 64.5C42 99.0178 69.9621 127 104.455 127Z" fill="#2D1E4A" fill-opacity="0.55"/>
<g filter="url(#filter0_d_6604_25571)">
<path d="M97.4967 83.7176L58.6875 110.687C56.4426 112.233 53.3839 111.699 51.8124 109.451L26.0519 72.2835C24.5085 70.0361 25.0417 66.9739 27.2866 65.4006L66.0958 38.4308C68.3407 36.8857 71.3994 37.4195 72.9709 39.667L98.7595 76.8347C100.303 79.0822 99.7416 82.1725 97.4967 83.7176Z" fill="#2C1D48"/>
</g>
<path opacity="0.4" d="M91.4912 79.6439L57.3683 103.355C56.4142 104.029 55.0953 103.776 54.4218 102.821L33.1231 72.0867C32.4496 71.1316 32.7021 69.8112 33.6562 69.1369L67.7791 45.426C68.7332 44.7517 70.0521 45.0046 70.7256 45.9598L92.0243 76.6941C92.6978 77.6493 92.4453 78.9697 91.4912 79.6439Z" fill="#060A1D"/>
<path d="M67.0492 79.3911L54.5898 88.0439L55.9087 76.666L67.0492 79.3911Z" fill="#594580"/>
<path d="M77.3474 72.2273L59.416 84.7008L61.3242 68.3223L77.3474 72.2273Z" fill="url(#paint0_linear_6604_25571)"/>
<path d="M50.9697 75.6547C52.5505 75.6547 53.832 74.3717 53.832 72.7891C53.832 71.2065 52.5505 69.9236 50.9697 69.9236C49.3889 69.9236 48.1074 71.2065 48.1074 72.7891C48.1074 74.3717 49.3889 75.6547 50.9697 75.6547Z" fill="#594580"/>
<g filter="url(#filter1_d_6604_25571)">
<path d="M144.5 106.67L108.44 76.104C106.364 74.3341 106.111 71.2158 107.851 69.1368L137.063 34.6099C138.831 32.531 141.946 32.2781 144.023 34.0199L180.082 64.5857C182.158 66.3556 182.411 69.474 180.671 71.5529L151.459 106.08C149.691 108.159 146.576 108.412 144.5 106.67Z" fill="#2C1D48"/>
</g>
<path opacity="0.4" d="M146.884 99.8148L115.175 72.9574C114.277 72.1988 114.164 70.8784 114.922 69.9795L139.055 41.4364C139.813 40.5374 141.132 40.4251 142.03 41.1836L173.739 68.041C174.637 68.7995 174.749 70.1199 173.992 71.0189L149.859 99.5619C149.101 100.461 147.782 100.573 146.884 99.8148Z" fill="#060A1D"/>
<path d="M140.794 76.0757L129.232 66.271L140.569 64.6135L140.794 76.0757Z" fill="#594580"/>
<path d="M150.391 84.195L133.723 70.064L150.026 67.7041L150.391 84.195Z" fill="url(#paint1_linear_6604_25571)"/>
<path d="M143.04 61.7203C144.621 61.7203 145.902 60.4374 145.902 58.8548C145.902 57.2722 144.621 55.9893 143.04 55.9893C141.459 55.9893 140.178 57.2722 140.178 58.8548C140.178 60.4374 141.459 61.7203 143.04 61.7203Z" fill="#594580"/>
<g filter="url(#filter2_d_6604_25571)">
<path d="M128.172 75.3422L81.754 84.2827C79.0734 84.7915 76.4852 83.0338 75.9557 80.3752L67.3607 35.9727C66.8488 33.2921 68.604 30.7065 71.2627 30.1801L117.68 21.2396C120.361 20.7308 122.949 22.4885 123.479 25.1471L132.074 69.5496C132.586 72.2302 130.83 74.8158 128.172 75.3422Z" fill="#2C1D48"/>
</g>
<path opacity="0.4" d="M124.324 69.1875L83.5217 77.0631C82.3679 77.2874 81.2686 76.5473 81.043 75.3934L73.9273 38.6991C73.7017 37.5453 74.4408 36.4472 75.5946 36.2229L116.397 28.3473C117.55 28.123 118.65 28.8631 118.875 30.017L125.991 66.7112C126.217 67.8651 125.477 68.9632 124.324 69.1875Z" fill="#060A1D"/>
<path d="M102.012 59.0534L87.1255 61.917L92.9394 52.0443L102.012 59.0534Z" fill="#594580"/>
<path d="M114.354 56.664L92.8955 60.7957L101.275 46.6125L114.354 56.664Z" fill="url(#paint2_linear_6604_25571)"/>
<path d="M92.2324 48.3067C93.2231 47.0749 93.0266 45.2723 91.7934 44.2804C90.5603 43.2885 88.7574 43.483 87.7666 44.7147C86.7758 45.9465 86.9723 47.7492 88.2055 48.7411C89.4387 49.733 91.2416 49.5385 92.2324 48.3067Z" fill="#594580"/>
<defs>
<filter id="filter0_d_6604_25571" x="0.0151196" y="24.9714" width="124.772" height="124.332" filterUnits="userSpaceOnUse" color-interpolation-filters="sRGB">
<feFlood flood-opacity="0" result="BackgroundImageFix"/>
<feColorMatrix in="SourceAlpha" type="matrix" values="0 0 0 0 0 0 0 0 0 0 0 0 0 0 0 0 0 0 127 0" result="hardAlpha"/>
<feOffset dy="12.5784"/>
<feGaussianBlur stdDeviation="12.5784"/>
<feColorMatrix type="matrix" values="0 0 0 0 0 0 0 0 0 0 0 0 0 0 0 0 0 0 0.27 0"/>
<feBlend mode="normal" in2="BackgroundImageFix" result="effect1_dropShadow_6604_25571"/>
<feBlend mode="normal" in="SourceGraphic" in2="effect1_dropShadow_6604_25571" result="shape"/>
</filter>
<filter id="filter1_d_6604_25571" x="81.5405" y="20.2864" width="125.44" height="125.274" filterUnits="userSpaceOnUse" color-interpolation-filters="sRGB">
<feFlood flood-opacity="0" result="BackgroundImageFix"/>
<feColorMatrix in="SourceAlpha" type="matrix" values="0 0 0 0 0 0 0 0 0 0 0 0 0 0 0 0 0 0 127 0" result="hardAlpha"/>
<feOffset dy="12.5784"/>
<feGaussianBlur stdDeviation="12.5784"/>
<feColorMatrix type="matrix" values="0 0 0 0 0 0 0 0 0 0 0 0 0 0 0 0 0 0 0.27 0"/>
<feBlend mode="normal" in2="BackgroundImageFix" result="effect1_dropShadow_6604_25571"/>
<feBlend mode="normal" in="SourceGraphic" in2="effect1_dropShadow_6604_25571" result="shape"/>
</filter>
<filter id="filter2_d_6604_25571" x="42.1147" y="8.57348" width="115.204" height="113.532" filterUnits="userSpaceOnUse" color-interpolation-filters="sRGB">
<feFlood flood-opacity="0" result="BackgroundImageFix"/>
<feColorMatrix in="SourceAlpha" type="matrix" values="0 0 0 0 0 0 0 0 0 0 0 0 0 0 0 0 0 0 127 0" result="hardAlpha"/>
<feOffset dy="12.5784"/>
<feGaussianBlur stdDeviation="12.5784"/>
<feColorMatrix type="matrix" values="0 0 0 0 0 0 0 0 0 0 0 0 0 0 0 0 0 0 0.27 0"/>
<feBlend mode="normal" in2="BackgroundImageFix" result="effect1_dropShadow_6604_25571"/>
<feBlend mode="normal" in="SourceGraphic" in2="effect1_dropShadow_6604_25571" result="shape"/>
</filter>
<linearGradient id="paint0_linear_6604_25571" x1="77.3474" y1="68.3223" x2="57.4811" y2="71.1613" gradientUnits="userSpaceOnUse">
<stop stop-color="#6E00B1"/>
<stop offset="0.45" stop-color="#DC45A0"/>
<stop offset="1" stop-color="#6E00B1"/>
</linearGradient>
<linearGradient id="paint1_linear_6604_25571" x1="150.391" y1="67.7041" x2="131.869" y2="70.1478" gradientUnits="userSpaceOnUse">
<stop stop-color="#6E00B1"/>
<stop offset="0.45" stop-color="#DC45A0"/>
<stop offset="1" stop-color="#6E00B1"/>
</linearGradient>
<linearGradient id="paint2_linear_6604_25571" x1="101.504" y1="46.3282" x2="91.7992" y2="62.2924" gradientUnits="userSpaceOnUse">
<stop stop-color="#6E00B1"/>
<stop offset="0.45" stop-color="#DC45A0"/>
<stop offset="1" stop-color="#6E00B1"/>
</linearGradient>
</defs>
</svg>
