<svg width="18" height="18" viewBox="0 0 18 18" fill="none" xmlns="http://www.w3.org/2000/svg">
<path d="M0.995273 9.3L3.66527 11.25L2.65127 14.3902C2.48741 14.8773 2.48533 15.4042 2.64535 15.8926C2.80538 16.3809 3.11893 16.8044 3.53927 17.1C3.95241 17.4051 4.45307 17.5685 4.96664 17.566C5.48021 17.5634 5.97921 17.395 6.38927 17.0857L9.00002 15.1642L11.6115 17.0835C12.0239 17.3868 12.5219 17.5516 13.0338 17.5541C13.5457 17.5566 14.0453 17.3967 14.4606 17.0974C14.8759 16.7981 15.1856 16.3748 15.3452 15.8884C15.5048 15.4019 15.5061 14.8774 15.3488 14.3902L14.3348 11.25L17.0048 9.3C17.4166 8.99888 17.7228 8.57531 17.8795 8.08979C18.0363 7.60427 18.0356 7.08164 17.8775 6.59654C17.7195 6.11144 17.4122 5.68869 16.9995 5.38868C16.5869 5.08866 16.09 4.92672 15.5798 4.926H12.3L11.3048 1.824C11.1483 1.33571 10.8407 0.909757 10.4265 0.607545C10.0123 0.305334 9.51277 0.142487 9.00002 0.142487C8.48727 0.142487 7.98777 0.305334 7.57355 0.607545C7.15932 0.909757 6.85178 1.33571 6.69527 1.824L5.70002 4.926H2.42327C1.91308 4.92672 1.41617 5.08866 1.00351 5.38868C0.590849 5.68869 0.283553 6.11144 0.125514 6.59654C-0.0325258 7.08164 -0.0332253 7.60427 0.123515 8.08979C0.280255 8.57531 0.586418 8.99888 0.998273 9.3H0.995273Z" fill="url(#paint0_linear_2460_18904)"/>
<defs>
<linearGradient id="paint0_linear_2460_18904" x1="9.0015" y1="0.142077" x2="9.0015" y2="17.5664" gradientUnits="userSpaceOnUse">
<stop stop-color="#FFCE4F"/>
<stop offset="1" stop-color="#FFA929"/>
</linearGradient>
</defs>
</svg>
