<svg width="34" height="34" viewBox="0 0 34 34" fill="none" xmlns="http://www.w3.org/2000/svg">
<rect x="0.25" y="0.25" width="33.5" height="33.5" rx="5.75" stroke="#BA2882" stroke-width="0.5"/>
<path d="M11.3872 23.0312V24.1973H6.85789V23.0312H11.3872ZM7.22117 19.4688V28H5.75047V19.4688H7.22117ZM12.518 19.4688V28H11.0532V19.4688H12.518ZM15.4611 21.6602V28H14.0431V21.6602H15.4611ZM13.9494 19.9961C13.9494 19.7812 14.0197 19.6035 14.1603 19.4629C14.3048 19.3184 14.5041 19.2461 14.758 19.2461C15.008 19.2461 15.2052 19.3184 15.3498 19.4629C15.4943 19.6035 15.5666 19.7812 15.5666 19.9961C15.5666 20.207 15.4943 20.3828 15.3498 20.5234C15.2052 20.6641 15.008 20.7344 14.758 20.7344C14.5041 20.7344 14.3048 20.6641 14.1603 20.5234C14.0197 20.3828 13.9494 20.207 13.9494 19.9961ZM20.6952 26.6875V19H22.1131V28H20.8299L20.6952 26.6875ZM16.5702 24.9004V24.7773C16.5702 24.2969 16.6268 23.8594 16.7401 23.4648C16.8534 23.0664 17.0174 22.7246 17.2323 22.4395C17.4471 22.1504 17.7088 21.9297 18.0174 21.7773C18.326 21.6211 18.6737 21.543 19.0604 21.543C19.4432 21.543 19.7791 21.6172 20.0682 21.7656C20.3573 21.9141 20.6034 22.127 20.8065 22.4043C21.0096 22.6777 21.1717 23.0059 21.2928 23.3887C21.4139 23.7676 21.4998 24.1895 21.5506 24.6543V25.0469C21.4998 25.5 21.4139 25.9141 21.2928 26.2891C21.1717 26.6641 21.0096 26.9883 20.8065 27.2617C20.6034 27.5352 20.3553 27.7461 20.0623 27.8945C19.7733 28.043 19.4354 28.1172 19.0487 28.1172C18.6659 28.1172 18.3202 28.0371 18.0116 27.877C17.7069 27.7168 17.4471 27.4922 17.2323 27.2031C17.0174 26.9141 16.8534 26.5742 16.7401 26.1836C16.6268 25.7891 16.5702 25.3613 16.5702 24.9004ZM17.9823 24.7773V24.9004C17.9823 25.1895 18.0077 25.459 18.0584 25.709C18.1131 25.959 18.1971 26.1797 18.3104 26.3711C18.4237 26.5586 18.5702 26.707 18.7498 26.8164C18.9334 26.9219 19.1522 26.9746 19.4061 26.9746C19.7264 26.9746 19.9901 26.9043 20.1971 26.7637C20.4041 26.623 20.5662 26.4336 20.6834 26.1953C20.8045 25.9531 20.8866 25.6836 20.9295 25.3867V24.3262C20.9061 24.0957 20.8573 23.8809 20.783 23.6816C20.7127 23.4824 20.617 23.3086 20.4959 23.1602C20.3748 23.0078 20.2245 22.8906 20.0448 22.8086C19.869 22.7227 19.66 22.6797 19.4178 22.6797C19.16 22.6797 18.9412 22.7344 18.7616 22.8438C18.5819 22.9531 18.4334 23.1035 18.3162 23.2949C18.203 23.4863 18.119 23.709 18.0643 23.9629C18.0096 24.2168 17.9823 24.4883 17.9823 24.7773ZM26.2046 28.1172C25.7359 28.1172 25.312 28.041 24.9331 27.8887C24.5581 27.7324 24.2378 27.5156 23.9722 27.2383C23.7105 26.9609 23.5093 26.6348 23.3687 26.2598C23.228 25.8848 23.1577 25.4805 23.1577 25.0469V24.8125C23.1577 24.3164 23.23 23.8672 23.3745 23.4648C23.5191 23.0625 23.7202 22.7188 23.978 22.4336C24.2359 22.1445 24.5405 21.9238 24.8921 21.7715C25.2437 21.6191 25.6245 21.543 26.0347 21.543C26.4878 21.543 26.8843 21.6191 27.2241 21.7715C27.564 21.9238 27.8452 22.1387 28.0679 22.416C28.2945 22.6895 28.4624 23.0156 28.5718 23.3945C28.6851 23.7734 28.7417 24.1914 28.7417 24.6484V25.252H23.8433V24.2383H27.3472V24.127C27.3394 23.873 27.2886 23.6348 27.1948 23.4121C27.105 23.1895 26.9663 23.0098 26.7788 22.873C26.5913 22.7363 26.3413 22.668 26.0288 22.668C25.7945 22.668 25.5855 22.7188 25.4019 22.8203C25.2222 22.918 25.0718 23.0605 24.9507 23.248C24.8296 23.4355 24.7359 23.6621 24.6695 23.9277C24.607 24.1895 24.5757 24.4844 24.5757 24.8125V25.0469C24.5757 25.3242 24.6128 25.582 24.687 25.8203C24.7652 26.0547 24.8784 26.2598 25.0269 26.4355C25.1753 26.6113 25.355 26.75 25.5659 26.8516C25.7769 26.9492 26.0171 26.998 26.2866 26.998C26.6265 26.998 26.9292 26.9297 27.1948 26.793C27.4605 26.6562 27.6909 26.4629 27.8862 26.2129L28.6304 26.9336C28.4937 27.1328 28.3159 27.3242 28.0972 27.5078C27.8784 27.6875 27.6109 27.834 27.2945 27.9473C26.982 28.0605 26.6187 28.1172 26.2046 28.1172Z" fill="#BA2882"/>
<path d="M16.1205 10.6056C16.1205 11.0269 15.7791 11.3683 15.3578 11.3683C14.9367 11.3683 14.5952 11.0269 14.5952 10.6056C14.5952 10.1845 14.9367 9.84302 15.3578 9.84302C15.7791 9.84302 16.1205 10.1845 16.1205 10.6056Z" fill="#BA2882"/>
<path d="M19.2797 10.6056C19.2797 11.0269 18.9382 11.3683 18.5171 11.3683C18.0958 11.3683 17.7544 11.0269 17.7544 10.6056C17.7544 10.1845 18.0958 9.84302 18.5171 9.84302C18.9382 9.84302 19.2797 10.1845 19.2797 10.6056Z" fill="#BA2882"/>
<path d="M29.4397 12.8117H28.4592V12.4849C28.4592 12.0219 28.0778 11.6134 27.5876 11.6134C27.3697 11.6134 27.2063 11.6951 27.0429 11.804C26.9067 11.695 26.7161 11.6134 26.4981 11.6134C26.2802 11.6134 26.1168 11.6951 25.9534 11.804C25.8172 11.695 25.6266 11.6134 25.4086 11.6134C25.1907 11.6134 25.0273 11.6951 24.8639 11.804C24.7277 11.695 24.5371 11.6134 24.3191 11.6134C23.8561 11.6134 23.4476 11.9947 23.4476 12.4849V12.8117H21.541C21.5682 12.73 21.5682 12.6755 21.5954 12.5938C22.3308 12.4304 22.6849 11.9128 22.6849 11.014C22.6849 10.333 22.5215 9.84271 22.1946 9.54312C22.0584 9.40693 21.8405 9.29796 21.5136 9.24353C21.5409 8.75321 21.5136 8.15404 21.4592 7.44589C21.432 7.06454 21.3775 6.76495 21.2958 6.46536C21.4048 5.92062 21.4592 5.32144 21.3776 4.83112C21.3503 4.66771 21.1596 4.55875 20.969 4.61318C20.86 4.6404 20.7784 4.69493 20.6694 4.72215C20.6966 4.55875 20.6966 4.42256 20.6694 4.25916C20.6422 4.06854 20.4515 3.95957 20.2608 4.014C19.4709 4.31359 18.327 4.58596 16.8562 4.58596C14.432 4.58596 12.4437 4.69493 12.253 7.44589C12.1986 8.18126 12.1986 8.75333 12.1986 9.24354C11.8718 9.27076 11.6539 9.40694 11.5177 9.54313C11.1909 9.84271 11.0274 10.333 11.0274 11.014C11.0274 11.9128 11.3815 12.4303 12.1168 12.5938C12.1168 12.6755 12.1441 12.73 12.1713 12.8117H10.2919V12.4849C10.2919 12.0219 9.91054 11.6134 9.42033 11.6134C9.2024 11.6134 9.03899 11.6951 8.87559 11.804C8.7394 11.695 8.54878 11.6134 8.33084 11.6134C8.1129 11.6134 7.94949 11.6951 7.78609 11.804C7.6499 11.695 7.45929 11.6134 7.24134 11.6134C7.02341 11.6134 6.86 11.6951 6.69659 11.804C6.56041 11.695 6.36979 11.6134 6.15185 11.6134C5.68886 11.6134 5.28029 11.9947 5.28029 12.4849V12.8117H4.43578C4.19062 12.8117 4 13.0023 4 13.2475C4 13.4926 4.19063 13.6833 4.43578 13.6833H5.68867C5.85208 13.8195 6.04281 13.9012 6.26064 13.9012C6.39682 13.9012 6.53301 13.874 6.6692 13.7922C6.8326 13.9829 7.07776 14.119 7.35013 14.119C7.48632 14.119 7.62251 14.0918 7.75869 14.0101C7.9221 14.228 8.16725 14.3642 8.43963 14.3642C8.712 14.3642 8.95716 14.228 9.12056 14.0101C9.22953 14.0645 9.36572 14.119 9.52912 14.119C9.85593 14.119 10.1283 13.9284 10.2645 13.6833H23.6381C23.7742 13.9556 24.0738 14.119 24.4007 14.119C24.5369 14.119 24.6731 14.0918 24.8093 14.0101C24.9727 14.228 25.2179 14.3642 25.4902 14.3642C25.7626 14.3642 26.0078 14.228 26.1712 14.0101C26.2801 14.0645 26.4163 14.119 26.5797 14.119C26.8521 14.119 27.0973 13.9829 27.2607 13.7922C27.3696 13.8467 27.5058 13.9012 27.6692 13.9012C27.8872 13.9012 28.0778 13.8195 28.2412 13.6833H29.4941C29.7393 13.6833 29.9299 13.4926 29.9299 13.2475C29.8755 13.0023 29.6849 12.8117 29.4397 12.8117L29.4397 12.8117ZM27.6147 12.267C27.7237 12.267 27.8327 12.3759 27.8327 12.4849V13.0296C27.8327 13.1386 27.7237 13.2476 27.6147 13.2476C27.5058 13.2476 27.3968 13.1386 27.3968 13.0296V12.4849C27.3969 12.3758 27.5059 12.267 27.6147 12.267ZM13.0155 12.267C12.9883 11.9946 12.7703 11.804 12.5252 11.7766C12.1984 11.7494 11.9804 11.7222 11.9804 11.014C11.9804 10.442 12.1166 10.2513 12.1984 10.1968C12.2256 10.1696 12.2801 10.1151 12.4435 10.1151C12.4707 10.3875 12.498 10.6326 12.5253 10.7688C12.607 11.0684 13.3424 11.0412 13.3968 10.796C13.4513 10.5781 13.2606 9.13456 13.9416 7.85438C14.6497 8.15397 15.712 8.3447 16.9377 8.3447C18.1634 8.3447 19.2256 8.15408 19.9338 7.85438C20.6147 9.1345 20.4513 10.5781 20.4786 10.796C20.533 11.0412 21.2685 11.0684 21.3501 10.7688C21.3773 10.6326 21.4045 10.3875 21.4319 10.1151C21.5953 10.1151 21.6498 10.1695 21.677 10.1968C21.7588 10.2786 21.8949 10.4692 21.8949 11.014C21.8949 11.7221 21.677 11.7493 21.3502 11.7766C21.0778 11.8039 20.8872 11.9946 20.8599 12.267C20.8327 12.4576 20.8054 12.6211 20.7509 12.8117H13.1244C13.0972 12.6482 13.0427 12.4576 13.0155 12.267H13.0155ZM6.04273 12.4848C6.04273 12.3758 6.1517 12.2669 6.26066 12.2669C6.36963 12.2669 6.4786 12.3758 6.4786 12.4848V13.0296C6.4786 13.1385 6.36963 13.2475 6.26066 13.2475C6.1517 13.2475 6.04273 13.1657 6.04273 13.0296V12.4848ZM7.35017 13.4926C7.2412 13.4926 7.13223 13.3837 7.13223 13.2747V12.512C7.13223 12.403 7.2412 12.2941 7.35017 12.2941C7.45914 12.2941 7.5681 12.403 7.5681 12.512L7.56802 13.2747C7.56802 13.3837 7.45905 13.4926 7.35017 13.4926H7.35017ZM8.63028 13.4926C8.63028 13.6016 8.52131 13.7106 8.41235 13.7106C8.30338 13.7106 8.19441 13.6016 8.19441 13.4926L8.1945 13.2747V12.512C8.1945 12.403 8.30347 12.2941 8.41243 12.2941C8.5214 12.2941 8.63037 12.403 8.63037 12.512L8.63028 13.2747V13.4926ZM9.71978 13.2747C9.71978 13.3837 9.61081 13.4926 9.50184 13.4926C9.39287 13.4926 9.28391 13.3837 9.28391 13.2747V12.512C9.28391 12.403 9.39287 12.2941 9.50184 12.2941C9.61081 12.2941 9.71978 12.403 9.71978 12.512V13.2747ZM24.3735 13.4926C24.2645 13.4926 24.1556 13.3837 24.1556 13.2747V12.512C24.1556 12.403 24.2645 12.2941 24.3735 12.2941C24.4825 12.2941 24.5914 12.403 24.5914 12.512L24.5913 13.2747C24.5913 13.3837 24.5097 13.4926 24.3735 13.4926ZM25.6808 13.4926C25.6808 13.6016 25.5719 13.7106 25.4629 13.7106C25.3539 13.7106 25.245 13.6016 25.245 13.4926L25.2451 13.2747V12.512C25.2451 12.403 25.354 12.2941 25.463 12.2941C25.572 12.2941 25.6809 12.403 25.6809 12.512L25.6808 13.2747V13.4926ZM26.7431 13.2747C26.7431 13.3837 26.6342 13.4926 26.5252 13.4926C26.4162 13.4926 26.3073 13.3837 26.3073 13.2747V12.512C26.3073 12.403 26.4162 12.2941 26.5252 12.2941C26.6342 12.2941 26.7431 12.403 26.7431 12.512V13.2747Z" fill="#BA2882"/>
</svg>
