<svg xmlns="http://www.w3.org/2000/svg" fill="none" viewBox="6.67 6.67 26.71 28.33">
<path fill-rule="evenodd" clip-rule="evenodd" d="M21.6816 10.418C21.6816 9.03797 20.5616 7.91797 19.1816 7.91797C17.8016 7.91797 16.6816 9.03797 16.6816 10.418C16.6816 11.798 17.8016 12.918 19.1816 12.918C20.5616 12.918 21.6816 11.798 21.6816 10.418ZM15.4316 10.418C15.4316 8.3463 17.11 6.66797 19.1816 6.66797C21.2533 6.66797 22.9316 8.3463 22.9316 10.418C22.9316 12.4896 21.2533 14.168 19.1816 14.168C17.11 14.168 15.4316 12.4896 15.4316 10.418ZM18.3483 11.3846V11.668H20.015V11.3846H19.5983V8.65131H19.265L18.3483 9.56797H18.765V11.3846H18.3483ZM32.7314 18.7346C32.9564 18.9663 33.1297 19.2513 33.2314 19.5846L33.228 19.5613C33.3264 19.8563 33.3797 20.1713 33.3797 20.4996C33.3797 20.6463 33.368 20.7913 33.348 20.9313C33.2697 21.533 33.018 22.0796 32.6497 22.5163L32.6481 22.532C32.3263 22.2004 31.9772 21.8954 31.6044 21.6208C31.6029 21.5134 31.5948 21.4073 31.5814 21.3146C31.5814 20.9746 31.3697 20.6846 31.068 20.568C30.988 20.523 30.898 20.498 30.7997 20.498C30.613 20.498 30.4497 20.5913 30.3514 20.728C30.333 20.7622 30.3167 20.7976 30.3025 20.834C29.2038 20.3005 27.9704 20.0013 26.667 20.0013C22.0646 20.0013 18.3337 23.7323 18.3337 28.3346C18.3337 29.5188 18.5807 30.6453 19.026 31.6654C18.1968 31.6561 17.3889 31.5727 16.6814 31.4346V32.0846C16.6814 33.3346 15.6647 33.3346 13.4814 33.3346H11.6814L11.6564 29.3163C10.6947 28.6196 9.87969 27.7313 9.24802 26.668H8.34802C6.39802 26.668 6.68136 20.0013 6.68136 20.0013L9.26969 19.9596C9.80302 19.0263 10.503 18.203 11.348 17.518L10.0147 13.3346C14.3814 13.3346 15.3314 14.8013 15.4347 15.5246C16.6247 15.1863 17.8814 15.0046 19.153 15.003C19.3564 14.9913 19.5614 14.9863 19.768 14.9863C23.8214 14.9863 27.3664 17.158 29.3364 20.438C29.3864 20.2796 29.453 20.1313 29.5364 19.9946C29.808 19.5313 30.3114 19.2213 30.888 19.2213C31.1147 19.2213 31.3297 19.2696 31.528 19.358C31.848 19.498 32.123 19.7196 32.328 19.9963C32.4264 20.1363 32.5064 20.2913 32.5647 20.483C32.578 20.3646 32.5847 20.2463 32.5847 20.1263C32.5847 20.0063 32.578 19.888 32.5647 19.7763C32.5464 19.5046 32.4864 19.243 32.393 18.998C32.3097 18.758 32.198 18.533 32.0747 18.338C32.3297 18.4063 32.5564 18.5463 32.7314 18.7346ZM13.7814 20.8346C13.7814 20.1446 13.2214 19.5846 12.5314 19.5846C11.8414 19.5846 11.2814 20.1446 11.2814 20.8346C11.2814 21.5246 11.8414 22.0846 12.5314 22.0846C13.2214 22.0846 13.7814 21.5246 13.7814 20.8346ZM16.2247 18.3746C16.3164 18.3746 16.4047 18.3596 16.4814 18.3346L16.3964 18.3513C17.3347 18.1213 18.3147 17.9996 19.323 17.9996H19.393H19.4714C20.4797 17.9996 21.4614 18.1213 22.3147 18.333H22.5697C22.818 18.293 23.0297 18.1363 23.1464 17.9213C23.1664 17.8596 23.178 17.793 23.178 17.723C23.178 17.4063 22.9514 17.143 22.7414 17.103C21.6997 16.8496 20.613 16.7163 19.493 16.7163C19.4595 16.7163 19.4255 16.7168 19.3945 16.7172H19.3945H19.3944C19.3684 16.7176 19.3445 16.718 19.3247 16.718C19.2614 16.7163 19.1997 16.7163 19.1364 16.7163C18.0164 16.7163 16.928 16.8496 15.9764 17.0846C15.678 17.143 15.4514 17.4063 15.4514 17.723C15.4514 17.793 15.4614 17.8596 15.483 17.923C15.6214 18.1913 15.9014 18.3746 16.2247 18.3746ZM33.3337 28.3346C33.3337 32.0165 30.3489 35.0013 26.667 35.0013C22.9851 35.0013 20.0003 32.0165 20.0003 28.3346C20.0003 24.6527 22.9851 21.668 26.667 21.668C30.3489 21.668 33.3337 24.6527 33.3337 28.3346ZM23.7503 31.4596C23.5202 31.4596 23.3337 31.6345 23.3337 31.8503V32.1107C23.3337 32.3264 23.5202 32.5013 23.7503 32.5013H29.5837C29.8138 32.5013 30.0003 32.3264 30.0003 32.1107V31.8503C30.0003 31.6345 29.8138 31.4596 29.5837 31.4596C29.5837 29.9791 28.698 28.7296 27.4857 28.3346C28.698 27.9397 29.5837 26.6902 29.5837 25.2096C29.8138 25.2096 30.0003 25.0347 30.0003 24.819V24.5586C30.0003 24.3429 29.8138 24.168 29.5837 24.168H23.7503C23.5202 24.168 23.3337 24.3429 23.3337 24.5586V24.819C23.3337 25.0347 23.5202 25.2096 23.7503 25.2096C23.7503 26.6902 24.636 27.9397 25.8483 28.3346C24.636 28.7296 23.7503 29.9791 23.7503 31.4596ZM26.667 29.1159C27.6702 29.1159 28.4725 30.1985 28.4725 31.4596H24.8614C24.8614 30.191 25.6689 29.1159 26.667 29.1159Z" fill="#63364D"/>
</svg>