<svg width="28" height="29" viewBox="0 0 28 29" fill="none" xmlns="http://www.w3.org/2000/svg">
<path fill-rule="evenodd" clip-rule="evenodd" d="M15.6812 4.41797C15.6812 3.03797 14.5612 1.91797 13.1812 1.91797C11.8012 1.91797 10.6812 3.03797 10.6812 4.41797C10.6812 5.79797 11.8012 6.91797 13.1812 6.91797C14.5612 6.91797 15.6812 5.79797 15.6812 4.41797ZM9.43115 4.41797C9.43115 2.3463 11.1095 0.667969 13.1812 0.667969C15.2528 0.667969 16.9312 2.3463 16.9312 4.41797C16.9312 6.48964 15.2528 8.16797 13.1812 8.16797C11.1095 8.16797 9.43115 6.48964 9.43115 4.41797ZM12.3478 5.38464V5.66797H14.0145V5.38464H13.5978V2.65131H13.2645L12.3478 3.56797H12.7645V5.38464H12.3478ZM26.7309 12.7346C26.9559 12.9663 27.1292 13.2513 27.2309 13.5846L27.2275 13.5613C27.3259 13.8563 27.3792 14.1713 27.3792 14.4996C27.3792 14.6463 27.3675 14.7913 27.3475 14.9313C27.2692 15.533 27.0175 16.0796 26.6492 16.5163L26.6476 16.532C26.3259 16.2004 25.9767 15.8954 25.6039 15.6208C25.6024 15.5134 25.5943 15.4073 25.5809 15.3146C25.5809 14.9746 25.3692 14.6846 25.0675 14.568C24.9875 14.523 24.8975 14.498 24.7992 14.498C24.6125 14.498 24.4492 14.5913 24.3509 14.728C24.3326 14.7622 24.3162 14.7976 24.302 14.834C23.2034 14.3005 21.9699 14.0013 20.6665 14.0013C16.0641 14.0013 12.3332 17.7323 12.3332 22.3346C12.3332 23.5188 12.5802 24.6453 13.0255 25.6654C12.1963 25.6561 11.3884 25.5727 10.6809 25.4346V26.0846C10.6809 27.3346 9.6642 27.3346 7.48087 27.3346H5.68087L5.65587 23.3163C4.6942 22.6196 3.8792 21.7313 3.24754 20.668H2.34754C0.397536 20.668 0.680869 14.0013 0.680869 14.0013L3.2692 13.9596C3.80254 13.0263 4.50254 12.203 5.34754 11.518L4.0142 7.33464C8.38087 7.33464 9.33087 8.8013 9.4342 9.52464C10.6242 9.1863 11.8809 9.00464 13.1525 9.00297C13.3559 8.9913 13.5609 8.9863 13.7675 8.9863C17.8209 8.9863 21.3659 11.158 23.3359 14.438C23.3859 14.2796 23.4525 14.1313 23.5359 13.9946C23.8075 13.5313 24.3109 13.2213 24.8875 13.2213C25.1142 13.2213 25.3292 13.2696 25.5275 13.358C25.8475 13.498 26.1225 13.7196 26.3275 13.9963C26.4259 14.1363 26.5059 14.2913 26.5642 14.483C26.5775 14.3646 26.5842 14.2463 26.5842 14.1263C26.5842 14.0063 26.5775 13.888 26.5642 13.7763C26.5459 13.5046 26.4859 13.243 26.3925 12.998C26.3092 12.758 26.1975 12.533 26.0742 12.338C26.3292 12.4063 26.5559 12.5463 26.7309 12.7346ZM7.78087 14.8346C7.78087 14.1446 7.22087 13.5846 6.53087 13.5846C5.84087 13.5846 5.28087 14.1446 5.28087 14.8346C5.28087 15.5246 5.84087 16.0846 6.53087 16.0846C7.22087 16.0846 7.78087 15.5246 7.78087 14.8346ZM10.2242 12.3746C10.3159 12.3746 10.4042 12.3596 10.4809 12.3346L10.3959 12.3513C11.3342 12.1213 12.3142 11.9996 13.3225 11.9996H13.3925H13.4709C14.4792 11.9996 15.4609 12.1213 16.3142 12.333H16.5692C16.8175 12.293 17.0292 12.1363 17.1459 11.9213C17.1659 11.8596 17.1775 11.793 17.1775 11.723C17.1775 11.4063 16.9509 11.143 16.7409 11.103C15.6992 10.8496 14.6125 10.7163 13.4925 10.7163C13.459 10.7163 13.425 10.7168 13.394 10.7172H13.394H13.3939C13.3679 10.7176 13.344 10.718 13.3242 10.718C13.2609 10.7163 13.1992 10.7163 13.1359 10.7163C12.0159 10.7163 10.9275 10.8496 9.97587 11.0846C9.67754 11.143 9.45087 11.4063 9.45087 11.723C9.45087 11.793 9.46087 11.8596 9.48254 11.923C9.62087 12.1913 9.90087 12.3746 10.2242 12.3746ZM27.3332 22.3346C27.3332 26.0165 24.3484 29.0013 20.6665 29.0013C16.9846 29.0013 13.9998 26.0165 13.9998 22.3346C13.9998 18.6527 16.9846 15.668 20.6665 15.668C24.3484 15.668 27.3332 18.6527 27.3332 22.3346ZM17.7498 25.4596C17.5197 25.4596 17.3332 25.6345 17.3332 25.8503V26.1107C17.3332 26.3264 17.5197 26.5013 17.7498 26.5013H23.5832C23.8133 26.5013 23.9998 26.3264 23.9998 26.1107V25.8503C23.9998 25.6345 23.8133 25.4596 23.5832 25.4596C23.5832 23.9791 22.6975 22.7296 21.4852 22.3346C22.6975 21.9397 23.5832 20.6902 23.5832 19.2096C23.8133 19.2096 23.9998 19.0347 23.9998 18.819V18.5586C23.9998 18.3429 23.8133 18.168 23.5832 18.168H17.7498C17.5197 18.168 17.3332 18.3429 17.3332 18.5586V18.819C17.3332 19.0347 17.5197 19.2096 17.7498 19.2096C17.7498 20.6902 18.6355 21.9397 19.8478 22.3346C18.6355 22.7296 17.7498 23.9791 17.7498 25.4596ZM20.6665 23.1159C21.6698 23.1159 22.4721 24.1985 22.4721 25.4596H18.8609C18.861 24.191 19.6684 23.1159 20.6665 23.1159Z" fill="white"/>
</svg>
