<svg width="34" height="34" viewBox="0 0 34 34" fill="none" xmlns="http://www.w3.org/2000/svg">
<rect x="0.25" y="0.25" width="33.5" height="33.5" rx="5.75" stroke="#BA2882" stroke-width="0.5"/>
<path d="M7.80125 25.8027C7.80125 25.627 7.77391 25.4707 7.71922 25.334C7.66844 25.1973 7.57664 25.0723 7.44383 24.959C7.31102 24.8457 7.12352 24.7363 6.88133 24.6309C6.64305 24.5215 6.33836 24.4102 5.96727 24.2969C5.56102 24.1719 5.18602 24.0332 4.84227 23.8809C4.50242 23.7246 4.20555 23.5449 3.95164 23.3418C3.69773 23.1348 3.50047 22.8984 3.35984 22.6328C3.21922 22.3633 3.14891 22.0527 3.14891 21.7012C3.14891 21.3535 3.22117 21.0371 3.3657 20.752C3.51414 20.4668 3.72313 20.2207 3.99266 20.0137C4.26609 19.8027 4.58836 19.6406 4.95945 19.5273C5.33055 19.4102 5.7407 19.3516 6.18992 19.3516C6.82273 19.3516 7.36766 19.4688 7.82469 19.7031C8.28563 19.9375 8.63914 20.252 8.88523 20.6465C9.13523 21.041 9.26023 21.4766 9.26023 21.9531H7.80125C7.80125 21.6719 7.7407 21.4238 7.61961 21.209C7.50242 20.9902 7.32273 20.8184 7.08055 20.6934C6.84227 20.5684 6.53953 20.5059 6.17234 20.5059C5.82469 20.5059 5.53563 20.5586 5.30516 20.6641C5.07469 20.7695 4.90281 20.9121 4.78953 21.0918C4.67625 21.2715 4.61961 21.4746 4.61961 21.7012C4.61961 21.8613 4.65672 22.0078 4.73094 22.1406C4.80516 22.2695 4.91844 22.3906 5.07078 22.5039C5.22313 22.6133 5.41453 22.7168 5.645 22.8145C5.87547 22.9121 6.14695 23.0059 6.45945 23.0957C6.93211 23.2363 7.34422 23.3926 7.69578 23.5645C8.04734 23.7324 8.34031 23.9238 8.57469 24.1387C8.80906 24.3535 8.98484 24.5977 9.10203 24.8711C9.21922 25.1406 9.27781 25.4473 9.27781 25.791C9.27781 26.1504 9.20555 26.4746 9.06102 26.7637C8.91648 27.0488 8.70945 27.293 8.43992 27.4961C8.1743 27.6953 7.85398 27.8496 7.47898 27.959C7.10789 28.0645 6.69383 28.1172 6.2368 28.1172C5.82664 28.1172 5.42234 28.0625 5.02391 27.9531C4.62938 27.8438 4.27 27.6777 3.94578 27.4551C3.62156 27.2285 3.36375 26.9473 3.17234 26.6113C2.98094 26.2715 2.88523 25.875 2.88523 25.4219H4.35594C4.35594 25.6992 4.40281 25.9355 4.49656 26.1309C4.59422 26.3262 4.72898 26.4863 4.90086 26.6113C5.07273 26.7324 5.27195 26.8223 5.49852 26.8809C5.72898 26.9395 5.97508 26.9688 6.2368 26.9688C6.58055 26.9688 6.86766 26.9199 7.09813 26.8223C7.3325 26.7246 7.50828 26.5879 7.62547 26.4121C7.74266 26.2363 7.80125 26.0332 7.80125 25.8027ZM11.6525 19V28H10.2463V19H11.6525ZM11.4064 24.5957L10.9494 24.5898C10.9533 24.1523 11.0138 23.748 11.131 23.377C11.2521 23.0059 11.4201 22.6836 11.6349 22.4102C11.8537 22.1328 12.1154 21.9199 12.4201 21.7715C12.7248 21.6191 13.0627 21.543 13.4338 21.543C13.7463 21.543 14.0275 21.5859 14.2775 21.6719C14.5314 21.7578 14.7502 21.8965 14.9338 22.0879C15.1173 22.2754 15.256 22.5215 15.3498 22.8262C15.4474 23.127 15.4963 23.4941 15.4963 23.9277V28H14.0783V23.916C14.0783 23.6113 14.0334 23.3691 13.9435 23.1895C13.8576 23.0098 13.7306 22.8809 13.5627 22.8027C13.3947 22.7207 13.1896 22.6797 12.9474 22.6797C12.6935 22.6797 12.4689 22.7305 12.2736 22.832C12.0822 22.9336 11.922 23.0723 11.7931 23.248C11.6642 23.4238 11.5666 23.627 11.5002 23.8574C11.4377 24.0879 11.4064 24.334 11.4064 24.5957ZM16.4764 24.9004V24.7656C16.4764 24.3086 16.5428 23.8848 16.6756 23.4941C16.8084 23.0996 16.9998 22.7578 17.2498 22.4688C17.5037 22.1758 17.8123 21.9492 18.1756 21.7891C18.5428 21.625 18.9569 21.543 19.4178 21.543C19.8827 21.543 20.2967 21.625 20.66 21.7891C21.0272 21.9492 21.3377 22.1758 21.5916 22.4688C21.8455 22.7578 22.0389 23.0996 22.1717 23.4941C22.3045 23.8848 22.3709 24.3086 22.3709 24.7656V24.9004C22.3709 25.3574 22.3045 25.7812 22.1717 26.1719C22.0389 26.5625 21.8455 26.9043 21.5916 27.1973C21.3377 27.4863 21.0291 27.7129 20.6659 27.877C20.3026 28.0371 19.8905 28.1172 19.4295 28.1172C18.9647 28.1172 18.5487 28.0371 18.1815 27.877C17.8182 27.7129 17.5096 27.4863 17.2557 27.1973C17.0018 26.9043 16.8084 26.5625 16.6756 26.1719C16.5428 25.7812 16.4764 25.3574 16.4764 24.9004ZM17.8885 24.7656V24.9004C17.8885 25.1855 17.9178 25.4551 17.9764 25.709C18.035 25.9629 18.1268 26.1855 18.2518 26.377C18.3768 26.5684 18.537 26.7188 18.7323 26.8281C18.9276 26.9375 19.16 26.9922 19.4295 26.9922C19.6912 26.9922 19.9178 26.9375 20.1092 26.8281C20.3045 26.7188 20.4647 26.5684 20.5897 26.377C20.7147 26.1855 20.8065 25.9629 20.8651 25.709C20.9276 25.4551 20.9588 25.1855 20.9588 24.9004V24.7656C20.9588 24.4844 20.9276 24.2188 20.8651 23.9688C20.8065 23.7148 20.7127 23.4902 20.5838 23.2949C20.4588 23.0996 20.2987 22.9473 20.1034 22.8379C19.912 22.7246 19.6834 22.668 19.4178 22.668C19.1522 22.668 18.9217 22.7246 18.7264 22.8379C18.535 22.9473 18.3768 23.0996 18.2518 23.2949C18.1268 23.4902 18.035 23.7148 17.9764 23.9688C17.9178 24.2188 17.8885 24.4844 17.8885 24.7656ZM25.0972 26.5938L26.562 21.6602H27.4644L27.2183 23.1367L25.7417 28H24.9331L25.0972 26.5938ZM24.2359 21.6602L25.3784 26.6172L25.4722 28H24.5698L22.853 21.6602H24.2359ZM28.8355 26.5586L29.9429 21.6602H31.3198L29.6089 28H28.7066L28.8355 26.5586ZM27.6167 21.6602L29.064 26.5352L29.2456 28H28.437L26.9429 23.1309L26.6968 21.6602H27.6167Z" fill="#BA2882"/>
<rect x="4" y="15.0991" width="26" height="0.900901" rx="0.45045" fill="#BA2882"/>
<rect x="5" y="13.1819" width="5.21739" height="1.81818" fill="#BA2882"/>
<rect x="7.08691" y="10.4546" width="5.21739" height="1.81818" fill="#BA2882"/>
<rect x="5" y="7.72729" width="5.21739" height="1.81818" fill="#BA2882"/>
<rect x="5" y="5" width="3.13043" height="1.81818" fill="#BA2882"/>
<rect x="9.17383" y="5" width="5.21739" height="1.81818" fill="#BA2882"/>
<rect x="15.4346" y="5" width="5.21739" height="1.81818" fill="#BA2882"/>
<rect x="21.6958" y="5" width="5.21739" height="1.81818" fill="#BA2882"/>
<rect x="11.2607" y="7.72729" width="5.21739" height="1.81818" fill="#BA2882"/>
<rect x="13.3477" y="10.4546" width="5.21739" height="1.81818" fill="#BA2882"/>
<rect x="17.522" y="7.72729" width="5.21739" height="1.81818" fill="#BA2882"/>
<rect x="19.6089" y="10.4546" width="5.21739" height="1.81818" fill="#BA2882"/>
<rect x="17.522" y="13.1819" width="5.21739" height="1.81818" fill="#BA2882"/>
<rect x="23.7827" y="13.1819" width="5.21739" height="1.81818" fill="#BA2882"/>
<rect x="23.7827" y="7.72729" width="5.21739" height="1.81818" fill="#BA2882"/>
<rect x="25.8696" y="10.4546" width="3.13043" height="1.81818" fill="#BA2882"/>
<rect x="5" y="10.4546" width="1.04348" height="1.81818" fill="#BA2882"/>
<rect x="27.9565" y="5" width="1.04348" height="1.81818" fill="#BA2882"/>
<rect x="11.2607" y="13.1819" width="5.21739" height="1.81818" fill="#BA2882"/>
</svg>
