<svg width="77" height="13" viewBox="0 0 77 13" fill="none" xmlns="http://www.w3.org/2000/svg">
<path d="M13 4.63125L11.3648 1.86875L8.1761 3.65625V0H4.90566V3.65625L1.63522 1.86875L0 4.63125L3.18868 6.5L0 8.36875L1.63522 11.1312L4.90566 9.34375V13H8.1761V9.34375L11.3648 11.1312L13 8.36875L9.72956 6.5L13 4.63125Z" fill="white"/>
<path d="M29 4.63125L27.3648 1.86875L24.1761 3.65625V0H20.9057V3.65625L17.6352 1.86875L16 4.63125L19.1887 6.5L16 8.36875L17.6352 11.1312L20.9057 9.34375V13H24.1761V9.34375L27.3648 11.1312L29 8.36875L25.7296 6.5L29 4.63125Z" fill="white"/>
<path d="M45 4.63125L43.3648 1.86875L40.1761 3.65625V0H36.9057V3.65625L33.6352 1.86875L32 4.63125L35.1887 6.5L32 8.36875L33.6352 11.1312L36.9057 9.34375V13H40.1761V9.34375L43.3648 11.1312L45 8.36875L41.7296 6.5L45 4.63125Z" fill="white"/>
<path d="M61 4.63125L59.3648 1.86875L56.1761 3.65625V0H52.9057V3.65625L49.6352 1.86875L48 4.63125L51.1887 6.5L48 8.36875L49.6352 11.1312L52.9057 9.34375V13H56.1761V9.34375L59.3648 11.1312L61 8.36875L57.7296 6.5L61 4.63125Z" fill="white"/>
<path d="M77 4.63125L75.3648 1.86875L72.1761 3.65625V0H68.9057V3.65625L65.6352 1.86875L64 4.63125L67.1887 6.5L64 8.36875L65.6352 11.1312L68.9057 9.34375V13H72.1761V9.34375L75.3648 11.1312L77 8.36875L73.7296 6.5L77 4.63125Z" fill="white"/>
</svg>
