<svg width="45" height="44" viewBox="0 0 45 44" fill="none" xmlns="http://www.w3.org/2000/svg">
<path d="M6.62522 11C7.0233 11.0001 7.40751 11.1399 7.70498 11.3931C8.00245 11.6463 8.1925 11.9952 8.23907 12.3736L8.25045 12.5556V20.3333H16.3766C16.7908 20.3338 17.1892 20.4856 17.4905 20.7578C17.7917 21.0299 17.9729 21.4019 17.9972 21.7977C18.0215 22.1935 17.8869 22.5833 17.6211 22.8873C17.3552 23.1913 16.9781 23.3867 16.5667 23.4336L16.3766 23.4444H8.25045V35.8889H16.3766C16.7908 35.8893 17.1892 36.0411 17.4905 36.3133C17.7917 36.5855 17.9729 36.9575 17.9972 37.3533C18.0215 37.7491 17.8869 38.1388 17.6211 38.4429C17.3552 38.7469 16.9781 38.9423 16.5667 38.9891L16.3766 39H6.62522C6.22715 39 5.84294 38.8601 5.54547 38.6069C5.248 38.3537 5.05795 38.0048 5.01138 37.6264L5 37.4444V12.5556C5 12.3513 5.04204 12.149 5.12371 11.9603C5.20539 11.7715 5.3251 11.6001 5.47602 11.4556C5.62693 11.3112 5.8061 11.1966 6.00328 11.1184C6.20046 11.0402 6.4118 11 6.62522 11Z" fill="#BA2882"/>
<path d="M21.125 1H39.875C41.9583 1 43 2.11111 43 4.33333V7.66667C43 9.88889 41.9583 11 39.875 11H21.125C19.0417 11 18 9.88889 18 7.66667V4.33333C18 2.11111 19.0417 1 21.125 1Z" fill="#BA2882"/>
<path d="M5 1H8C10 1 11 2.11111 11 4.33333V7.66667C11 9.88889 10 11 8 11H5C3 11 2 9.88889 2 7.66667V4.33333C2 2.11111 3 1 5 1Z" fill="#BA2882"/>
<path d="M40.1786 0H20.8929C19.6141 0 18.3878 0.496683 17.4836 1.38078C16.5794 2.26488 16.0714 3.46398 16.0714 4.71429V7.85714C16.0714 9.10745 16.5794 10.3065 17.4836 11.1906C18.3878 12.0747 19.6141 12.5714 20.8929 12.5714H40.1786C41.4573 12.5714 42.6836 12.0747 43.5878 11.1906C44.492 10.3065 45 9.10745 45 7.85714V4.71429C45 3.46398 44.492 2.26488 43.5878 1.38078C42.6836 0.496683 41.4573 0 40.1786 0ZM20.8929 3.14286H40.1786C40.6048 3.14286 41.0136 3.30842 41.315 3.60312C41.6164 3.89782 41.7857 4.29752 41.7857 4.71429V7.85714C41.7857 8.27391 41.6164 8.67361 41.315 8.96831C41.0136 9.26301 40.6048 9.42857 40.1786 9.42857H20.8929C20.6818 9.42857 20.4728 9.38793 20.2778 9.30895C20.0828 9.22998 19.9057 9.11423 19.7564 8.96831C19.6072 8.82239 19.4888 8.64916 19.408 8.4585C19.3273 8.26785 19.2857 8.06351 19.2857 7.85714V4.71429C19.2857 4.50792 19.3273 4.30358 19.408 4.11293C19.4888 3.92227 19.6072 3.74904 19.7564 3.60312C19.9057 3.4572 20.0828 3.34145 20.2778 3.26248C20.4728 3.1835 20.6818 3.14286 20.8929 3.14286ZM8.03571 0H4.82143C3.54271 0 2.31636 0.496683 1.41216 1.38078C0.507971 2.26488 0 3.46398 0 4.71429V7.85714C0 9.10745 0.507971 10.3065 1.41216 11.1906C2.31636 12.0747 3.54271 12.5714 4.82143 12.5714H8.03571C9.31444 12.5714 10.5408 12.0747 11.445 11.1906C12.3492 10.3065 12.8571 9.10745 12.8571 7.85714V4.71429C12.8571 3.46398 12.3492 2.26488 11.445 1.38078C10.5408 0.496683 9.31444 0 8.03571 0ZM4.82143 3.14286H8.03571C8.46196 3.14286 8.87074 3.30842 9.17213 3.60312C9.47353 3.89782 9.64286 4.29752 9.64286 4.71429V7.85714C9.64286 8.27391 9.47353 8.67361 9.17213 8.96831C8.87074 9.26301 8.46196 9.42857 8.03571 9.42857H4.82143C4.39519 9.42857 3.9864 9.26301 3.68501 8.96831C3.38361 8.67361 3.21429 8.27391 3.21429 7.85714V4.71429C3.21429 4.29752 3.38361 3.89782 3.68501 3.60312C3.9864 3.30842 4.39519 3.14286 4.82143 3.14286ZM40.1786 15.7143H20.8929C19.6141 15.7143 18.3878 16.211 17.4836 17.0951C16.5794 17.9792 16.0714 19.1783 16.0714 20.4286V23.5714C16.0714 24.8217 16.5794 26.0208 17.4836 26.9049C18.3878 27.789 19.6141 28.2857 20.8929 28.2857H40.1786C41.4573 28.2857 42.6836 27.789 43.5878 26.9049C44.492 26.0208 45 24.8217 45 23.5714V20.4286C45 19.1783 44.492 17.9792 43.5878 17.0951C42.6836 16.211 41.4573 15.7143 40.1786 15.7143ZM20.8929 18.8571H40.1786C40.3896 18.8571 40.5986 18.8978 40.7936 18.9768C40.9886 19.0557 41.1658 19.1715 41.315 19.3174C41.4642 19.4633 41.5826 19.6366 41.6634 19.8272C41.7441 20.0179 41.7857 20.2222 41.7857 20.4286V23.5714C41.7857 23.7778 41.7441 23.9821 41.6634 24.1728C41.5826 24.3634 41.4642 24.5367 41.315 24.6826C41.1658 24.8285 40.9886 24.9443 40.7936 25.0232C40.5986 25.1022 40.3896 25.1429 40.1786 25.1429H20.8929C20.6818 25.1429 20.4728 25.1022 20.2778 25.0232C20.0828 24.9443 19.9057 24.8285 19.7564 24.6826C19.6072 24.5367 19.4888 24.3634 19.408 24.1728C19.3273 23.9821 19.2857 23.7778 19.2857 23.5714V20.4286C19.2857 20.2222 19.3273 20.0179 19.408 19.8272C19.4888 19.6366 19.6072 19.4633 19.7564 19.3174C19.9057 19.1715 20.0828 19.0557 20.2778 18.9768C20.4728 18.8978 20.6818 18.8571 20.8929 18.8571ZM40.1786 31.4286H20.8929C19.6141 31.4286 18.3878 31.9253 17.4836 32.8094C16.5794 33.6935 16.0714 34.8926 16.0714 36.1429V39.2857C16.0714 40.536 16.5794 41.7351 17.4836 42.6192C18.3878 43.5033 19.6141 44 20.8929 44H40.1786C41.4573 44 42.6836 43.5033 43.5878 42.6192C44.492 41.7351 45 40.536 45 39.2857V36.1429C45 34.8926 44.492 33.6935 43.5878 32.8094C42.6836 31.9253 41.4573 31.4286 40.1786 31.4286ZM20.8929 34.5714H40.1786C40.3896 34.5714 40.5986 34.6121 40.7936 34.691C40.9886 34.77 41.1658 34.8858 41.315 35.0317C41.4642 35.1776 41.5826 35.3508 41.6634 35.5415C41.7441 35.7321 41.7857 35.9365 41.7857 36.1429V39.2857C41.7857 39.7025 41.6164 40.1022 41.315 40.3969C41.0136 40.6916 40.6048 40.8571 40.1786 40.8571H20.8929C20.6818 40.8571 20.4728 40.8165 20.2778 40.7375C20.0828 40.6586 19.9057 40.5428 19.7564 40.3969C19.6072 40.251 19.4888 40.0777 19.408 39.8871C19.3273 39.6964 19.2857 39.4921 19.2857 39.2857V36.1429C19.2857 35.9365 19.3273 35.7321 19.408 35.5415C19.4888 35.3508 19.6072 35.1776 19.7564 35.0317C19.9057 34.8858 20.0828 34.77 20.2778 34.691C20.4728 34.6121 20.6818 34.5714 20.8929 34.5714Z" fill="#BA2882"/>
</svg>
