<svg width="104" height="51" viewBox="0 0 104 51" fill="none" xmlns="http://www.w3.org/2000/svg">
<g opacity="0.9">
<mask id="path-1-inside-1_3674_20861" fill="white">
<path fill-rule="evenodd" clip-rule="evenodd" d="M0 45.8181C3.05666 20.0132 25.0093 0 51.6364 0C78.278 0 100.24 20.0353 103.278 45.8606L64.597 50.981C64.0772 44.2776 58.4731 39 51.6364 39C44.8142 39 39.2193 44.2551 38.6791 50.9382L0 45.8181Z"/>
</mask>
<path fill-rule="evenodd" clip-rule="evenodd" d="M0 45.8181C3.05666 20.0132 25.0093 0 51.6364 0C78.278 0 100.24 20.0353 103.278 45.8606L64.597 50.981C64.0772 44.2776 58.4731 39 51.6364 39C44.8142 39 39.2193 44.2551 38.6791 50.9382L0 45.8181Z" fill="black"/>
<path d="M0 45.8181L-0.993057 45.7005L-1.10909 46.68L-0.131229 46.8094L0 45.8181ZM103.278 45.8606L103.409 46.852L104.386 46.7227L104.271 45.7438L103.278 45.8606ZM64.597 50.981L63.6 51.0583L63.6816 52.1109L64.7282 51.9723L64.597 50.981ZM38.6791 50.9382L38.5479 51.9295L39.5911 52.0676L39.6759 51.0188L38.6791 50.9382ZM51.6364 -1C24.4966 -1 2.12251 19.3983 -0.993057 45.7005L0.993057 45.9357C3.99081 20.6282 25.5221 1 51.6364 1V-1ZM104.271 45.7438C101.175 19.4208 78.7911 -1 51.6364 -1V1C77.765 1 99.3056 20.6498 102.285 45.9775L104.271 45.7438ZM103.147 44.8693L64.4658 49.9896L64.7282 51.9723L103.409 46.852L103.147 44.8693ZM65.594 50.9037C65.0342 43.6836 58.9995 38 51.6364 38V40C57.9467 40 63.1203 44.8715 63.6 51.0583L65.594 50.9037ZM51.6364 38C44.2889 38 38.2642 43.6594 37.6824 50.8576L39.6759 51.0188C40.1745 44.8508 45.3394 40 51.6364 40V38ZM38.8103 49.9468L0.131229 44.8267L-0.131229 46.8094L38.5479 51.9295L38.8103 49.9468Z" fill="#BA2882" mask="url(#path-1-inside-1_3674_20861)"/>
</g>
</svg>
